<?xml version="1.0" encoding="UTF-8"?>
<svg width="36px" height="36px" viewBox="0 0 36 36" version="1.1" xmlns="http://www.w3.org/2000/svg" xmlns:xlink="http://www.w3.org/1999/xlink">
    <title>Control/Menu/Item/资源/HeadPortrait</title>
    <defs>
        <linearGradient x1="-13.4242534%" y1="100%" x2="95.602306%" y2="25.6716241%" id="linearGradient-1">
            <stop stop-color="#1960F6" offset="0.0473769395%"></stop>
            <stop stop-color="#1960F6" offset="100%"></stop>
        </linearGradient>
        <circle id="path-2" cx="18" cy="18" r="18"></circle>
        <path d="M14.0864276,0 C17.9605078,0 19.6870507,1.798033 20.2495985,3.33105469 C20.7296896,4.63937007 20.6525384,5.69734442 20.6196064,8.03270924 C20.9311015,8.22957058 21.2539475,8.56589909 21.3323151,9.12853685 C21.4938807,10.2884914 20.3900804,12.7157263 20.1800736,13.0886255 C20.0751825,13.2748757 19.8211125,13.5696616 19.5093775,13.7863764 C18.9987528,14.8442499 18.3379343,15.8214319 17.5834886,16.598278 C17.6562562,17.4931612 17.8324274,18.3919139 17.9914797,18.5483051 C18.146323,18.7366445 18.9017057,19.0600584 19.7150236,19.3812601 L20.1239984,19.541041 C20.532777,19.6993664 20.9334309,19.8514184 21.2581345,19.9800361 C23.9259687,21.0367872 24.8966808,21.5805871 24.8966808,21.5805871 C25.7046912,21.9807458 26.7296091,22.9336838 27.1902957,23.7165049 L28.1300965,25.3134601 C28.3566104,25.6983636 28.2461882,26.2316889 27.8880647,26.495767 L27.882519,26.5000198 L27.83887,26.5332824 C27.0170968,27.1572524 16.1308373,35.3191417 12.6419443,32.4901758 C12.0916313,32.0439549 11.7083305,31.3272262 11.4540277,30.4323597 L0.456646445,26.2651636 C0.0217884586,26.1004049 -0.123641523,25.6639167 0.112501476,25.2829206 L0.112501476,25.2829206 L1.09873785,23.6917146 C1.57252345,22.927303 2.61316558,21.9807458 3.42117601,21.5805871 C3.42117601,21.5805871 4.39188811,21.0367872 7.05972231,19.9800361 C8.14206769,19.5513102 10.0683049,18.862204 10.3263771,18.5483051 C10.464333,18.4126573 10.6151678,17.7185182 10.700396,16.9520415 L10.7094942,16.8669218 C9.93118755,16.1241163 9.26688333,15.1392205 8.77444678,13.9946919 C8.29617452,13.8212152 7.85820372,13.3489238 7.71161073,13.0886255 C7.5016039,12.7157263 6.39780356,10.2884914 6.55936917,9.12853685 C6.68420386,8.2322907 7.42938906,7.9102921 7.76176336,7.81020601 C7.66600627,6.24303834 7.5776826,4.05085402 8.02409913,3.02748047 C8.57097651,1.77380859 10.2123475,6.68721929e-16 14.0864276,0 Z" id="path-4"></path>
        <radialGradient cx="37.6408217%" cy="7.69387964%" fx="37.6408217%" fy="7.69387964%" r="61.0966198%" gradientTransform="translate(0.376408,0.076939),scale(1.000000,0.889610),rotate(66.915353),translate(-0.376408,-0.076939)" id="radialGradient-6">
            <stop stop-color="#63686C" offset="0%"></stop>
            <stop stop-color="#828588" stop-opacity="0" offset="100%"></stop>
        </radialGradient>
        <radialGradient cx="37.6408217%" cy="7.69387964%" fx="37.6408217%" fy="7.69387964%" r="61.0966198%" gradientTransform="translate(0.376408,0.076939),scale(1.000000,0.889610),rotate(66.915353),translate(-0.376408,-0.076939)" id="radialGradient-7">
            <stop stop-color="#63686C" offset="0%"></stop>
            <stop stop-color="#828588" stop-opacity="0" offset="100%"></stop>
        </radialGradient>
    </defs>
    <g id="项目管理" stroke="none" stroke-width="1" fill="none" fill-rule="evenodd">
        <g transform="translate(-1764.000000, -25.000000)" id="导航条">
            <g id="Control/Menu/Item/组合/Account" transform="translate(1754.000000, 0.000000)">
                <g id="用户信息" transform="translate(10.000000, 23.000000)">
                    <g id="HeadPortrait" transform="translate(0.000000, 2.000000)">
                        <mask id="mask-3" fill="white">
                            <use xlink:href="#path-2"></use>
                        </mask>
                        <use id="Mask" fill="url(#linearGradient-1)" xlink:href="#path-2"></use>
                        <g id="Group" mask="url(#mask-3)">
                            <g transform="translate(3.943945, 6.129902)">
                                <mask id="mask-5" fill="white">
                                    <use xlink:href="#path-4"></use>
                                </mask>
                                <use id="Combined-Shape" stroke="none" fill="#FFFFFF" fill-rule="evenodd" xlink:href="#path-4"></use>
                                <path d="M9.0453251,15.5300977 C10.3482208,17.3756172 11.8754957,18.298377 13.62715,18.298377 C15.3788042,18.298377 15.8054988,21.0356172 14.9072338,26.5100977 C13.2988083,22.0935655 11.3448387,21.2093242 9.0453251,23.8573736 C6.74581146,26.5054231 5.59605464,25.0028299 5.59605464,19.3495939 L9.0453251,15.5300977 Z" id="Path-49" stroke="none" fill="url(#radialGradient-6)" fill-rule="evenodd" opacity="0.75999999" mask="url(#mask-5)" transform="translate(10.480013, 21.020098) rotate(5.000000) translate(-10.480013, -21.020098) "></path>
                                <path d="M15.4028291,15.8900977 C16.6843658,17.7053628 18.1866035,18.6129954 19.909542,18.6129954 C21.6324806,18.6129954 22.0521802,21.3053628 21.1686409,26.6900977 C19.586583,22.3459677 17.6646458,21.4762221 15.4028291,24.0808609 C13.1410124,26.6854997 12.010104,25.2075392 12.010104,19.6469792 L15.4028291,15.8900977 Z" id="Path-49-Copy" stroke="none" fill="url(#radialGradient-7)" fill-rule="evenodd" opacity="0.400000006" mask="url(#mask-5)" transform="translate(16.813998, 21.290098) scale(-1, 1) translate(-16.813998, -21.290098) "></path>
                            </g>
                        </g>
                    </g>
                </g>
            </g>
        </g>
    </g>
</svg>