<?xml version="1.0" encoding="UTF-8"?>
<svg width="141px" height="36px" viewBox="0 0 141 36" version="1.1" xmlns="http://www.w3.org/2000/svg" xmlns:xlink="http://www.w3.org/1999/xlink">
    <title>标注工作</title>
    <defs>
        <linearGradient x1="9.69095375%" y1="6.49013608%" x2="72.747441%" y2="71.2486163%" id="linearGradient-1">
            <stop stop-color="#00DAFF" offset="0%"></stop>
            <stop stop-color="#1960F6" offset="100%"></stop>
        </linearGradient>
        <path d="M5.004,11.304 L0.864,11.304 L0.864,7.164 L5.004,7.164 L5.004,1.296 L9.504,1.296 L9.504,7.164 L12.564,7.164 L12.564,11.304 L9.504,11.304 L9.504,13.86 L9.936,13.464 C10.2,13.752 10.518,14.088 10.89,14.472 C11.262,14.856 11.64,15.258 12.024,15.678 C12.408,16.098 12.78,16.512 13.14,16.92 C13.5,17.328 13.8,17.676 14.04,17.964 L11.088,20.628 L9.504,18.72 L9.504,32.724 L5.004,32.724 L5.004,11.304 Z M24.984,15.876 L24.984,26.964 C24.984,27.708 24.918,28.368 24.786,28.944 C24.654,29.52 24.408,30.054 24.048,30.546 C23.688,31.038 23.19,31.506 22.554,31.95 C21.918,32.394 21.084,32.844 20.052,33.3 L17.424,29.664 C18.432,29.208 19.17,28.752 19.638,28.296 C20.106,27.84 20.34,27.24 20.34,26.496 L20.34,15.876 L12.816,15.876 L12.816,11.304 L32.976,11.304 L32.976,15.876 L24.984,15.876 Z M14.544,7.056 L14.544,2.664 L31.464,2.664 L31.464,7.056 L14.544,7.056 Z M18.792,18.18 C18.648,19.14 18.456,20.154 18.216,21.222 C17.976,22.29 17.7,23.364 17.388,24.444 C17.076,25.524 16.74,26.592 16.38,27.648 C16.02,28.704 15.636,29.688 15.228,30.6 L10.764,29.016 C11.172,28.128 11.562,27.18 11.934,26.172 C12.306,25.164 12.648,24.15 12.96,23.13 C13.272,22.11 13.554,21.102 13.806,20.106 C14.058,19.11 14.256,18.156 14.4,17.244 L18.792,18.18 Z M29.952,30.384 C29.688,29.496 29.394,28.512 29.07,27.432 C28.746,26.352 28.422,25.266 28.098,24.174 C27.774,23.082 27.456,22.032 27.144,21.024 C26.832,20.016 26.556,19.14 26.316,18.396 L30.348,17.172 C30.612,17.892 30.912,18.738 31.248,19.71 C31.584,20.682 31.932,21.696 32.292,22.752 C32.652,23.808 33.006,24.858 33.354,25.902 C33.702,26.946 34.02,27.912 34.308,28.8 L29.952,30.384 Z M4.428,13.032 L4.428,19.476 C4.428,20.988 4.386,22.32 4.302,23.472 C4.218,24.624 4.038,25.578 3.762,26.334 C3.486,27.09 3.102,27.66 2.61,28.044 C2.118,28.428 1.476,28.62 0.684,28.62 L0,28.62 L0,24.444 L0.468,24.444 C0.564,24.444 0.654,24.39 0.738,24.282 C0.822,24.174 0.894,23.94 0.954,23.58 C1.014,23.22 1.056,22.716 1.08,22.068 C1.104,21.42 1.116,20.556 1.116,19.476 L1.116,13.032 L4.428,13.032 Z" id="path-2"></path>
        <filter x="-2.9%" y="-3.1%" width="105.8%" height="112.5%" filterUnits="objectBoundingBox" id="filter-3">
            <feOffset dx="0" dy="2" in="SourceAlpha" result="shadowOffsetOuter1"></feOffset>
            <feColorMatrix values="0 0 0 0 0.729192073   0 0 0 0 0.930004791   0 0 0 0 1  0 0 0 0.708615603 0" type="matrix" in="shadowOffsetOuter1"></feColorMatrix>
        </filter>
        <linearGradient x1="9.69095375%" y1="1.18339002%" x2="72.747441%" y2="73.8402358%" id="linearGradient-4">
            <stop stop-color="#00DAFF" offset="0%"></stop>
            <stop stop-color="#1960F6" offset="100%"></stop>
        </linearGradient>
        <path d="M44.46,9.612 C44.052,9.3 43.56,8.928 42.984,8.496 C42.408,8.064 41.82,7.62 41.22,7.164 C40.62,6.708 40.032,6.27 39.456,5.85 C38.88,5.43 38.388,5.076 37.98,4.788 L40.5,1.116 C40.884,1.38 41.358,1.704 41.922,2.088 C42.486,2.472 43.074,2.88 43.686,3.312 C44.298,3.744 44.892,4.176 45.468,4.608 C46.044,5.04 46.548,5.412 46.98,5.724 L46.8,5.976 L55.584,5.976 C55.224,5.232 54.864,4.518 54.504,3.834 C54.144,3.15 53.796,2.508 53.46,1.908 L57.348,0 C57.756,0.696 58.218,1.53 58.734,2.502 C59.25,3.474 59.736,4.428 60.192,5.364 L58.932,5.976 L67.824,5.976 L67.824,10.404 L59.58,10.404 L59.58,16.236 L67.068,16.236 L67.068,20.556 L59.58,20.556 L59.58,27.504 L69.264,27.504 L69.264,31.86 L45.216,31.86 L45.216,27.504 L54.9,27.504 L54.9,20.556 L47.448,20.556 L47.448,16.236 L54.9,16.236 L54.9,10.404 L46.692,10.404 L46.692,6.192 L44.46,9.612 Z M46.044,21.492 C45.972,21.636 45.804,22.002 45.54,22.59 C45.276,23.178 44.958,23.874 44.586,24.678 C44.214,25.482 43.824,26.334 43.416,27.234 C43.008,28.134 42.618,28.98 42.246,29.772 C41.874,30.564 41.556,31.242 41.292,31.806 C41.028,32.37 40.86,32.724 40.788,32.868 L36.504,30.924 C36.624,30.732 36.834,30.342 37.134,29.754 C37.434,29.166 37.776,28.476 38.16,27.684 C38.544,26.892 38.946,26.052 39.366,25.164 C39.786,24.276 40.176,23.442 40.536,22.662 C40.896,21.882 41.208,21.21 41.472,20.646 C41.736,20.082 41.892,19.716 41.94,19.548 L46.044,21.492 Z M43.128,17.964 C42.648,17.604 42.084,17.184 41.436,16.704 C40.788,16.224 40.134,15.75 39.474,15.282 C38.814,14.814 38.178,14.358 37.566,13.914 C36.954,13.47 36.432,13.104 36,12.816 L38.628,9.216 C39.084,9.504 39.618,9.858 40.23,10.278 C40.842,10.698 41.478,11.136 42.138,11.592 C42.798,12.048 43.446,12.498 44.082,12.942 C44.718,13.386 45.276,13.776 45.756,14.112 L43.128,17.964 Z" id="path-5"></path>
        <filter x="-3.0%" y="-3.0%" width="106.0%" height="112.2%" filterUnits="objectBoundingBox" id="filter-6">
            <feOffset dx="0" dy="2" in="SourceAlpha" result="shadowOffsetOuter1"></feOffset>
            <feColorMatrix values="0 0 0 0 0.729192073   0 0 0 0 0.930004791   0 0 0 0 1  0 0 0 0.708615603 0" type="matrix" in="shadowOffsetOuter1"></feColorMatrix>
        </filter>
        <linearGradient x1="9.69095375%" y1="9.73568803%" x2="72.747441%" y2="69.6636082%" id="linearGradient-7">
            <stop stop-color="#00DAFF" offset="0%"></stop>
            <stop stop-color="#1960F6" offset="100%"></stop>
        </linearGradient>
        <polygon id="path-8" points="91.476 7.632 91.476 26.496 104.688 26.496 104.688 31.14 73.116 31.14 73.116 26.496 86.364 26.496 86.364 7.632 75.276 7.632 75.276 2.808 102.564 2.808 102.564 7.632"></polygon>
        <filter x="-3.2%" y="-3.5%" width="106.3%" height="114.1%" filterUnits="objectBoundingBox" id="filter-9">
            <feOffset dx="0" dy="2" in="SourceAlpha" result="shadowOffsetOuter1"></feOffset>
            <feColorMatrix values="0 0 0 0 0.729192073   0 0 0 0 0.930004791   0 0 0 0 1  0 0 0 0.708615603 0" type="matrix" in="shadowOffsetOuter1"></feColorMatrix>
        </filter>
        <linearGradient x1="9.69095375%" y1="0.113571798%" x2="72.747441%" y2="74.3626957%" id="linearGradient-10">
            <stop stop-color="#00DAFF" offset="0%"></stop>
            <stop stop-color="#1960F6" offset="100%"></stop>
        </linearGradient>
        <path d="M125.856,9.684 L124.992,9.684 C124.632,14.124 122.892,16.344 119.772,16.344 L118.296,16.344 L118.296,12.168 L119.196,12.168 C119.628,12.168 119.964,11.814 120.204,11.106 C120.444,10.398 120.564,9.36 120.564,7.992 L120.564,1.044 L125.1,1.044 L125.1,5.148 L140.364,5.148 L140.364,9.684 L130.464,9.684 L130.464,13.392 L138.6,13.392 L138.6,17.928 L130.464,17.928 L130.464,21.672 L139.356,21.672 L139.356,26.208 L130.464,26.208 L130.464,32.688 L125.856,32.688 L125.856,9.684 Z M112.392,1.044 L116.928,1.044 L116.928,32.328 L112.464,32.328 L112.464,16.92 C112.128,17.04 111.792,17.118 111.456,17.154 C111.12,17.19 110.772,17.208 110.412,17.208 L108.684,17.208 L108.684,13.068 L109.944,13.068 C110.592,13.068 111.162,12.786 111.654,12.222 C112.146,11.658 112.392,10.704 112.392,9.36 L112.392,1.044 Z" id="path-11"></path>
        <filter x="-3.2%" y="-3.2%" width="106.3%" height="112.6%" filterUnits="objectBoundingBox" id="filter-12">
            <feOffset dx="0" dy="2" in="SourceAlpha" result="shadowOffsetOuter1"></feOffset>
            <feColorMatrix values="0 0 0 0 0.729192073   0 0 0 0 0.930004791   0 0 0 0 1  0 0 0 0.708615603 0" type="matrix" in="shadowOffsetOuter1"></feColorMatrix>
        </filter>
    </defs>
    <g id="标注工作" stroke="none" stroke-width="1" fill="none" fill-rule="evenodd">
        <g id="标注" transform="translate(-201.000000, -114.000000)" fill-rule="nonzero">
            <g id="标注工作" transform="translate(201.116000, 114.696000)">
                <g id="形状">
                    <use fill="black" fill-opacity="1" filter="url(#filter-3)" xlink:href="#path-2"></use>
                    <use fill="#333333" xlink:href="#path-2"></use>
                    <use fill="url(#linearGradient-1)" xlink:href="#path-2"></use>
                </g>
                <g id="形状">
                    <use fill="black" fill-opacity="1" filter="url(#filter-6)" xlink:href="#path-5"></use>
                    <use fill="#333333" xlink:href="#path-5"></use>
                    <use fill="url(#linearGradient-4)" xlink:href="#path-5"></use>
                </g>
                <g id="路径">
                    <use fill="black" fill-opacity="1" filter="url(#filter-9)" xlink:href="#path-8"></use>
                    <use fill="#333333" xlink:href="#path-8"></use>
                    <use fill="url(#linearGradient-7)" xlink:href="#path-8"></use>
                </g>
                <g id="形状">
                    <use fill="black" fill-opacity="1" filter="url(#filter-12)" xlink:href="#path-11"></use>
                    <use fill="#333333" xlink:href="#path-11"></use>
                    <use fill="url(#linearGradient-10)" xlink:href="#path-11"></use>
                </g>
            </g>
        </g>
    </g>
</svg>