<?xml version="1.0" encoding="UTF-8"?>
<svg width="224px" height="87px" viewBox="0 0 224 87" version="1.1" xmlns="http://www.w3.org/2000/svg" xmlns:xlink="http://www.w3.org/1999/xlink">
    <title>logo</title>
    <defs>
        <polygon id="path-1" points="0 0 4.82550225 0 4.82550225 5.56837843 0 5.56837843"></polygon>
        <polygon id="path-3" points="0 0 25.5999271 0 25.5999271 22.4665975 0 22.4665975"></polygon>
    </defs>
    <g id="用户管理" stroke="none" stroke-width="1" fill="none" fill-rule="evenodd">
        <g id="logo" transform="translate(35.000000, 23.000000)">
            <path d="M96.991099,11.8530024 L96.991099,12.3416202 C96.991099,12.8075117 96.563157,13.1824974 96.0225988,13.1824974 L78.0039917,13.1824974 C76.7878483,13.1824974 75.7968249,14.0461011 75.7968249,15.091516 L75.7968249,21.6367224 C75.50391,26.1820046 75.4589761,28.6591835 73.0376131,30.6818341 C73.0152025,30.7045605 72.9925666,30.7159237 72.9700433,30.7386501 C72.9475201,30.7613765 72.9137352,30.7841029 72.8912119,30.7954661 C72.6997642,30.9204614 72.46327,31.0000038 72.1929909,31.0000038 C71.5511906,31.0000038 71.0330431,30.5568388 71.0330431,30.0000417 C71.0330431,29.8295936 71.0893512,29.6591456 71.1794443,29.5227871 C71.2019675,29.4886975 71.2246034,29.4546079 71.2582757,29.4205182 C72.3506537,27.8523959 72.8349038,25.591118 72.6997642,22.6253213 L72.6997642,13.4552144 C72.6997642,12.1029929 73.9610667,11.0121252 75.5264332,11.0121252 L82.2271027,11.0121252 C82.7565119,11.0121252 83.1392947,10.6257762 83.150669,10.1598848 C83.161818,9.70535653 83.5897599,9.34173395 84.1190565,9.34173395 L86.5403068,9.34173395 C87.0696034,9.34173395 87.4526114,9.72808294 87.4637604,10.1939744 C87.4750221,10.6485026 87.9030766,11.0121252 88.4322606,11.0121252 L96.0338605,11.0121252 C96.563157,11.0121252 96.991099,11.387111 96.991099,11.8530024" id="Fill-1" fill="#0C1733"></path>
            <path d="M82.5875425,15.1256397 C83.0154844,14.4665738 83.8037984,14.0574984 84.6709439,14.0574984 L86.1573664,14.0574984 C86.6529907,14.0574984 86.9795779,14.5006634 86.765607,14.8983756 C86.5515234,15.2847246 86.8782233,15.7392528 87.373735,15.7392528 L95.6171351,15.7392528 C95.9888815,15.7392528 96.2928329,16.0006065 96.2928329,16.3301395 L96.2928329,17.2164695 C96.2928329,17.5346393 95.9888815,17.8073562 95.6171351,17.8073562 L85.4367347,17.8073562 C85.2001279,17.8073562 84.9862695,17.9096251 84.862279,18.0914364 C84.1754322,19.068672 83.3982672,20.0004549 82.5312343,20.8754217 C82.1594879,21.2617707 82.4635519,21.8412942 83.0380076,21.8412942 L84.9411104,21.8412942 C85.3128568,21.8412942 85.6168082,21.5799405 85.6168082,21.2504075 L85.6168082,19.4777474 C85.6168082,19.1595777 85.9209848,18.8868607 86.2925059,18.8868607 L88.5674677,18.8868607 C88.9389889,18.8868607 89.2431655,19.1482145 89.2431655,19.4777474 L89.2431655,21.2504075 C89.2431655,21.5685773 89.5472295,21.8412942 89.9188632,21.8412942 L95.031643,21.8412942 C95.4032768,21.8412942 95.7073408,22.1026479 95.7073408,22.4321809 L95.7073408,23.3185109 C95.7073408,23.6366807 95.4032768,23.9093976 95.031643,23.9093976 L89.9188632,23.9093976 C89.5472295,23.9093976 89.2431655,24.1707513 89.2431655,24.5002843 L89.2431655,25.6820577 C89.2431655,26.0002274 89.5472295,26.2729444 89.9188632,26.2729444 L96.2816839,26.2729444 C96.653205,26.2729444 96.9573816,26.5342981 96.9573816,26.8638311 L96.9573816,27.7615243 C96.9573816,28.0796941 96.653205,28.352411 96.2816839,28.352411 L89.9188632,28.352411 C89.5472295,28.352411 89.2431655,28.6137647 89.2431655,28.9432977 L89.2431655,31.4091133 C89.2431655,31.7272831 88.9389889,32 88.5674677,32 L86.2925059,32 C85.9209848,32 85.6168082,31.7386463 85.6168082,31.4091133 L85.6168082,28.9432977 C85.6168082,28.6251279 85.3128568,28.352411 84.9411104,28.352411 L77.4409778,28.352411 C77.069344,28.352411 76.76528,28.0910573 76.76528,27.7615243 L76.76528,26.8638311 C76.76528,26.5456613 77.069344,26.2729444 77.4409778,26.2729444 L84.9411104,26.2729444 C85.3128568,26.2729444 85.6168082,26.0115907 85.6168082,25.6820577 L85.6168082,24.5002843 C85.6168082,24.1821146 85.3128568,23.9093976 84.9411104,23.9093976 L78.8035223,23.9093976 C78.4320012,23.9093976 78.1278246,23.6480439 78.1278246,23.3185109 L78.1278246,21.8412942 C78.2067686,21.773115 78.2743384,21.7049357 78.3530572,21.6481197 C79.3216699,20.4777095 80.0874607,19.5004738 80.6280189,18.6936862 C80.898298,18.3073373 80.5604492,17.8187194 80.0423016,17.8187194 L78.1166756,17.8187194 C77.7450418,17.8187194 77.4409778,17.5573657 77.4409778,17.2278327 L77.4409778,16.3415027 C77.4409778,16.0233329 77.7450418,15.750616 78.1166756,15.750616 L81.8441623,15.750616 C82.1483389,15.750616 82.418618,15.5688047 82.4974494,15.3188142 L82.5875425,15.1256397 Z" id="Fill-3" fill="#0C1733"></path>
            <path d="M104.491412,28.2614599 L104.491412,31.2158934 C104.491412,31.5681527 104.829261,31.8522329 105.234679,31.8522329 L106.484608,31.8522329 C106.890139,31.8522329 107.227988,31.5681527 107.227988,31.2158934 L107.227988,28.2614599 L107.227988,25.7501915 L107.227988,14.8869669 C107.227988,14.5347075 107.554462,14.2506274 107.959994,14.2506274 L108.027451,14.2506274 L108.083759,14.2506274 C108.500552,14.2506274 108.827139,14.5347075 108.827139,14.8869669 L108.827139,27.0796865 C108.827139,27.2955874 108.951017,27.4773987 109.13109,27.5910308 C110.516383,27.4319459 111.214492,26.6478847 111.214492,25.2502104 L111.214492,25.0683991 L111.214492,12.8302267 C111.214492,12.6597786 111.135773,12.4893305 111.000634,12.3756985 C110.932951,12.3188825 110.85412,12.2734296 110.764027,12.23934 C110.685308,12.2052504 110.583953,12.1938872 110.482486,12.1938872 L107.971143,12.1938872 C107.565837,12.1938872 107.239137,11.9098071 107.239137,11.5575477 L107.239137,9.98942531 C107.239137,9.63716594 106.901288,9.3530858 106.495982,9.3530858 L105.245828,9.3530858 C104.840522,9.3530858 104.502673,9.63716594 104.502673,9.98942531 L104.502673,11.5575477 C104.502673,11.9098071 104.175973,12.1938872 103.770667,12.1938872 L101.270473,12.1938872 C101.169231,12.1938872 101.067876,12.2052504 100.988932,12.23934 C100.898952,12.2734296 100.820008,12.3188825 100.752551,12.3756985 C100.617411,12.4893305 100.538467,12.6484154 100.538467,12.8302267 L100.538467,25.0683991 L100.538467,25.2502104 C100.538467,26.6478847 101.225539,27.4319459 102.621869,27.5910308 C102.802167,27.4773987 102.926045,27.2842242 102.926045,27.0796865 L102.926045,14.8869669 C102.926045,14.5347075 103.252632,14.2506274 103.6692,14.2506274 L103.736883,14.2506274 L103.793191,14.2506274 C104.198497,14.2506274 104.525197,14.5347075 104.525197,14.8869669 L104.525197,25.7501915 L104.525197,28.2614599 L104.491412,28.2614599 Z" id="Fill-5" fill="#0C1733"></path>
            <path d="M122.082099,19.5117916 C122.082099,19.864051 121.744251,20.1481311 121.338719,20.1481311 L116.575163,20.1481311 C116.169744,20.1481311 115.831895,19.864051 115.831895,19.5117916 L115.831895,14.7960613 C115.831895,14.4438019 116.169744,14.1597218 116.575163,14.1597218 L121.338719,14.1597218 C121.744251,14.1597218 122.082099,14.4438019 122.082099,14.7960613 L122.082099,19.5117916 Z M122.082099,27.6251204 C122.160818,28.7387145 121.586588,29.261422 120.381481,29.1932428 L116.575163,29.1932428 C116.169744,29.1932428 115.831895,28.9091626 115.831895,28.5569033 L115.831895,22.852574 C115.831895,22.5003147 116.169744,22.2162345 116.575163,22.2162345 L121.338719,22.2162345 C121.744251,22.2162345 122.082099,22.5003147 122.082099,22.852574 L122.082099,27.6251204 Z M120.708181,9.53489709 L117.949081,9.53489709 C117.599858,9.53489709 117.284533,9.75079799 117.217076,10.0462413 C117.205701,10.1030574 117.194552,10.1598734 117.183178,10.2166894 C117.036777,10.7848497 116.901637,11.2507411 116.777759,11.6257269 C116.698928,11.8985575 116.406238,12.0916183 116.068389,12.0916183 L113.376747,12.0916183 C112.971441,12.0916183 112.644741,12.3756985 112.644741,12.7279579 L112.644741,30.4205826 C112.644741,30.7727283 112.971441,31.0568085 113.376747,31.0568085 L121.383766,31.0568085 C124.120454,31.1249877 125.40428,30.0113936 125.257766,27.716026 L125.257766,12.7279579 C125.257766,12.3756985 124.931292,12.0916183 124.514611,12.0916183 L121.00087,12.0916183 C120.505359,12.0916183 120.156248,11.6825429 120.2915,11.2848307 L120.708181,9.53489709 Z" id="Fill-7" fill="#0C1733"></path>
            <path d="M129.143051,28.7728042 C129.976412,27.3978563 130.573278,26.0342716 130.922501,24.6820501 C131.00122,24.3525172 131.429274,24.1138899 131.936048,24.1138899 L132.814455,24.1138899 C133.444993,24.1138899 133.929244,24.4888756 133.828001,24.8979511 C133.40006,26.6251583 132.893286,28.0682854 132.330205,29.2273324 C132.195065,29.5000493 131.800908,29.6932238 131.350443,29.6932238 L130.10029,29.6932238 C129.368284,29.6818606 128.872885,29.204606 129.143051,28.7728042" id="Fill-9" fill="#0C1733"></path>
            <path d="M149.549146,14.1597672 C149.549146,14.6483851 149.087419,15.0460973 148.524338,15.0460973 L144.886832,15.0460973 C144.32375,15.0460973 143.873285,14.6483851 143.873285,14.1597672 L143.873285,13.2734372 C143.873285,12.7848193 144.32375,12.3871071 144.886832,12.3871071 L148.524338,12.3871071 C149.087419,12.3871071 149.549146,12.7848193 149.549146,13.2734372 L149.549146,14.1597672 Z M149.549146,18.2846108 C149.627978,19.3300258 149.053747,19.8186436 147.84864,19.7618276 L144.898093,19.7618276 C144.335012,19.7618276 143.884547,19.3641154 143.884547,18.8754975 L143.884547,17.8868987 C143.884547,17.3982808 144.335012,17.0005686 144.898093,17.0005686 L148.535599,17.0005686 C149.098681,17.0005686 149.56052,17.3982808 149.56052,17.8868987 L149.56052,18.2846108 L149.549146,18.2846108 Z M140.24704,14.1597672 C140.24704,14.6483851 139.785313,15.0460973 139.222232,15.0460973 L135.5961,15.0460973 C135.033018,15.0460973 134.571179,14.6483851 134.571179,14.1597672 L134.571179,13.2734372 C134.571179,12.7848193 135.033018,12.3871071 135.5961,12.3871071 L139.222232,12.3871071 C139.785313,12.3871071 140.24704,12.7848193 140.24704,13.2734372 L140.24704,14.1597672 Z M140.24704,18.8754975 C140.24704,19.3641154 139.785313,19.7618276 139.222232,19.7618276 L135.5961,19.7618276 C135.033018,19.7618276 134.571179,19.3641154 134.571179,18.8754975 L134.571179,17.8868987 C134.571179,17.3982808 135.033018,17.0005686 135.5961,17.0005686 L139.222232,17.0005686 C139.785313,17.0005686 140.24704,17.3982808 140.24704,17.8868987 L140.24704,18.8754975 Z M152.96142,18.3868797 L152.96142,11.2053338 C152.96142,10.7167159 152.510955,10.3190037 151.947873,10.3190037 L132.194975,10.3190037 C131.631894,10.3190037 131.170167,10.7167159 131.170167,11.2053338 L131.170167,20.9322378 C131.170167,21.4208556 131.631894,21.8185678 132.194975,21.8185678 L149.110055,21.8185678 C151.823995,21.886747 153.107934,20.7390633 152.96142,18.3868797 L152.96142,18.3868797 Z" id="Fill-11" fill="#0C1733"></path>
            <path d="M139.222209,31.454532 C136.575726,31.5113481 135.280639,30.6136548 135.35947,28.7841787 L135.35947,24.8638728 C135.35947,24.4434342 135.82131,24.1139012 136.384391,24.1139012 L137.859552,24.1139012 C138.422634,24.1139012 138.884473,24.4547974 138.884473,24.8638728 L138.884473,28.3751033 C138.805642,29.3750654 139.447555,29.8523201 140.810212,29.795504 L145.123303,29.795504 C146.407242,29.8523201 146.902753,29.4205182 146.936538,28.5455514 L146.936538,28.1137496 L148.749661,28.1137496 C149.312742,28.1137496 149.774469,28.4546458 149.774469,28.8637212 C149.8533,30.6477444 148.637044,31.5113481 146.136962,31.454532 L139.222209,31.454532 Z" id="Fill-13" fill="#0C1733"></path>
            <path d="M143.298942,27.0796979 C143.152541,26.4888112 142.927308,25.8297453 142.611982,25.0911369 C142.409273,24.6025191 142.893523,24.1139012 143.580483,24.1139012 L144.45889,24.1139012 C144.864308,24.1139012 145.235942,24.2843493 145.393717,24.5570662 C145.821547,25.2843114 146.170657,26.0229198 146.429675,26.7728913 C146.598599,27.250146 146.103088,27.7046742 145.438651,27.7046742 L144.301227,27.7046742 C143.805715,27.693311 143.377773,27.4433205 143.298942,27.0796979" id="Fill-15" fill="#0C1733"></path>
            <g id="编组" transform="translate(150.174498, 24.102538)">
                <mask id="mask-2" fill="white">
                    <use xlink:href="#path-1"></use>
                </mask>
                <g id="Clip-18"></g>
                <path d="M1.63830345,5.02253687 C1.34538847,3.79531067 0.816091889,2.40899959 0.0503010863,0.874966831 C-0.163557257,0.443165018 0.331841823,0 1.01891384,0 L1.84101278,0 C2.2689547,0 2.65185011,0.170448084 2.79825129,0.431801813 C3.6878074,1.97719777 4.35235615,3.42032488 4.80282133,4.76118314 C4.93796088,5.18162175 4.45371082,5.56797074 3.80053631,5.56797074 L2.64047586,5.56797074 C2.14507678,5.57933395 1.71702224,5.35206984 1.63830345,5.02253687" id="Fill-17" fill="#0C1733" mask="url(#mask-2)"></path>
            </g>
            <path d="M61.0440115,28.3296505 C60.9877034,28.4205561 60.9201336,28.5000986 60.8638255,28.579641 L60.8638255,28.5910042 C60.7399475,28.7500891 60.6160696,28.8978108 60.4809301,29.0455325 C59.0957496,30.625018 57.3051506,31.4772585 55.1879642,31.5795273 C55.0528247,31.5908905 54.9064235,31.5908905 54.7600223,31.5908905 L51.2689172,31.5908905 C49.6359809,31.5908905 47.1471608,31.5795273 44.770957,31.5795273 L43.4983929,31.5795273 C41.6064391,31.5795273 38.8473399,31.5908905 37.8450549,31.5908905 L37.4396362,31.5908905 L36.1220256,31.5795273 L35.2661417,31.5681641 L34.8044149,31.5681641 C34.0949323,31.5568009 33.7570834,31.2954472 33.7458218,30.7500133 C33.7458218,30.7386501 33.7570834,30.7159237 33.7570834,30.7045605 C34.0048392,29.3296126 34.2300718,27.9546647 34.466566,26.5797168 C34.5566591,26.1592782 34.894508,25.9661037 35.5138976,25.9547405 L36.8315082,25.9433773 L45.469178,25.9320141 C49.1629925,25.9320141 52.8117604,25.9206509 54.5798362,25.9320141 C54.6248828,25.9320141 54.6586676,25.9433773 54.7037142,25.9320141 L54.7825456,25.9320141 C54.8050688,25.9320141 54.8275921,25.9320141 54.8501153,25.9206509 C55.559598,25.8638349 56.0100632,25.591118 56.2803423,25.0570473 C56.5168365,24.5797927 56.5055749,24.0570852 56.257819,23.6252834 C55.9762783,23.1480288 55.4357201,22.829859 54.7938072,22.8071326 L53.4649349,22.8071326 L50.7846671,22.7957694 L49.9287833,22.7844062 L49.4670565,22.7844062 C48.7688354,22.773043 48.4309866,22.5230524 48.4084633,21.9776186 L48.4084633,21.9662554 C48.4535098,21.7162648 48.4985563,21.4662743 48.5323412,21.2049206 C48.5773877,21.0117461 48.6111726,20.8072084 48.6336959,20.6140339 C48.7463122,19.9776944 48.8476668,19.3527181 48.9602831,18.7163786 C48.9715448,18.6595625 48.9828064,18.5913833 48.9828064,18.5232041 C48.994068,18.4550248 49.0053297,18.3982088 49.0278529,18.3413928 C49.0391145,18.3300296 49.0391145,18.3073032 49.0391145,18.29594 C49.0503762,18.2504871 49.0616378,18.2163975 49.0616378,18.1823079 C49.1517308,17.8186853 49.2193006,17.580058 49.3319169,17.4323363 L49.3431785,17.4210868 C49.4670565,17.2732515 49.6359809,17.2050722 49.9175216,17.1709826 C49.9287833,17.1823458 49.9400449,17.1823458 49.9400449,17.1709826 C50.1089693,17.1823458 50.2666322,17.1709826 50.4355566,17.1709826 C50.6945741,17.1709826 50.9648532,17.1596194 51.2351323,17.1596194 C51.6180277,17.1596194 53.3861035,17.1596194 53.8253071,17.1709826 C53.9154001,17.1709826 54.0054931,17.1823458 54.0843245,17.1823458 C54.343342,17.1938227 54.6136211,17.1938227 54.8951619,17.2050722 C57.8907553,17.2846147 60.1656044,18.6481993 61.4944767,21.1594678 C61.7760175,21.7049016 61.9899884,22.2503355 62.1476512,22.7957694 C62.1476512,22.8071326 62.1589129,22.8071326 62.1589129,22.8184958 C62.6431629,24.7275143 62.2827908,26.6024433 61.0440115,28.3296505" id="Fill-19" fill="#1960F6"></path>
            <path d="M67.2491806,9.01220099 C67.237919,9.0235642 67.237919,9.0235642 67.237919,9.0349274 C66.6635759,10.0348895 65.9653549,11.2621157 65.2896571,12.4438891 C65.0306396,12.8870541 64.7828838,13.3302191 64.5463896,13.7620209 L64.2198023,14.3301812 C64.0959244,14.5574453 63.9833081,14.7733462 63.8594302,14.9778839 C63.5891511,15.477865 63.2513022,15.7051291 62.710744,15.7164923 C62.6769591,15.7278555 62.6319126,15.7278555 62.5981277,15.7278555 L49.579684,15.7164923 C49.579684,15.7051291 49.5909456,15.6937659 49.5909456,15.6710395 C49.6022073,15.591497 49.6134689,15.5233178 49.6247305,15.4551386 C49.7486085,14.6710774 49.883748,13.8983794 50.0188876,13.1143182 C50.1427655,12.3643466 50.277905,11.6143751 50.401783,10.8644035 C50.4130446,10.7848611 50.4243062,10.7053186 50.4355679,10.6371394 C50.4693527,10.4780545 50.5031376,10.341696 50.5256609,10.2167008 C50.7508935,9.25082831 50.886033,9.06901702 51.7193936,9.01220099 L51.7419169,9.01220099 C53.1834054,9.0235642 55.7285337,9.0235642 57.6993189,9.0235642 L60.8075286,9.0235642 C62.4179416,9.0235642 63.2625638,9.0235642 64.501343,9.01220099 L67.2491806,9.01220099 Z" id="Fill-21" fill="#1960F6"></path>
            <g id="编组" transform="translate(0.000000, 9.094584)">
                <mask id="mask-4" fill="white">
                    <use xlink:href="#path-3"></use>
                </mask>
                <g id="Clip-24"></g>
                <path d="M19.6462504,0.0312488154 C21.177832,0.042612021 22.7206753,0.0198856098 24.2522569,0.0198856098 C25.4797745,0.0198856098 25.7275303,0.269876133 25.5473443,1.49710234 C25.2883268,3.247036 24.9504779,4.99696966 24.6351523,6.74690332 C24.5788441,7.05370987 24.4324429,7.26961078 24.2409952,7.40596925 C24.2072103,7.42869566 24.1734255,7.44005886 24.1396406,7.46278527 C23.9932394,7.5196013 23.8243149,7.54232771 23.610344,7.54232771 C21.9548845,7.55369092 20.3106866,7.56505412 18.655227,7.58778054 C18.5200875,7.59914374 18.3736863,7.59914374 18.2385467,7.59914374 C17.2024768,7.61050695 17.0335524,7.724139 16.8646279,8.7354643 C16.560564,10.4399451 16.2902848,12.1330628 16.0087441,13.8375436 C15.8961278,14.4966095 16.2790232,14.8715953 17.0898605,14.8829585 C18.6214421,14.8943217 20.1642854,14.8715953 21.695867,14.8715953 C22.9233846,14.8715953 23.1711404,15.1215858 22.9909544,16.348812 C22.7319369,18.0987457 22.394088,19.8486794 22.0787624,21.598613 C21.9661461,22.2235893 21.5044193,22.428127 20.9525994,22.4394902 C19.2408318,22.4622167 17.5178025,22.4622167 15.8060348,22.4394902 C14.9501509,22.428127 14.6123021,21.984962 14.7587032,21.1327216 C15.040244,19.4623304 15.344308,17.7919392 15.6145871,16.1101847 C15.7497266,15.2920339 15.4118777,14.8715953 14.6010404,14.8602321 C12.8442262,14.8488689 11.0761504,14.8715953 9.30807459,14.8488689 C8.74499312,14.8375057 8.42966749,15.1102226 8.32831283,15.6215669 C8.0129872,17.2578685 7.70892321,18.9055333 7.40485921,20.5531981 C7.32602781,20.9509103 7.33728943,21.4168017 7.12331848,21.7349715 C6.90934752,22.0531413 6.4814056,22.4054006 6.13229508,22.4167638 C4.44305067,22.4849431 2.75380625,22.4735799 1.07582346,22.4394902 C0.186154735,22.4282407 -0.11790926,22.0190516 0.039753552,21.1440848 C0.4789571,18.5987268 0.940683908,16.0760951 1.37988746,13.5307371 C1.78530612,11.2126431 2.17946315,8.89454918 2.57362018,6.56509203 C2.70875973,5.76966764 2.84389928,4.98560645 2.97903884,4.19018206 C3.11417839,3.42884729 3.23805632,2.66751251 3.37319587,1.90617774 C3.3844575,1.8266353 3.39571913,1.74709286 3.40698076,1.66755042 C3.44076565,1.50846554 3.47455053,1.37210708 3.49707379,1.23586224 C3.77861453,0.0198856098 3.92501571,0.0198856098 5.44533569,0.0085224042 C6.87556263,-0.0028408014 8.30578957,-0.0028408014 9.73601651,0.0085224042 C10.7383015,0.0198856098 10.9522725,0.326805793 10.783348,1.30392784 C10.5693771,2.46297481 10.3554061,3.62213542 10.1526968,4.78106875 C10.1414352,4.86061119 10.1301735,4.94015363 10.1076503,5.01969607 C10.0400805,5.42877147 9.97251073,5.84921008 9.90494095,6.25828548 C9.74727814,7.23552116 10.0288189,7.54244135 10.997319,7.54244135 C11.8757261,7.55369092 12.7316099,7.54244135 13.610017,7.54244135 C14.4771625,7.54244135 15.344308,7.5196013 16.2227151,7.55369092 C16.8083198,7.57641733 17.1574303,7.32642681 17.258785,6.75826653 C17.2700466,6.67872409 17.2925699,6.58781844 17.3038315,6.508276 C17.5290641,5.2810498 17.743035,4.04246039 17.9682676,2.80387098 C18.0921456,2.12207864 18.2272851,1.4289231 18.3624247,0.747130768 C18.4525177,0.247149722 18.7002735,0.042725653 19.2408318,0.042725653 L19.6462504,0.0312488154 Z" id="Fill-23" fill="#1960F6" mask="url(#mask-4)"></path>
            </g>
            <path d="M31.7300126,29.6591683 C31.6511812,30.0568805 31.6624428,30.5227719 31.4484719,30.8409417 C31.2345009,31.1591114 30.806559,31.5113708 30.4574485,31.522734 C28.7682041,31.5909132 27.0789596,31.57955 25.4009769,31.5454604 C24.6914942,31.5340972 24.3536453,31.2727435 24.3311221,30.7159464 C24.3311221,30.7045832 24.3423837,30.6818568 24.3423837,30.6704936 C24.7365407,28.4433053 25.1081745,26.2047538 25.4910699,23.9662023 C25.5023315,23.8752966 25.5135932,23.7957542 25.5361164,23.7048486 C25.671256,22.9094242 25.8063955,22.125363 25.9415351,21.3299386 C26.0766746,20.5686038 26.2005525,19.807269 26.3356921,19.0459343 C26.3469537,18.9663918 26.3582154,18.8868494 26.369477,18.8073069 C26.3807386,18.7845805 26.3807386,18.7618541 26.3807386,18.7391277 C26.4032619,18.6027692 26.4370468,18.4891372 26.45957,18.3755051 C26.6848026,17.3869062 26.8198295,17.205095 27.6644518,17.1596421 L27.6870876,17.1596421 C27.8896843,17.1482789 28.1262912,17.1482789 28.4078319,17.1482789 C29.8380589,17.1369157 31.2681732,17.1369157 32.6985127,17.1482789 C32.8223907,17.1482789 32.935007,17.1596421 33.0363616,17.1710053 C33.7571059,17.2505478 33.9033945,17.5914439 33.7457317,18.4550476 L31.7300126,29.6591683 Z" id="Fill-25" fill="#1960F6"></path>
            <path d="M48.3521326,10.4326017 L47.2372313,16.5005535 L46.3475626,21.3299159 C46.2687312,21.7162648 46.2799928,22.1821563 46.0660218,22.4775996 C45.8520509,22.7844062 45.424109,23.1253023 45.0749985,23.1366655 C43.3970157,23.2048448 41.6965096,23.1934816 40.0185268,23.159392 C39.4779686,23.1480288 39.162643,23.0003071 39.0275034,22.7048637 C38.9824569,22.6025949 38.9599337,22.4889628 38.948672,22.3526044 C38.948672,22.3412412 38.9599337,22.3298779 38.9599337,22.3071515 C39.2639977,20.6026707 39.5680617,18.8981899 39.860864,17.1823458 C39.9059105,16.9323553 39.9509571,16.693728 39.9960036,16.4437375 C39.9960036,16.421011 39.9960036,16.3982846 39.9847419,16.364195 C39.9509571,15.8414876 39.6694163,15.6596763 38.9937186,15.6142234 C38.8811023,15.6028602 38.768486,15.6028602 38.6333464,15.6028602 L38.5770383,15.6028602 L38.5657766,15.6028602 C38.4418987,15.6028602 38.3292824,15.6028602 38.2054045,15.6142234 L34.2300493,15.6142234 L26.943775,15.6028602 C27.0563913,14.8983415 27.1690076,14.2051859 27.3041472,13.5120304 C27.3154088,13.4665776 27.3154088,13.4097616 27.3266704,13.3529455 C27.3266704,13.3188559 27.3379321,13.2847663 27.3379321,13.2506767 C27.4392867,12.6143372 27.551903,12.0007241 27.6532577,11.3757478 L28.5429264,11.3757478 C29.6916126,11.3757478 30.8515605,11.3643846 32.0002467,11.3757478 L32.7885607,11.3757478 C32.9800084,11.3643846 33.115148,11.3416581 33.2277643,11.2962053 C33.2277643,11.2962053 33.2390259,11.2962053 33.2390259,11.2848421 C33.2615492,11.2734789 33.2953341,11.2734789 33.3178573,11.2621157 L33.3291189,11.2621157 C33.4980434,11.1712101 33.6106597,11.0348516 33.6669678,10.8303139 C33.8021074,10.2507904 33.9485086,9.65990371 34.0723865,9.08038023 L34.0949097,9.08038023 C34.2976191,9.08038023 34.6467296,9.09174343 34.6467296,9.09174343 L43.7799111,9.12583305 C44.1853297,9.12583305 44.60201,9.11446984 45.0074287,9.11446984 C45.0074287,9.11446984 47.2259697,9.10310664 47.64265,9.15992266 C48.3521326,9.26219151 48.4985338,9.60308768 48.3521326,10.4326017" id="Fill-27" fill="#1960F6"></path>
            <path d="M33.5656357,5.96688462 L33.5656357,5.96688462 C33.5768973,6.04642706 33.5543741,6.1373327 33.5431124,6.22823835 C33.5318508,6.27369117 33.5205892,6.31914399 33.5205892,6.36459681 C33.3629264,7.18274762 33.1714787,7.98953521 32.980031,8.78495961 C32.9011995,9.10312936 32.8223681,9.42129912 32.7547984,9.75083208 C32.7097518,9.95536978 32.5858739,10.0917282 32.4169495,10.1826339 C32.3831646,10.1939971 32.3606413,10.2053603 32.3268564,10.2053603 L32.3268564,10.2167235 C32.2142401,10.2621763 32.0791006,10.296266 31.8876529,10.296266 L31.5385424,10.296266 C30.2997631,10.2849027 29.0384606,10.296266 27.7884198,10.296266 L27.6420186,10.296266 C27.5631872,10.296266 27.4956174,10.296266 27.4280476,10.2849027 C26.7636115,10.2735395 26.5158556,10.1485443 26.504594,9.75083208 L26.504594,9.73946888 C26.4933324,9.63720003 26.5158556,9.48947835 26.5496405,9.34175668 C26.7636115,8.20543612 27.0564139,7.08047877 27.3154313,5.95552141 C27.3604779,5.73962051 27.4730942,5.61462525 27.6420186,5.5237196 L27.6532802,5.5237196 C27.6758035,5.5123564 27.7095884,5.50099319 27.7321116,5.48962998 L27.7433733,5.48962998 C27.8559896,5.44417716 27.9911291,5.41008754 28.1825768,5.41008754 L28.5316873,5.41008754 C29.8380363,5.42145075 31.1331237,5.41008754 32.4282111,5.41008754 C33.2390484,5.43281396 33.5543741,5.53508281 33.5656357,5.96688462" id="Fill-29" fill="#06F6FC"></path>
            <path d="M26.9888553,2.68292957 L26.9888553,2.68292957 C26.9888553,2.77383521 26.9775937,2.88746727 26.9550705,3.01246253 C26.7748844,3.94424539 26.5383902,4.86466504 26.3244192,5.7964479 C26.2793727,5.96689598 26.1892797,6.06916483 26.0541401,6.14870727 C26.0316168,6.16007048 26.0090936,6.17143368 25.9865703,6.18279689 C25.8964773,6.22824971 25.783861,6.25097612 25.6261982,6.25097612 L25.3333958,6.25097612 L22.1350931,6.25097612 C21.4593953,6.25097612 21.2116394,6.17143368 21.2003778,5.8078111 C21.2003778,5.71690546 21.2116394,5.6032734 21.2341627,5.47827814 C21.4143488,4.54649528 21.650843,3.62607563 21.8648139,2.69429277 C21.8985988,2.52384469 21.9999535,2.42157584 22.1350931,2.3420334 C22.1576163,2.33067019 22.1801396,2.31930699 22.2026628,2.30794378 C22.2927559,2.26249096 22.4053722,2.23976455 22.563035,2.23976455 L22.8558373,2.23976455 L26.0541401,2.23976455 C26.7298379,2.23976455 26.9775937,2.31930699 26.9888553,2.68292957" id="Fill-31" fill="#06F6FC"></path>
            <path d="M32.8673921,0.319348712 L32.8673921,0.319348712 C32.8673921,0.387527945 32.8561305,0.467070384 32.8448689,0.557976029 C32.7097293,1.23976836 32.5408049,1.9101975 32.3831421,2.58062663 C32.3493572,2.70562189 32.2817874,2.78516433 32.1804327,2.83061715 C32.1579095,2.84198035 32.1466478,2.84198035 32.1353862,2.85334356 C32.0678164,2.88743318 31.988985,2.89879638 31.8763687,2.89879638 L31.6623978,2.89879638 L29.3425021,2.89879638 C28.8469904,2.89879638 28.6668043,2.84198035 28.6668043,2.58062663 C28.6668043,2.51244739 28.678066,2.43290495 28.6893276,2.34199931 C28.8132055,1.66020697 28.9933916,0.989777842 29.1510544,0.319348712 C29.1735777,0.19435345 29.2524091,0.114811011 29.3537637,0.0693581887 C29.376287,0.0579949831 29.3875486,0.0579949831 29.3988103,0.0466317775 C29.46638,0.0125421607 29.5452114,0.00117895511 29.6578277,0.00117895511 L29.8717987,0.00117895511 L32.1916944,0.00117895511 C32.6759444,-0.0101842505 32.8561305,0.0579949831 32.8673921,0.319348712" id="Fill-33" fill="#06F6FC"></path>
        </g>
    </g>
</svg>