<?xml version="1.0" encoding="UTF-8"?>
<svg width="34px" height="36px" viewBox="0 0 34 36" version="1.1" xmlns="http://www.w3.org/2000/svg" xmlns:xlink="http://www.w3.org/1999/xlink">
    <title>切片</title>
    <defs>
        <linearGradient x1="50%" y1="6.35230048%" x2="50%" y2="52.8340294%" id="linearGradient-1">
            <stop stop-color="#5098FF" offset="0%"></stop>
            <stop stop-color="#0035C2" offset="100%"></stop>
        </linearGradient>
        <linearGradient x1="50%" y1="0%" x2="50%" y2="100%" id="linearGradient-2">
            <stop stop-color="#6E9DFF" offset="0%"></stop>
            <stop stop-color="#D2E3FF" offset="100%"></stop>
        </linearGradient>
        <path d="M6,4 L28,4 C31.3137085,4 34,6.6862915 34,10 L34,28 C34,31.3137085 31.3137085,34 28,34 L6,34 C2.6862915,34 1.97926296e-15,31.3137085 0,28 L0,10 C-4.05812251e-16,6.6862915 2.6862915,4 6,4 Z" id="path-3"></path>
        <filter x="-1.5%" y="-1.7%" width="102.9%" height="103.3%" filterUnits="objectBoundingBox" id="filter-4">
            <feOffset dx="0" dy="-1" in="SourceAlpha" result="shadowOffsetInner1"></feOffset>
            <feComposite in="shadowOffsetInner1" in2="SourceAlpha" operator="arithmetic" k2="-1" k3="1" result="shadowInnerInner1"></feComposite>
            <feColorMatrix values="0 0 0 0 1   0 0 0 0 1   0 0 0 0 1  0 0 0 0.5 0" type="matrix" in="shadowInnerInner1" result="shadowMatrixInner1"></feColorMatrix>
            <feGaussianBlur stdDeviation="0.5" in="SourceAlpha" result="shadowBlurInner2"></feGaussianBlur>
            <feOffset dx="0" dy="0" in="shadowBlurInner2" result="shadowOffsetInner2"></feOffset>
            <feComposite in="shadowOffsetInner2" in2="SourceAlpha" operator="arithmetic" k2="-1" k3="1" result="shadowInnerInner2"></feComposite>
            <feColorMatrix values="0 0 0 0 1   0 0 0 0 1   0 0 0 0 1  0 0 0 0.5 0" type="matrix" in="shadowInnerInner2" result="shadowMatrixInner2"></feColorMatrix>
            <feMerge>
                <feMergeNode in="shadowMatrixInner1"></feMergeNode>
                <feMergeNode in="shadowMatrixInner2"></feMergeNode>
            </feMerge>
        </filter>
        <path d="M24.2947368,25.6377953 L24.1526316,25.6377953 L23.2052632,24.6929134 C23.1578947,24.6456693 23.1578947,24.5984252 23.1578947,24.503937 L23.1578947,21.9055118 C24.8157895,21.1968504 26,19.496063 26,17.5590551 C26,14.9606299 23.8684211,12.8346457 21.2631579,12.8346457 L20.9315789,12.8346457 C20.268421,11.1811024 18.6578947,10 16.7631579,10 C14.5368421,10 12.6421053,11.6535433 12.3105263,13.7795276 L12.2631579,13.7795276 C9.89473683,13.7795276 8,15.6692913 8,18.0314961 C8,20.1574803 9.56315789,21.9055118 11.5526316,22.2362205 L11.5526316,23.4173228 C11.5526316,23.4645669 11.5526316,23.511811 11.5052632,23.5590551 L10.0842105,25.5905512 C9.46842107,25.5905512 8.94736843,26.1102362 8.94736843,26.7716536 C8.90000001,27.480315 9.42105263,28 10.0842105,28 C10.7473684,28 11.2684211,27.480315 11.2684211,26.8188976 C11.2684211,26.6771654 11.2210526,26.5826772 11.2210526,26.4409449 L12.6421053,24.3622047 C12.8315789,24.0787402 12.9263158,23.7480315 12.9263158,23.4173228 L12.9263158,22.3307087 L14.5842105,22.3307087 L14.5842105,25.8740157 C14.3,26.1102362 14.1105263,26.4409449 14.1105263,26.8188976 C14.1105263,27.480315 14.631579,28 15.2947368,28 C15.9578947,28 16.4789474,27.480315 16.4789474,26.8188976 C16.4789474,26.4409449 16.2894737,26.1102362 16.0052631,25.8740157 L16.0052631,22.3307087 L18.3736842,22.3307087 L18.3736842,25.8740157 C18.0894737,26.1102362 17.9,26.4409449 17.9,26.8188976 C17.9,27.480315 18.4210526,28 19.0842105,28 C19.7473684,28 20.268421,27.480315 20.268421,26.8188976 C20.268421,26.4409449 20.0789474,26.1102362 19.7947368,25.8740157 L19.7947368,22.3307087 L21.2157895,22.3307087 C21.3578947,22.3307087 21.5473684,22.3307087 21.6894737,22.2834646 L21.6894737,24.503937 C21.6894737,24.9291339 21.8789473,25.3543307 22.1631579,25.6850394 L23.1105263,26.6299213 L23.1105263,26.7716536 C23.1105263,27.4330709 23.6315789,27.9527559 24.2947368,27.9527559 C24.9578947,27.9527559 25.4789474,27.4330709 25.4789474,26.7716536 C25.4789474,26.1574803 24.9578947,25.6377953 24.2947368,25.6377953 Z" id="path-5"></path>
        <filter x="-11.1%" y="-5.6%" width="122.2%" height="122.2%" filterUnits="objectBoundingBox" id="filter-6">
            <feOffset dx="0" dy="1" in="SourceAlpha" result="shadowOffsetOuter1"></feOffset>
            <feGaussianBlur stdDeviation="0.5" in="shadowOffsetOuter1" result="shadowBlurOuter1"></feGaussianBlur>
            <feColorMatrix values="0 0 0 0 0.258823529   0 0 0 0 0.411764706   0 0 0 0 1  0 0 0 0.446623689 0" type="matrix" in="shadowBlurOuter1"></feColorMatrix>
        </filter>
    </defs>
    <g id="首页" stroke="none" stroke-width="1" fill="none" fill-rule="evenodd">
        <g id="项目管理" transform="translate(-100.000000, -364.000000)">
            <g id="编组-4" transform="translate(30.000000, 222.000000)">
                <g id="平台项目" transform="translate(42.000000, 111.000000)">
                    <g id="编组-2" transform="translate(20.000000, 24.000000)">
                        <g id="平台项目" transform="translate(8.000000, 7.000000)">
                            <path d="M7.5,0 L25.5,0 C27.1568542,-3.04359188e-16 28.5,1.34314575 28.5,3 L28.5,16 C28.5,17.6568542 27.1568542,19 25.5,19 L7.5,19 C5.84314575,19 4.5,17.6568542 4.5,16 L4.5,3 C4.5,1.34314575 5.84314575,2.02906125e-16 7.5,0 Z" id="矩形" fill="url(#linearGradient-1)"></path>
                            <path d="M0,28 C1.97926296e-15,31.3137085 2.6862915,34 6,34 L6,34 L28,34 C31.3137085,34 34,31.3137085 34,28 L34,28 L34,30 C34,33.3137085 31.3137085,36 28,36 L6,36 C2.6862915,36 1.97926296e-15,33.3137085 0,30 Z" id="形状结合" fill-opacity="0.8" fill="#CFD8FF"></path>
                            <g id="矩形备份-6">
                                <use fill-opacity="0.7" fill="url(#linearGradient-2)" fill-rule="evenodd" xlink:href="#path-3"></use>
                                <use fill="black" fill-opacity="1" filter="url(#filter-4)" xlink:href="#path-3"></use>
                            </g>
                            <g id="形状结合备份" fill-rule="nonzero">
                                <use fill="black" fill-opacity="1" filter="url(#filter-6)" xlink:href="#path-5"></use>
                                <use fill="#FFFFFF" xlink:href="#path-5"></use>
                            </g>
                        </g>
                    </g>
                </g>
            </g>
        </g>
    </g>
</svg>