<?xml version="1.0" encoding="UTF-8"?>
<svg width="344px" height="244px" viewBox="0 0 344 244" version="1.1" xmlns="http://www.w3.org/2000/svg" xmlns:xlink="http://www.w3.org/1999/xlink">
    <title>编组</title>
    <defs>
        <linearGradient x1="30.7854309%" y1="18.2432639%" x2="100%" y2="18.2432639%" id="linearGradient-1">
            <stop stop-color="#72ACFF" offset="0%"></stop>
            <stop stop-color="#D3E4FF" offset="100%"></stop>
        </linearGradient>
    </defs>
    <g id="首页" stroke="none" stroke-width="1" fill="none" fill-rule="evenodd">
        <g id="项目管理" transform="translate(-72.000000, -333.000000)">
            <g id="编组-4" transform="translate(30.000000, 222.000000)">
                <g id="编组" transform="translate(42.000000, 111.000000)">
                    <path d="M20,0 L324,0 C335.045695,-2.02906125e-15 344,8.954305 344,20 L344,224 C344,235.045695 335.045695,244 324,244 L20,244 C8.954305,244 -2.87635993e-15,235.045695 0,224 L0,20 C-1.3527075e-15,8.954305 8.954305,-2.20000618e-15 20,0 Z" id="矩形" fill="url(#linearGradient-1)" fill-rule="nonzero"></path>
                    <path d="M231.692929,0.5 C236.323598,0.5 240.803142,2.14790979 244.329858,5.14880405 L244.329858,5.14880405 L280.072513,35.562341 C283.780087,38.7171273 288.489351,40.4495453 293.35749,40.4495453 L293.35749,40.4495453 L324,40.4495453 C329.384776,40.4495453 334.259776,42.6321571 337.788582,46.160963 C341.317388,49.689769 343.5,54.564769 343.5,59.9495453 L343.5,59.9495453 L343.5,224 C343.5,229.384776 341.317388,234.259776 337.788582,237.788582 C334.259776,241.317388 329.384776,243.5 324,243.5 L324,243.5 L20,243.5 C14.6152237,243.5 9.74022369,241.317388 6.21141777,237.788582 C2.68261184,234.259776 0.5,229.384776 0.5,224 L0.5,224 L0.5,20 C0.5,14.6152237 2.68261184,9.74022369 6.21141777,6.21141777 C9.74022369,2.68261184 14.6152237,0.5 20,0.5 L20,0.5 Z" id="矩形备份-2" stroke="#BEDAFF" fill="#FFFFFF"></path>
                </g>
            </g>
        </g>
    </g>
</svg>