<?xml version="1.0" encoding="UTF-8"?>
<svg width="12px" height="12px" viewBox="0 0 12 12" version="1.1" xmlns="http://www.w3.org/2000/svg" xmlns:xlink="http://www.w3.org/1999/xlink">
    <title>切片</title>
    <g id="发现" stroke="none" stroke-width="1" fill="none" fill-rule="evenodd">
        <g id="文生图" transform="translate(-75.000000, -257.000000)" fill="#FFFFFF" fill-rule="nonzero">
            <g id="编组-6" transform="translate(20.000000, 86.000000)">
                <g id="编组-4" transform="translate(20.000000, 30.000000)">
                    <g id="编组-7" transform="translate(0.000000, 30.000000)">
                        <g id="创建智能体按钮" transform="translate(15.000000, 104.000000)">
                            <g id="AIshengcheng" transform="translate(20.000000, 7.000000)">
                                <path d="M7.24895143,9.81606831 C7.41756594,10.3431742 7.55517957,10.4860922 8.06782817,10.6559033 L8.08295055,10.6605135 L8.06782817,10.6658922 C7.55517957,10.83724 7.41756595,10.9793896 7.24895143,11.5072639 C7.07882469,10.9747793 6.93969881,10.8349349 6.41419621,10.6620503 C6.93969882,10.4883973 7.07806857,10.3485529 7.24895143,9.81606831 Z M9.30937534,1.55602641 L10.3755029,2.64020493 C10.8117835,3.08355787 10.8442966,3.76894926 10.4480904,4.17157828 L3.92807738,10.7942109 C3.53187109,11.19684 2.85665694,11.1637998 2.42037637,10.7212152 L1.35500488,9.63626833 C0.91872429,9.19368375 0.886211181,8.50829237 1.28317359,8.10566335 L7.80243045,1.48226232 C8.19863674,1.08040167 8.87385089,1.11344184 9.31013146,1.55602641 L9.30937534,1.55602641 Z M6.93743046,3.63832534 L1.90924001,8.74495218 C1.82984753,8.82640003 1.83514036,8.96393933 1.92133791,9.0546077 L2.99200223,10.1418597 C3.07971201,10.2309913 3.21505729,10.2386751 3.29671813,10.158764 L3.29898649,10.1564589 L8.35742169,5.01832863 L6.93743046,3.63755696 L6.93743046,3.63832534 Z M10.459074,6.6926199 C10.6859097,7.40336769 10.8704027,7.59008305 11.5705687,7.82059585 C10.8704027,8.05187703 10.6874219,8.2385924 10.459074,8.95087694 C10.2322383,8.23936078 10.0477453,8.05187703 9.34757928,7.82136423 C10.0477453,7.59008305 10.2322383,7.40413606 10.459074,6.69185153 L10.459074,6.6926199 Z M8.4337897,2.11770926 L8.43152134,2.12001439 L7.56727747,2.99903653 L8.98575647,4.37980818 L9.82051169,3.53152109 C9.90066029,3.45007324 9.89536746,3.31253393 9.80916991,3.22186555 L8.7385056,2.1353819 C8.65079581,2.04548191 8.51545053,2.03856653 8.4337897,2.11770926 Z M1.66497375,0.75 C2.00522724,1.8157375 2.28121062,2.09465799 3.32994749,2.44042717 C2.28121062,2.78619637 2.00598336,3.06588523 1.66497375,4.13239111 C1.32472026,3.06742199 1.04873688,2.78696476 0,2.44196393 C1.04873687,2.09465798 1.32472026,1.81496912 1.66497375,0.75 Z" id="形状"></path>
                            </g>
                        </g>
                    </g>
                </g>
            </g>
        </g>
    </g>
</svg>