<?xml version="1.0" encoding="UTF-8"?>
<svg width="20px" height="20px" viewBox="0 0 20 20" version="1.1" xmlns="http://www.w3.org/2000/svg" xmlns:xlink="http://www.w3.org/1999/xlink">
    <title>切片</title>
    <defs>
        <rect id="path-1" x="0" y="0" width="20" height="20" rx="6"></rect>
        <mask id="mask-2" maskContentUnits="userSpaceOnUse" maskUnits="objectBoundingBox" x="0" y="0" width="20" height="20" fill="white">
            <use xlink:href="#path-1"></use>
        </mask>
        <linearGradient x1="3.26590606e-13%" y1="16.9921875%" x2="100%" y2="74.9972497%" id="linearGradient-3">
            <stop stop-color="#A694FF" offset="0%"></stop>
            <stop stop-color="#552FFF" offset="100%"></stop>
        </linearGradient>
    </defs>
    <g id="项目管理" stroke="none" stroke-width="1" fill="none" fill-rule="evenodd">
        <g id="作业流程" transform="translate(-1001.000000, -251.000000)">
            <g id="编组-5" transform="translate(309.000000, 233.000000)">
                <g id="编组-3备份-3" transform="translate(672.000000, 0.000000)">
                    <g id="Icon" transform="translate(20.000000, 18.000000)">
                        <use id="Icon-(Background)" stroke-opacity="0.5" stroke="#8770FF" mask="url(#mask-2)" fill="#E4DFFF" stroke-dasharray="0,0" xlink:href="#path-1"></use>
                        <path d="M10,3.5125623 C11.1045695,3.5125623 12,4.4079928 12,5.5125623 C12,6.44880956 11.3566802,7.23480144 10.4879683,7.45261022 L10.4878063,8.5520217 C11.9126578,8.78501753 13,10.0218087 13,11.5125623 C13,11.7177203 12.9794064,11.9180683 12.9401737,12.1116521 L14.6092005,13.0753137 C14.9691295,12.7269456 15.4595288,12.5125623 16,12.5125623 C17.1045695,12.5125623 18,13.4079928 18,14.5125623 C18,15.6171318 17.1045695,16.5125623 16,16.5125623 C14.8954305,16.5125623 14,15.6171318 14,14.5125623 C14,14.3095 14.0302625,14.1135059 14.0865234,13.928844 L12.5733626,13.0554566 C12.0488209,13.9284508 11.0926237,14.5125623 10,14.5125623 C8.9073763,14.5125623 7.95117915,13.9284508 7.42663742,13.0554566 L5.91347661,13.928844 C5.96973754,14.1135059 6,14.3095 6,14.5125623 C6,15.6171318 5.1045695,16.5125623 4,16.5125623 C2.8954305,16.5125623 2,15.6171318 2,14.5125623 C2,13.4079928 2.8954305,12.5125623 4,12.5125623 C4.54047117,12.5125623 5.03087045,12.7269456 5.3907995,13.0753137 L7.05982626,12.1116521 C7.02059355,11.9180683 7,11.7177203 7,11.5125623 C7,10.0304598 8.07475879,8.79938067 9.48742199,8.5561793 L9.48695862,7.44614969 C8.63096992,7.21962558 8,6.4397794 8,5.5125623 C8,4.4079928 8.8954305,3.5125623 10,3.5125623 Z M4,13.5125623 C3.44771525,13.5125623 3,13.9602775 3,14.5125623 C3,15.064847 3.44771525,15.5125623 4,15.5125623 C4.55228475,15.5125623 5,15.064847 5,14.5125623 C5,13.9602775 4.55228475,13.5125623 4,13.5125623 Z M16,13.5125623 C15.4477153,13.5125623 15,13.9602775 15,14.5125623 C15,15.064847 15.4477153,15.5125623 16,15.5125623 C16.5522847,15.5125623 17,15.064847 17,14.5125623 C17,13.9602775 16.5522847,13.5125623 16,13.5125623 Z M10,9.5125623 C8.8954305,9.5125623 8,10.4079928 8,11.5125623 C8,12.6171318 8.8954305,13.5125623 10,13.5125623 C11.1045695,13.5125623 12,12.6171318 12,11.5125623 C12,10.4079928 11.1045695,9.5125623 10,9.5125623 Z M10,4.5125623 C9.44771525,4.5125623 9,4.96027755 9,5.5125623 C9,6.06484705 9.44771525,6.5125623 10,6.5125623 C10.5522847,6.5125623 11,6.06484705 11,5.5125623 C11,4.96027755 10.5522847,4.5125623 10,4.5125623 Z" id="形状结合" fill="url(#linearGradient-3)" fill-rule="nonzero"></path>
                    </g>
                </g>
            </g>
        </g>
    </g>
</svg>