<?xml version="1.0" encoding="UTF-8"?>
<svg width="141px" height="35px" viewBox="0 0 141 35" version="1.1" xmlns="http://www.w3.org/2000/svg" xmlns:xlink="http://www.w3.org/1999/xlink">
    <title>算子管理</title>
    <defs>
        <linearGradient x1="9.69095375%" y1="47.3281412%" x2="72.747441%" y2="51.3048375%" id="linearGradient-1">
            <stop stop-color="#00DAFF" offset="0%"></stop>
            <stop stop-color="#1960F6" offset="100%"></stop>
        </linearGradient>
        <path d="M62.964,1.584 C63.924,1.584 64.686,1.794 65.25,2.214 C65.814,2.634 66.186,3.132 66.366,3.708 C66.546,4.284 66.54,4.872 66.348,5.472 C66.156,6.072 65.784,6.552 65.232,6.912 L54.756,13.5 L54.756,14.04 L67.788,14.04 L67.788,18.504 L54.756,18.504 L54.756,25.38 C54.756,26.196 54.69,26.922 54.558,27.558 C54.426,28.194 54.174,28.782 53.802,29.322 C53.43,29.862 52.908,30.378 52.236,30.87 C51.564,31.362 50.7,31.86 49.644,32.364 L46.872,28.404 C47.928,27.876 48.678,27.354 49.122,26.838 C49.566,26.322 49.788,25.656 49.788,24.84 L49.788,18.504 L36.432,18.504 L36.432,14.04 L49.788,14.04 L49.788,11.34 L58.176,6.12 L39.24,6.12 L39.24,1.584 L62.964,1.584 Z M11.988,21.888 L11.988,23.436 L20.232,23.436 L20.232,21.888 L24.48,21.888 L24.48,23.436 L32.112,23.436 L32.112,27.108 L24.48,27.108 L24.48,31.788 L20.232,31.788 L20.232,27.108 L11.664,27.108 C11.448,28.044 11.13,28.83 10.71,29.466 C10.29,30.102 9.774,30.612 9.162,30.996 C8.55,31.38 7.842,31.656 7.038,31.824 C6.234,31.992 5.364,32.076 4.428,32.076 L2.988,32.076 L2.988,28.26 L4.14,28.26 C4.644,28.26 5.118,28.17 5.562,27.99 C6.006,27.81 6.384,27.516 6.696,27.108 L0,27.108 L0,23.436 L7.596,23.436 L7.596,21.888 L11.988,21.888 Z M80.28,0.036 L80.28,1.548 L80.28,1.548 C80.28,1.692 80.268,1.824 80.244,1.944 L87.66,1.944 L87.66,4.284 C88.356,4.164 88.86,3.834 89.172,3.294 C89.484,2.754 89.64,2.04 89.64,1.152 L89.64,0.072 L94.176,0.072 L94.176,1.566 L94.176,1.566 C94.176,1.698 94.164,1.824 94.14,1.944 L103.68,1.944 L103.68,5.292 L98.604,5.292 C98.844,5.556 99.066,5.796 99.27,6.012 C99.474,6.228 99.636,6.42 99.756,6.588 L96.48,8.46 C96.216,8.124 95.82,7.644 95.292,7.02 C94.764,6.396 94.26,5.82 93.78,5.292 L93.24,5.292 C92.832,5.988 92.322,6.546 91.71,6.966 C91.098,7.386 90.396,7.692 89.604,7.884 L90.252,8.856 L99.324,8.856 C100.692,8.856 101.706,9.156 102.366,9.756 C103.026,10.356 103.356,11.148 103.356,12.132 L103.356,14.652 L99.252,14.652 C99.708,15.252 99.936,16.152 99.936,17.352 L99.936,22.032 L95.256,22.032 L95.256,21.672 L80.64,21.672 L80.64,22.896 L97.236,22.896 C98.556,22.896 99.468,23.208 99.972,23.832 C100.476,24.456 100.728,25.392 100.728,26.64 L100.728,32.04 L96.048,32.04 L96.048,31.248 L80.64,31.248 L80.64,32.04 L75.852,32.04 L75.852,15.012 L72.828,15.012 L72.828,8.28 L77.652,8.28 L77.652,8.856 L85.608,8.856 C85.488,8.664 85.374,8.478 85.266,8.298 C85.158,8.118 85.068,7.944 84.996,7.776 L86.4,7.272 L86.4,5.292 L83.916,5.292 L85.104,6.588 L81.648,8.748 L78.984,5.796 C78.408,6.564 77.676,7.128 76.788,7.488 C75.9,7.848 74.892,8.028 73.764,8.028 L72.612,8.028 L72.612,4.284 L73.296,4.284 C74.136,4.284 74.754,4.002 75.15,3.438 C75.546,2.874 75.744,2.1 75.744,1.116 L75.744,0.036 L80.28,0.036 Z M123.876,0.612 L123.876,1.512 L134.712,1.512 C136.008,1.512 136.998,1.812 137.682,2.412 C138.366,3.012 138.708,3.96 138.708,5.256 L138.708,19.584 L134.856,19.584 L134.856,18.648 L131.472,18.648 L131.472,21.06 L138.636,21.06 L138.636,24.912 L131.472,24.912 L131.472,27.396 L140.004,27.396 L140.004,31.212 L118.728,31.212 L118.728,27.648 C118.272,27.744 117.732,27.864 117.108,28.008 C116.484,28.152 115.824,28.308 115.128,28.476 C114.432,28.644 113.724,28.818 113.004,28.998 C112.284,29.178 111.618,29.346 111.006,29.502 C110.394,29.658 109.854,29.802 109.386,29.934 C108.918,30.066 108.588,30.168 108.396,30.24 L107.604,26.136 C107.844,26.088 108.372,25.974 109.188,25.794 C110.004,25.614 110.94,25.392 111.996,25.128 L111.996,16.92 L108.684,16.92 L108.684,12.816 L111.996,12.816 L111.996,6.336 L108.432,6.336 L108.432,2.124 L119.304,2.124 L119.304,6.336 L116.208,6.336 L116.208,12.816 L119.052,12.816 L119.052,16.92 L116.208,16.92 L116.208,24.12 L119.232,23.292 L119.808,27.396 L127.368,27.396 L127.368,24.912 L120.312,24.912 L120.312,21.06 L127.368,21.06 L127.368,18.648 L123.876,18.648 L123.876,19.584 L120.024,19.584 L120.024,0.612 L123.876,0.612 Z M96.048,26.352 L80.64,26.352 L80.64,27.756 L96.048,27.756 L96.048,26.352 Z M8.28,0 L8.28,1.512 L8.28,1.512 C8.28,1.656 8.268,1.788 8.244,1.908 L15.66,1.908 L15.66,4.212 C16.308,4.092 16.782,3.756 17.082,3.204 C17.382,2.652 17.532,1.944 17.532,1.08 L17.532,0 L22.068,0 L22.068,1.512 L22.068,1.512 C22.068,1.656 22.056,1.788 22.032,1.908 L31.68,1.908 L31.68,5.256 L26.604,5.256 C26.844,5.52 27.066,5.76 27.27,5.976 C27.474,6.192 27.636,6.384 27.756,6.552 L24.84,8.208 L25.524,8.208 C26.844,8.208 27.756,8.514 28.26,9.126 C28.764,9.738 29.016,10.668 29.016,11.916 L29.016,22.14 L24.696,22.14 L24.696,21.348 L7.524,21.348 L7.524,22.14 L3.204,22.14 L3.204,7.884 C2.724,7.956 2.244,7.992 1.764,7.992 L0.612,7.992 L0.612,4.248 L1.296,4.248 C2.136,4.248 2.754,3.966 3.15,3.402 C3.546,2.838 3.744,2.064 3.744,1.08 L3.744,0 L8.28,0 Z M24.696,17.676 L7.524,17.676 L7.524,18.576 L24.696,18.576 L24.696,17.676 Z M95.256,17.1 L80.64,17.1 L80.64,18.144 L95.256,18.144 L95.256,17.1 Z M24.696,14.472 L7.524,14.472 L7.524,15.408 L24.696,15.408 L24.696,14.472 Z M127.368,12.024 L123.876,12.024 L123.876,14.796 L127.368,14.796 L127.368,12.024 Z M134.856,12.024 L131.472,12.024 L131.472,14.796 L134.856,14.796 L134.856,12.024 Z M98.532,12.492 L77.652,12.492 L77.652,13.644 L96.444,13.644 C97.284,13.644 97.98,13.788 98.532,14.076 L98.532,12.492 Z M24.696,11.052 L7.524,11.052 L7.524,12.168 L24.696,12.168 L24.696,11.052 Z M14.292,5.256 L11.916,5.256 L13.104,6.552 L10.44,8.208 L24.3,8.208 C24.012,7.848 23.622,7.386 23.13,6.822 C22.638,6.258 22.188,5.736 21.78,5.256 L21.132,5.256 C20.58,6.216 19.818,6.912 18.846,7.344 C17.874,7.776 16.776,7.992 15.552,7.992 L14.292,7.992 L14.292,5.256 Z M6.984,5.76 C6.528,6.384 5.982,6.864 5.346,7.2 C4.71,7.536 3.996,7.764 3.204,7.884 L7.524,7.884 L7.524,8.208 L9.18,8.208 L6.984,5.76 Z M127.368,5.436 L123.876,5.436 L123.876,8.172 L127.368,8.172 L127.368,5.436 Z M134.856,5.436 L131.472,5.436 L131.472,8.172 L134.856,8.172 L134.856,5.436 Z" id="path-2"></path>
        <filter x="-0.7%" y="-3.1%" width="101.4%" height="112.4%" filterUnits="objectBoundingBox" id="filter-3">
            <feOffset dx="0" dy="2" in="SourceAlpha" result="shadowOffsetOuter1"></feOffset>
            <feColorMatrix values="0 0 0 0 0.729192073   0 0 0 0 0.930004791   0 0 0 0 1  0 0 0 0.708615603 0" type="matrix" in="shadowOffsetOuter1"></feColorMatrix>
        </filter>
    </defs>
    <g id="算子管理" stroke="none" stroke-width="1" fill="none" fill-rule="evenodd">
        <g transform="translate(-201.000000, -115.000000)" fill-rule="nonzero" id="编组-2">
            <g id="形状结合" transform="translate(201.908000, 115.488000)">
                <use fill="black" fill-opacity="1" filter="url(#filter-3)" xlink:href="#path-2"></use>
                <use fill="#333333" xlink:href="#path-2"></use>
                <use fill="url(#linearGradient-1)" xlink:href="#path-2"></use>
            </g>
        </g>
    </g>
</svg>