<?xml version="1.0" encoding="UTF-8"?>
<svg width="20px" height="20px" viewBox="0 0 20 20" version="1.1" xmlns="http://www.w3.org/2000/svg" xmlns:xlink="http://www.w3.org/1999/xlink">
    <title>Icon</title>
    <defs>
        <rect id="path-1" x="0" y="0" width="20" height="20" rx="6"></rect>
        <mask id="mask-2" maskContentUnits="userSpaceOnUse" maskUnits="objectBoundingBox" x="0" y="0" width="20" height="20" fill="white">
            <use xlink:href="#path-1"></use>
        </mask>
        <linearGradient x1="10.4433991%" y1="2.08166817e-15%" x2="92.6042932%" y2="92.4687669%" id="linearGradient-3">
            <stop stop-color="#4BE7FF" offset="0%"></stop>
            <stop stop-color="#265BFF" offset="100%"></stop>
        </linearGradient>
    </defs>
    <g id="首页" stroke="none" stroke-width="1" fill="none" fill-rule="evenodd">
        <g id="流程引擎" transform="translate(-290.000000, -491.000000)">
            <g id="左侧导航" transform="translate(270.000000, 86.000000)">
                <g id="个人空间" transform="translate(0.000000, 106.000000)">
                    <g id="迭代" transform="translate(0.000000, 280.000000)">
                        <g id="Icon" transform="translate(20.000000, 19.000000)">
                            <use id="Icon-(Background)" stroke-opacity="0.5" stroke="#3BABFF" mask="url(#mask-2)" fill="#E5F1FF" stroke-dasharray="0,0" xlink:href="#path-1"></use>
                            <g id="a-bianzu18" transform="translate(3.999895, 3.544603)" fill="url(#linearGradient-3)">
                                <path d="M1.63016943,6.9721816 C1.81082406,7.15820767 1.84683517,7.33605957 1.73820277,7.5057373 L1.14357642,8.01933397 C1.07173059,8.07821671 1.06048921,8.18495151 1.11845233,8.25788246 L1.13268931,8.27316314 L5.84764319,11.8955347 C5.93731272,11.9643015 6.06113767,11.9643015 6.15080719,11.8955347 L10.8431494,8.29353739 C10.8854592,8.26123495 10.9102024,8.21054934 10.9098724,8.15685791 C10.9095424,8.10316649 10.884178,8.05279734 10.8414744,8.02103182 L10.2175118,7.5057373 C10.1426223,7.30935451 10.1989172,7.13150261 10.3863966,6.9721816 C10.5738759,6.81286058 10.7716294,6.7835729 10.9796569,6.88431856 L11.6119465,7.35886876 C12.0455383,7.69481249 12.1283992,8.32344097 11.7970273,8.76299403 L11.7400793,8.83175712 L11.6764316,8.89542664 L11.6077591,8.95315368 L6.59634102,12.7970952 C6.24361839,13.0676349 5.75650694,13.0676349 5.4037843,12.7970952 L0.391528714,8.95315368 C0.145554173,8.76423426 0.000766406571,8.46967916 8.51961358e-05,8.1568527 C-0.000548202388,7.84402624 0.14300043,7.54884861 0.388178836,7.35886876 L1.01544357,6.88177178 C1.24460618,6.75601892 1.4495148,6.78615552 1.63016943,6.9721816 Z M6.5996909,0.205809791 L11.6119465,4.08965085 C11.8446197,4.27011593 11.9863058,4.54592998 11.9987579,4.84263956 C12.01121,5.13934915 11.8931443,5.42636459 11.6764316,5.62620873 L11.6077591,5.68393577 L6.59634102,9.52787726 C6.24361839,9.79841704 5.75650694,9.79841704 5.4037843,9.52787726 L0.391528714,5.68393577 C0.145554173,5.49501635 0.000766406571,5.20046126 1.57345676e-06,4.88763479 C-0.000548202388,4.57480833 0.14300043,4.2796307 0.388178836,4.08965085 L5.39959695,0.205809791 C5.75382959,-0.0686032636 6.24545826,-0.0686032636 6.5996909,0.205809791 Z M5.84680572,1.10737027 L1.15195112,4.74587143 C1.07876637,4.80290978 1.06490775,4.90922062 1.12096474,4.98357099 L1.15278859,5.01667914 L5.84764319,8.62461893 C5.93731272,8.69338571 6.06113767,8.69338571 6.15080719,8.62461893 L10.8464993,5.01667914 C10.8884477,4.98471999 10.9131957,4.93467953 10.9133974,4.88148642 C10.9135247,4.8282933 10.8890867,4.77809655 10.8473367,4.74587143 L6.15164466,1.10737027 C6.06163926,1.03774343 5.93681112,1.03774343 5.84680572,1.10737027 Z" id="形状结合"></path>
                            </g>
                        </g>
                    </g>
                </g>
            </g>
        </g>
    </g>
</svg>