<?xml version="1.0" encoding="UTF-8"?>
<svg width="16px" height="16px" viewBox="0 0 16 16" version="1.1" xmlns="http://www.w3.org/2000/svg" xmlns:xlink="http://www.w3.org/1999/xlink">
    <title>编辑备份</title>
    <g id="用户管理" stroke="none" stroke-width="1" fill="none" fill-rule="evenodd">
        <g transform="translate(-1771.000000, -497.000000)" fill="currentColor" fill-rule="nonzero" id="编组-4">
            <g transform="translate(30.000000, 222.000000)">
                <g id="新建浮窗" transform="translate(1731.000000, 203.000000)">
                    <g id="编组备份-4" transform="translate(0.000000, 65.000000)">
                        <g id="编辑备份" transform="translate(10.000000, 7.000000)">
                            <path d="M8,2.5 C11.0375661,2.5 13.5,4.96243388 13.5,8 C13.5,11.0375661 11.0375661,13.5 8,13.5 C4.96243388,13.5 2.5,11.0375661 2.5,8 C2.5,4.96243388 4.96243388,2.5 8,2.5 Z M4.38996234,5.31297305 C3.83091728,6.0628325 3.5,6.99277132 3.5,8 C3.5,10.4852814 5.51471863,12.5 8,12.5 C9.00722868,12.5 9.9371675,12.1690827 10.687027,11.6100377 Z M8,3.5 C6.88268145,3.5 5.86047164,3.90720893 5.07368278,4.58131457 L11.4178341,10.9273105 C12.0924482,10.1403888 12.5,9.1177888 12.5,8 C12.5,5.51471863 10.4852814,3.5 8,3.5 Z" id="形状结合"></path>
                        </g>
                    </g>
                </g>
            </g>
        </g>
    </g>
</svg>
