<?xml version="1.0" encoding="UTF-8"?>
<svg width="16px" height="16px" viewBox="0 0 16 16" version="1.1" xmlns="http://www.w3.org/2000/svg" xmlns:xlink="http://www.w3.org/1999/xlink">
    <title>切片</title>
    <g id="首页" stroke="none" stroke-width="1" fill="none" fill-rule="evenodd">
        <g id="任务管理" transform="translate(-1801.000000, -414.000000)" fill="currentColor" fill-rule="nonzero">
            <g id="新建浮窗" transform="translate(1791.000000, 312.000000)">
                <g id="编组备份" transform="translate(0.000000, 95.000000)">
                    <g id="复制" transform="translate(10.000000, 7.000000)">
                        <path d="M12.5,11.75 L11.75,11.75 L11.75,10.8167491 L12.3785951,10.8167491 C12.7928087,10.8167491 13.1285951,10.4809626 13.1285951,10.0667491 L13.1285951,3.63307249 C13.1285951,3.21885892 12.7928087,2.88307249 12.3785951,2.88307249 L5.9048921,2.88307249 C5.49067854,2.88307249 5.1548921,3.08578644 5.1548921,3.5 L5.1548921,4.25 L4.25,4.25 L4.25,3.5 C4.25,2.67157288 4.92157288,2 5.75,2 L12.5,2 C13.3284271,2 14,2.67157288 14,3.5 L14,10.25 C14,11.0784271 13.3284271,11.75 12.5,11.75 Z" id="路径"></path>
                        <path d="M10.4615385,14.25 L3.53846154,14.25 C2.68879269,14.25 2,13.5612073 2,12.7115385 L2,5.78846154 C2,4.93879269 2.68879269,4.25 3.53846154,4.25 L10.4615385,4.25 C11.3112073,4.25 12,4.93879269 12,5.78846154 L12,12.7115385 C12,13.5612073 11.3112073,14.25 10.4615385,14.25 Z M3.65806306,5.19925027 C3.24635988,5.19925027 2.91260851,5.53300164 2.91260851,5.94470482 L2.91260851,12.6537957 C2.91260851,13.0654989 3.24635988,13.3992503 3.65806306,13.3992503 L10.367154,13.3992503 C10.7788571,13.3992503 11.1126085,13.0654989 11.1126085,12.6537957 L11.1126085,5.94470482 C11.1126085,5.53300164 10.7788571,5.19925027 10.367154,5.19925027 L3.65806306,5.19925027 Z" id="形状"></path>
                    </g>
                </g>
            </g>
        </g>
    </g>
</svg>