<?xml version="1.0" encoding="UTF-8"?>
<svg width="20px" height="20px" viewBox="0 0 20 20" version="1.1" xmlns="http://www.w3.org/2000/svg" xmlns:xlink="http://www.w3.org/1999/xlink">
    <title>Icon</title>
    <defs>
        <rect id="path-1" x="0" y="0" width="20" height="20" rx="6"></rect>
        <mask id="mask-2" maskContentUnits="userSpaceOnUse" maskUnits="objectBoundingBox" x="0" y="0" width="20" height="20" fill="white">
            <use xlink:href="#path-1"></use>
        </mask>
        <linearGradient x1="10.4443015%" y1="2.08166817e-15%" x2="92.6033212%" y2="92.4687669%" id="linearGradient-3">
            <stop stop-color="#4BE7FF" offset="0%"></stop>
            <stop stop-color="#265BFF" offset="100%"></stop>
        </linearGradient>
    </defs>
    <g id="首页" stroke="none" stroke-width="1" fill="none" fill-rule="evenodd">
        <g id="流程引擎" transform="translate(-290.000000, -211.000000)">
            <g id="左侧导航" transform="translate(270.000000, 86.000000)">
                <g id="个人空间" transform="translate(0.000000, 106.000000)">
                    <g id="Icon" transform="translate(20.000000, 19.000000)">
                        <use id="Icon-(Background)" stroke-opacity="0.5" stroke="#3BABFF" mask="url(#mask-2)" fill="#E5F1FF" stroke-dasharray="0,0" xlink:href="#path-1"></use>
                        <g id="AImoxing" transform="translate(3.999964, 3.540047)" fill="url(#linearGradient-3)">
                            <path d="M6.00003226,0 C6.47336494,0 6.94003095,0.123376625 7.36003037,0.363636368 L7.36003037,0.363636368 L10.6933591,2.28571429 C11.5000246,2.75324675 11.9999654,3.6038961 11.9999654,4.51948052 L11.9999654,4.51948052 L11.9999654,8.48051948 C12.0012046,9.39792401 11.504215,10.2475364 10.6933591,10.7142857 L10.6933591,10.7142857 L7.36003037,12.6363636 C6.94003095,12.8766234 6.47336494,13 6.00003226,13 C5.52669958,13 5.06003356,12.8766234 4.64003415,12.6363636 L4.64003415,12.6363636 L1.30670547,10.7142857 C0.50003992,10.2467532 1.96405904e-06,9.3961039 1.96405904e-06,8.48051948 L1.96405904e-06,8.48051948 L1.96405904e-06,4.51948052 C-0.0011400936,3.60207599 0.495849534,2.7524636 1.30670547,2.28571429 L1.30670547,2.28571429 L4.64003415,0.363636368 C5.06003356,0.123376625 5.53336625,0 6.00003226,0 Z M6.00003922,0.974025972 C5.70669933,0.974025972 5.41336641,1.05194806 5.15336677,1.2012987 L5.15336677,1.2012987 L1.82003808,3.12337663 C1.31337211,3.41558442 1.00003922,3.94805195 1.00003922,4.51948052 L1.00003922,4.51948052 L1.00003922,8.48051948 C1.00164253,9.05413222 1.31318439,9.58455345 1.82003808,9.87662337 L1.82003808,9.87662337 L5.15336677,11.7987013 C5.67489479,12.1018944 6.32516973,12.1018944 6.84669775,11.7987013 L6.84669775,11.7987013 L10.1800264,9.87662337 C10.6866924,9.58441558 11.0000253,9.05194805 11.0000253,8.48051948 L11.0000253,8.48051948 L11.0000253,4.51948052 C11.0000253,3.94805195 10.6866924,3.41558442 10.1800264,3.12337663 L10.1800264,3.12337663 L6.84669775,1.2012987 C6.59336476,1.05194806 6.30003184,0.974025972 6.00003922,0.974025972 Z M8.92002819,4.48592678 C9.10002794,4.68722548 9.08002797,4.99891379 8.8733616,5.17423846 L6.5,7.199 L6.50003296,9.32358911 C6.50003296,9.58982288 6.27336521,9.8106021 6.00003296,9.8106021 C5.7266993,9.8106021 5.50003296,9.58982288 5.50003296,9.32358911 L5.5,7.188 L3.14003625,5.17423846 C2.93371822,4.99589978 2.91292054,4.68914332 3.09336964,4.48592678 C3.27336938,4.28462808 3.59336895,4.26514755 3.80003532,4.44047222 L6.00669891,6.32358911 L8.21336251,4.44047222 C8.42002888,4.26514755 8.74002845,4.28462807 8.92002819,4.48592678 Z" id="形状结合"></path>
                        </g>
                    </g>
                </g>
            </g>
        </g>
    </g>
</svg>