<?xml version="1.0" encoding="UTF-8"?>
<svg width="26px" height="26px" viewBox="0 0 26 26" version="1.1" xmlns="http://www.w3.org/2000/svg" xmlns:xlink="http://www.w3.org/1999/xlink">
    <title>Iconly/Two-tone/Bag</title>
    <g id="首页" stroke="none" stroke-width="1" fill="none" fill-rule="evenodd">
        <g id="数据管理" transform="translate(-40.000000, -294.000000)" fill="currentColor" fill-rule="nonzero">
            <g id="左侧导航" transform="translate(0.000000, 66.000000)">
                <g id="导航/icon/商品备份-3" transform="translate(20.000000, 208.000000)">
                    <g id="Iconly/Two-tone/Bag" transform="translate(20.000000, 20.000000)">
                        <g id="qizhashujuzichanzhongxin" transform="translate(3.000000, 3.999998)">
                            <path d="M18.6113294,11.8571456 L18.1426531,11.8571456 L18.1426531,1.3871464 C18.1426532,1.01900562 17.9963017,0.665963769 17.7358343,0.405782937 C17.4753669,0.145602105 17.1221493,-0.000375481442 16.7539824,7.25356358e-07 L3.24458889,7.25356358e-07 C2.47853049,0.000789299215 1.8574925,0.621143991 1.85591827,1.3871464 L1.85591827,11.8571456 L1.38724194,11.8571456 C0.620858328,11.857934 0,12.4793877 0,13.2457169 L0,17.6114309 C0,18.3777601 0.620858328,18.9992138 1.38724194,19.0000007 L18.6127581,19.0000007 C19.3789106,19.0000007 20,18.3789572 20,17.6128594 L20,13.2457169 C20,12.4788301 19.378271,11.8571456 18.6113294,11.8571456 Z M3.28459175,2.12714635 C3.28473528,1.94117088 3.35873501,1.76286485 3.49032074,1.63143211 C3.62143535,1.50058516 3.79940308,1.4275516 3.98464175,1.42856436 L16.0353597,1.42856436 C16.4214294,1.42856436 16.7346218,1.74110506 16.7354097,2.12714635 L16.7354097,11.8571456 L13.3066648,11.8571456 C13.060031,11.8590414 12.8520706,12.0414498 12.8180584,12.285717 C12.6184161,13.6609489 11.4475076,14.6863296 10.0578613,14.7028596 C8.59547943,14.8152921 7.31304418,13.7344869 7.17622687,12.2742884 C7.14271651,12.0291746 6.93360242,11.8462891 6.68619186,11.845717 L3.28459175,11.845717 L3.28459175,2.11571778 L3.28459175,2.12714635 Z M17.9998571,17.5714309 L2.01442959,17.5714309 C1.86038604,17.5733686 1.71208499,17.5130346 1.60315113,17.4041085 C1.49421727,17.2951825 1.43387895,17.146892 1.43572834,16.9928595 L1.43572834,13.8600026 C1.43817159,13.5421413 1.69653693,13.2857169 2.01442959,13.2857169 L5.95756839,13.2857169 C6.56233413,14.9992559 8.18204118,16.1451764 9.99928566,16.1451764 C11.8165301,16.1451764 13.4362372,14.9992559 14.0410029,13.2857169 L17.9998571,13.2857169 C18.3190903,13.2865022 18.5776846,13.545078 18.5784699,13.8642883 L18.5784699,17.0000023 C18.566724,17.3136675 18.3135448,17.5668287 17.9998571,17.5714309 Z" id="形状" fill="currentColor"></path>
                            <path d="M13.9995714,6.96857457 L12.6737624,6.96857457 L11.3808129,4.41286048 L11.3736696,4.40000333 C11.2569774,4.20136108 11.0427125,4.08055094 10.8123373,4.08345132 C10.5819621,4.08645757 10.3708651,4.21272068 10.2593042,4.41428905 L8.44631759,8.01000307 L7.58911351,7.15286028 C7.47044656,7.03413578 7.30980162,6.96690579 7.14193871,6.96571742 L6.17901278,6.96571742 C5.83578274,6.96571742 5.55753982,7.24394045 5.55753982,7.58714595 C5.55753982,7.93035145 5.83578274,8.20857448 6.17901278,8.20857448 L6.89334953,8.20857448 L8.18629901,9.48571723 C8.30179425,9.5960355 8.45518083,9.657897 8.61490105,9.65857437 L8.71776555,9.65857437 C8.91456041,9.62512753 9.08430682,9.50139601 9.17636973,9.32428869 L10.8164869,6.07714606 L11.7279806,7.8842888 C11.8410351,8.08541224 12.0530113,8.21073621 12.2837346,8.2128602 L13.9981427,8.2128602 C14.3309837,8.19731236 14.5929566,7.92314962 14.5933387,7.58996973 C14.59372,7.25678983 14.3323759,6.98202768 13.9995714,6.96571742 L13.9995714,6.96857457 Z" id="路径" fill="#1960F6"></path>
                        </g>
                    </g>
                </g>
            </g>
        </g>
    </g>
</svg>
