<?xml version="1.0" encoding="UTF-8"?>
<svg width="16px" height="16px" viewBox="0 0 16 16" version="1.1" xmlns="http://www.w3.org/2000/svg" xmlns:xlink="http://www.w3.org/1999/xlink">
    <title>切片</title>
    <g id="项目管理" stroke="none" stroke-width="1" fill="none" fill-rule="evenodd">
        <g id="作业流程" transform="translate(-1844.000000, -393.000000)" fill="#8292A3" fill-rule="nonzero">
            <g id="编组" transform="translate(1500.000000, 86.000000)">
                <g id="编组-2" transform="translate(10.000000, 59.000000)">
                    <g id="编组-6备份-2" transform="translate(0.000000, 200.000000)">
                        <g id="输入框" transform="translate(70.000000, 28.000000)">
                            <g id="删除" transform="translate(264.000000, 20.000000)">
                                <path d="M11.7974313,14.2222222 L4.23560249,14.2222222 C3.54223478,14.2222222 2.98083169,13.6575146 2.98083169,12.994411 L2.98083169,3.90176288 L13.1841667,3.90176288 L13.1841667,12.961213 C13.1182695,13.6912259 12.5238327,14.2222222 11.7974313,14.2222222 Z M3.99669976,4.8301156 L3.99669976,12.961213 C3.99518804,13.0232833 4.01907028,13.0832612 4.06277265,13.1271485 C4.10647503,13.1710358 4.16617374,13.1949926 4.22793585,13.1934276 L11.9463848,13.1934276 C12.0081469,13.1949926 12.0678456,13.1710358 12.111548,13.1271485 C12.1552504,13.0832612 12.1791326,13.0232833 12.1776885,12.961213 L12.1776885,4.8301156 L3.99669976,4.8301156 Z" id="形状"></path>
                                <path d="M9.86471725,6.73900473 C10.1408596,6.73900473 10.3647173,6.96286236 10.3647173,7.23900473 L10.3647173,10.9056714 C10.3647173,11.1818138 10.1408596,11.4056714 9.86471725,11.4056714 C9.58857488,11.4056714 9.36471725,11.1818138 9.36471725,10.9056714 L9.36471725,7.23900473 C9.36471725,6.96286236 9.58857488,6.73900473 9.86471725,6.73900473 Z M6.36471725,6.73900473 C6.64085963,6.73900473 6.86471725,6.96286236 6.86471725,7.23900473 L6.86471725,10.9056714 C6.86471725,11.1818138 6.64085963,11.4056714 6.36471725,11.4056714 C6.08857488,11.4056714 5.86471725,11.1818138 5.86471725,10.9056714 L5.86471725,7.23900473 C5.86471725,6.96286236 6.08857488,6.73900473 6.36471725,6.73900473 Z M14.5,3.8301156 C14.7761424,3.8301156 15,4.05397323 15,4.3301156 C15,4.60625798 14.7761424,4.8301156 14.5,4.8301156 L1.5,4.8301156 C1.22385763,4.8301156 1,4.60625798 1,4.3301156 C1,4.05397323 1.22385763,3.8301156 1.5,3.8301156 L14.5,3.8301156 Z M9.83333333,1.49678227 C10.1094757,1.49678227 10.3333333,1.7206399 10.3333333,1.99678227 C10.3333333,2.27292465 10.1094757,2.49678227 9.83333333,2.49678227 L6.16666667,2.49678227 C5.89052429,2.49678227 5.66666667,2.27292465 5.66666667,1.99678227 C5.66666667,1.7206399 5.89052429,1.49678227 6.16666667,1.49678227 L9.83333333,1.49678227 Z" id="形状"></path>
                            </g>
                        </g>
                    </g>
                </g>
            </g>
        </g>
    </g>
</svg>