<?xml version="1.0" encoding="UTF-8"?>
<svg width="16px" height="16px" viewBox="0 0 16 16" version="1.1" xmlns="http://www.w3.org/2000/svg" xmlns:xlink="http://www.w3.org/1999/xlink">
    <g stroke="none" stroke-width="1" fill="none" fill-rule="evenodd">
        <g id="1用户管理" transform="translate(-1797.000000, -259.000000)" fill="currentColor" fill-rule="nonzero">
            <g id="Content" transform="translate(240.000000, 73.000000)">
                <g id="编组-2" transform="translate(280.000000, 26.000000)">
                    <g id="Content" transform="translate(31.000000, 83.000000)">
                        <g id="head备份" transform="translate(0.000000, 57.000000)">
                            <g id="删除" transform="translate(1246.000000, 20.000000)">
                                <g id="shanchu" transform="translate(1.000000, 2.000000)">
                                    <path d="M10.7974313,12 L3.23560249,12 C2.54223478,12 1.98083169,11.4554605 1.98083169,10.8160392 L1.98083169,2.04812849 L12.1841667,2.04812849 L12.1841667,10.7840268 C12.1182695,11.4879679 11.5238327,12 10.7974313,12 Z M2.97813723,3.01694123 L2.97813723,10.7840268 C2.97669315,10.8438804 3.00057539,10.9017161 3.04427777,10.9440361 C3.08798014,10.986356 3.14767885,11.0094571 3.20944097,11.0079481 L10.9318339,11.0079481 C10.993596,11.0094571 11.0532947,10.986356 11.0969971,10.944036 C11.1406995,10.9017161 11.1645817,10.8438804 11.1631376,10.7840268 L11.1631376,3.01694123 L2.97813723,3.01694123 Z" id="形状"></path>
                                    <path d="M13.5380387,3.01645759 L0.527858539,3.01645759 C0.339272848,3.01645759 0.165012481,2.92120422 0.0707196349,2.7665785 C-0.0235732116,2.61195278 -0.0235732116,2.42144604 0.0707196349,2.26682031 C0.165012481,2.11219459 0.339272848,2.01694123 0.527858539,2.01694123 L13.4721415,2.01694123 C13.736241,2.01694123 13.9673068,2.20443115 14,2.48590786 L14,2.51718304 C13.9669663,2.79849853 13.8350016,3.01694123 13.5376981,3.01694123 L13.5380387,3.01645759 Z M8.05665358,1 L5.9111641,1 C5.72239591,1 5.5479669,0.904700542 5.45358281,0.750000002 C5.35919871,0.595299463 5.35919871,0.404700537 5.45358281,0.249999998 C5.5479669,0.0952994584 5.72239591,0 5.9111641,0 L8.05665358,0 C8.34846392,0 8.58502293,0.223857628 8.58502293,0.5 C8.58502293,0.776142372 8.34846392,1 8.05665358,1 Z M5.19886072,9.24809549 L5.19886072,4.83204532 C5.19886072,4.54930336 5.42271835,4.32009571 5.69886072,4.32009571 C5.9750031,4.32009571 6.19886072,4.54930336 6.19886072,4.83204532 L6.19886072,9.21608317 C6.19886072,9.47201672 6.01143123,9.69610297 5.69926362,9.72762121 C5.44849811,9.72811529 5.2298035,9.53604137 5.19886072,9.24809549 Z M7.87357094,9.24809549 L7.87357094,4.83204532 C7.87357094,4.64911386 7.96887039,4.48007821 8.12357093,4.38861247 C8.27827147,4.29714674 8.4688704,4.29714674 8.62357094,4.38861247 C8.77827148,4.48007821 8.87357094,4.64911386 8.87357094,4.83204532 L8.87357094,9.21608317 C8.87357094,9.47201672 8.65491158,9.69610297 8.37405434,9.72762121 C8.12316811,9.72811529 7.90434761,9.53604137 7.87357094,9.24809549 Z" id="形状"></path>
                                </g>
                            </g>
                        </g>
                    </g>
                </g>
            </g>
        </g>
    </g>
</svg>
