<?xml version="1.0" encoding="UTF-8"?>
<svg width="16px" height="16px" viewBox="0 0 16 16" version="1.1" xmlns="http://www.w3.org/2000/svg" xmlns:xlink="http://www.w3.org/1999/xlink">
    <title>切片</title>
    <g id="用户管理" stroke="none" stroke-width="1" fill="none" fill-rule="evenodd">
        <g id="邀请管理" transform="translate(-1742.000000, -405.000000)" fill="currentColor" fill-rule="nonzero">
            <g id="编组-4" transform="translate(30.000000, 222.000000)">
                <g id="编组-7备份-10" transform="translate(30.000000, 107.000000)">
                    <g id="编组-4" transform="translate(0.000000, 56.000000)">
                        <g id="详情" transform="translate(1682.000000, 20.000000)">
                            <path d="M13.4059557,0.507093437 C14.2896113,0.507093437 15.0059557,1.22343784 15.0059557,2.10709344 L15.0059557,2.10709344 L15.0059557,13.9187325 C15.0059557,14.8023881 14.2896113,15.5187325 13.4059557,15.5187325 L13.4059557,15.5187325 L2.6,15.5187325 C1.7163444,15.5187325 1,14.8023881 1,13.9187325 L1,13.9187325 L1,2.10709344 C1,1.22343784 1.7163444,0.507093437 2.6,0.507093437 L2.6,0.507093437 Z M13.4059557,1.70709344 L2.6,1.70709344 C2.3790861,1.70709344 2.2,1.88617954 2.2,2.10709344 L2.2,2.10709344 L2.2,13.9187325 C2.2,14.1396464 2.3790861,14.3187325 2.6,14.3187325 L2.6,14.3187325 L13.4059557,14.3187325 C13.6268696,14.3187325 13.8059557,14.1396464 13.8059557,13.9187325 L13.8059557,13.9187325 L13.8059557,2.10709344 C13.8059557,1.88617954 13.6268696,1.70709344 13.4059557,1.70709344 L13.4059557,1.70709344 Z M11.4048728,10.3890091 C11.7362436,10.3890091 12.0048728,10.6576383 12.0048728,10.9890091 C12.0048728,11.32038 11.7362436,11.5890091 11.4048728,11.5890091 L4.60487277,11.5890091 C4.27350192,11.5890091 4.00487277,11.32038 4.00487277,10.9890091 C4.00487277,10.6576383 4.27350192,10.3890091 4.60487277,10.3890091 L11.4048728,10.3890091 Z M8.40487277,7.38900914 C8.73624362,7.38900914 9.00487277,7.65763829 9.00487277,7.98900914 C9.00487277,8.32037999 8.73624362,8.58900914 8.40487277,8.58900914 L4.60487277,8.58900914 C4.27350192,8.58900914 4.00487277,8.32037999 4.00487277,7.98900914 C4.00487277,7.65763829 4.27350192,7.38900914 4.60487277,7.38900914 L8.40487277,7.38900914 Z M11.4048728,4.38900914 C11.7362436,4.38900914 12.0048728,4.65763829 12.0048728,4.98900914 C12.0048728,5.32037999 11.7362436,5.58900914 11.4048728,5.58900914 L4.60487277,5.58900914 C4.27350192,5.58900914 4.00487277,5.32037999 4.00487277,4.98900914 C4.00487277,4.65763829 4.27350192,4.38900914 4.60487277,4.38900914 L11.4048728,4.38900914 Z" id="形状结合"></path>
                        </g>
                    </g>
                </g>
            </g>
        </g>
    </g>
</svg>
