<svg xmlns="http://www.w3.org/2000/svg" xmlns:xlink="http://www.w3.org/1999/xlink" fill="none" width="24" height="24"
     viewBox="0 0 24 24" class="h-6 w-6">
    <defs>
        <clipPath id="master_svg0_614_53985">
            <rect x="2.4000000953674316" y="2.4000000953674316" width="19.200000762939453" height="19.200000762939453"
                  rx="0"></rect>
        </clipPath>
    </defs>
    <g>
        <g>
            <rect x="0" y="0" width="24" height="24" rx="4" fill="#47C49C" fill-opacity="1"></rect>
        </g>
        <g clip-path="url(#master_svg0_614_53985)">
            <g>
                <path d="M20.00002145767212,9.124056716461181L20.00002145767212,14.884036716461182C19.99672145767212,16.19213671646118,19.19872145767212,17.36683671646118,17.98402145767212,17.852036716461182L13.18403145767212,19.77203671646118C12.421201457672119,20.076036716461182,11.57085145767212,20.076036716461182,10.808031457672119,19.77203671646118L6.00803145767212,17.852036716461182C4.795104457672119,17.36583671646118,4.000027683262119,16.19073671646118,4.000027683262119,14.884036716461182L4.000027683262119,9.124056716461181C3.997452667672119,7.814656716461181,4.792864457672119,6.635806716461182,6.00803145767212,6.1480567164611815L10.808031457672119,4.228055716461181C11.57085145767212,3.924030316461182,12.421201457672119,3.924030316461182,13.18403145767212,4.228055716461181L17.98402145767212,6.1480567164611815C19.20092145767212,6.635066716461182,19.999121457672118,7.813366716461182,20.00002145767212,9.124056716461181Z"
                      fill="#fff" fill-opacity="1"></path>
            </g>
            <g>
                <path d="M17.376057907867434,9.076124099273681L13.920057907867431,10.460124099273681C13.118967907867432,10.775514099273682,12.59442790786743,11.551204099273681,12.60005790786743,12.412124099273681L12.60005790786743,16.76412409927368C12.60005790786743,17.09549409927368,12.331427907867432,17.36412409927368,12.000057907867433,17.36412409927368C11.668687907867431,17.36412409927368,11.400057907867431,17.09549409927368,11.400057907867431,16.76412409927368L11.400057907867431,12.412124099273681C11.396557907867432,11.910654099273682,11.508807907867432,11.415134099273683,11.72805790786743,10.964124099273683C11.398397907867432,10.934384099273682,11.074917907867432,10.856214099273682,10.768057907867432,10.732124099273681L6.616055907867431,9.076124099273681C6.323688107867432,8.943194099273681,6.187840707867432,8.603615099273682,6.307858207867431,8.305715099273682C6.427875907867431,8.007814299273681,6.761192907867431,7.857248499273681,7.064055907867432,7.964125699273682L11.216057907867432,9.620124099273681C11.716827907867431,9.820104099273681,12.275287907867432,9.820104099273681,12.776057907867433,9.620124099273681L16.928057907867434,7.964126099273682C17.23295790786743,7.838166699273682,17.581957907867434,7.985689699273681,17.70405790786743,8.292126099273682C17.831957907867434,8.599201099273682,17.68455790786743,8.951634099273681,17.376057907867434,9.076124099273681Z"
                      fill="#47C49C" fill-opacity="1"></path>
                <path d="M17.980457907867432,8.868381099273682Q18.12465790786743,8.523756099273681,17.98185790786743,8.178921099273682Q17.84365790786743,7.834328099273682,17.50135790786743,7.689648099273682Q17.15805790786743,7.544515099273681,16.816957907867433,7.685472099273682L12.664797907867431,9.341524099273682Q11.996057907867431,9.608574099273682,11.327197907867433,9.341474099273682L7.169584907867431,7.683234099273681L7.163888907867432,7.681224099273682Q6.823167907867432,7.560987099273682,6.493889907867431,7.709728099273682Q6.164611607867432,7.858469599273682,6.029591907867432,8.193607099273681Q5.894572907867432,8.528746099273683,6.028773907867432,8.864212099273681Q6.162974907867432,9.199684099273682,6.4918899078674315,9.349224099273682L6.498337907867431,9.352154099273681L10.655587907867432,11.010244099273681Q10.971467907867432,11.137984099273682,11.302057907867432,11.204844099273682Q11.095677907867431,11.78521409927368,11.10005790786743,12.412124099273681L11.10005790786743,16.76412409927368Q11.10005790786743,17.13691409927368,11.363657907867431,17.40052409927368Q11.62726790786743,17.664124099273682,12.000057907867433,17.664124099273682Q12.372847907867431,17.664124099273682,12.636447907867431,17.40052409927368Q12.900057907867431,17.13691409927368,12.900057907867431,16.76412409927368L12.900047907867432,12.410164099273683Q12.896437907867432,11.857464099273681,13.206047907867433,11.399604099273681Q13.515667907867432,10.941754099273682,14.031587907867433,10.738624099273682L17.48835790786743,9.354324099273681Q17.83585790786743,9.214084099273682,17.980457907867432,8.868381099273682ZM17.267757907867434,8.242307099273681Q17.38015790786743,8.289817099273682,17.42535790786743,8.403178099273681L17.427157907867432,8.407500099273681Q17.47495790786743,8.522190099273681,17.426957907867433,8.636809099273682Q17.37895790786743,8.751428099273681,17.26375790786743,8.797924099273681L13.808527907867433,10.181624099273682Q13.122817907867432,10.45159409927368,12.709027907867432,11.063504099273683Q12.295227907867432,11.67541409927368,12.300067907867431,12.414084099273682L12.300057907867432,16.76412409927368Q12.300057907867432,17.064124099273684,12.000057907867433,17.064124099273684Q11.700057907867432,17.064124099273684,11.700057907867432,16.76412409927368L11.700057907867432,12.412124099273681Q11.695227907867432,11.71783409927368,11.99786790786743,11.095284099273682L12.187887907867431,10.704394099273681L11.755007907867432,10.665334099273682Q11.30209790786743,10.624484099273682,10.880517907867432,10.454004099273682L6.734469907867432,8.800373099273681Q6.480005907867431,8.68122209927368,6.586123907867432,8.417822099273682Q6.692417907867432,8.153985099273681,6.959119907867431,8.245254099273682L11.104917907867431,9.898784099273682Q11.996057907867431,10.254654099273681,12.88731790786743,9.898734099273682L17.039157907867434,8.242780099273682Q17.155357907867433,8.194797099273682,17.267757907867434,8.242307099273681Z"
                      fill-rule="evenodd" fill="#47C49C" fill-opacity="1"></path>
            </g>
        </g>
    </g>
</svg>