<?xml version="1.0" encoding="UTF-8"?>
<svg width="14px" height="14px" viewBox="0 0 14 14" version="1.1" xmlns="http://www.w3.org/2000/svg" xmlns:xlink="http://www.w3.org/1999/xlink">
    <title>xiazai-2</title>
    <g id="项目管理" stroke="none" stroke-width="1" fill="none" fill-rule="evenodd">
        <g id="导入数据集" transform="translate(-1070.000000, -1024.000000)" fill="#1C6BFF" fill-rule="nonzero">
            <g id="创建项目弹层" transform="translate(1040.000000, 0.000000)">
                <g id="xiazai-2" transform="translate(30.000000, 1024.000000)">
                    <path d="M12.390791,12.271355 L1.60920897,12.271355 C1.26918536,12.271355 1,12.5457994 1,12.8924661 C1,13.2391327 1.26918536,13.5135772 1.60920897,13.5135772 L12.390791,13.5135772 C12.7308146,13.5135772 13,13.2391327 13,12.8924661 C13,12.5602438 12.7308146,12.271355 12.390791,12.271355 Z M6.59622196,11.2024661 C6.70956316,11.3180216 6.86540732,11.3757994 7.00708383,11.361355 C7.14876033,11.361355 7.30460449,11.3180216 7.41794569,11.2024661 L11.1015348,7.44691051 C11.3140496,7.23024384 11.3140496,6.86913273 11.1015348,6.65246607 C10.8890201,6.4357994 10.5348288,6.4357994 10.322314,6.65246607 L7.53128689,9.49802162 L7.53128689,1.07691051 C7.53128689,0.773577177 7.29043684,0.513577177 6.97874852,0.513577177 C6.66706021,0.513577177 6.42621015,0.759132733 6.42621015,1.07691051 L6.42621015,9.44024384 L3.6918536,6.65246607 C3.47933884,6.4357994 3.12514758,6.4357994 2.91263282,6.65246607 C2.70011806,6.86913273 2.70011806,7.23024384 2.91263282,7.44691051 L6.59622196,11.2024661 Z" id="形状"></path>
                </g>
            </g>
        </g>
    </g>
</svg>