<?xml version="1.0" encoding="UTF-8"?>
<svg width="16px" height="16px" viewBox="0 0 16 16" version="1.1" xmlns="http://www.w3.org/2000/svg" xmlns:xlink="http://www.w3.org/1999/xlink">
    <title>切片</title>
    <g id="首页" stroke="none" stroke-width="1" fill="none" fill-rule="evenodd">
        <g id="任务管理" transform="translate(-1801.000000, -384.000000)" fill="currentColor" fill-rule="nonzero">
            <g id="新建浮窗" transform="translate(1791.000000, 312.000000)">
                <g id="编组备份-4" transform="translate(0.000000, 65.000000)">
                    <g id="编辑备份" transform="translate(10.000000, 7.000000)">
                        <path d="M13.1656837,2.62188594 C13.3312172,2.6652143 13.4604914,2.79448855 13.5038198,2.96002204 C13.5471482,3.12555552 13.4977877,3.30158737 13.3747102,3.42045961 L6.67959588,10.1157318 C6.4946849,10.3006427 6.19488497,10.3006427 6.00997399,10.1157318 C5.82506301,9.93082078 5.82506301,9.63102084 6.00997399,9.44610986 L12.7052461,2.75115333 C12.8241184,2.62791801 13.0001502,2.57855758 13.1656837,2.62188594 Z M12.5665241,7.66245047 C12.5665241,7.40096899 12.7784967,7.18899637 13.0399782,7.18899637 C13.3014597,7.18899637 13.5134323,7.40096899 13.5134323,7.66245047 L13.5134323,11.8704455 C13.5134323,12.82919 12.7361785,13.6064438 11.7774339,13.6064438 L4.25526025,13.6064438 C3.29651571,13.6064438 2.51926191,12.82919 2.51926191,11.8704455 L2.51926191,4.34827181 C2.51926191,3.38952727 3.29651571,2.61227347 4.25526025,2.61227347 L8.30543724,2.61227347 C8.56691872,2.61227347 8.77889134,2.82424609 8.77889134,3.08572757 C8.77889134,3.34720904 8.56691872,3.55918166 8.30543724,3.55918166 L4.25526025,3.55918166 C3.81945779,3.55918166 3.4661701,3.91246935 3.4661701,4.34827181 L3.4661701,11.8704455 C3.4661701,12.306248 3.81945779,12.6595356 4.25526025,12.6595356 L11.7774339,12.6595356 C12.2132364,12.6595356 12.5665241,12.306248 12.5665241,11.8704455 L12.5665241,7.66245047 Z" id="形状"></path>
                    </g>
                </g>
            </g>
        </g>
    </g>
</svg>