<?xml version="1.0" encoding="UTF-8"?>
<svg width="20px" height="20px" viewBox="0 0 20 20" version="1.1" xmlns="http://www.w3.org/2000/svg" xmlns:xlink="http://www.w3.org/1999/xlink">
    <title>切片</title>
    <defs>
        <rect id="path-1" x="0" y="0" width="20" height="20" rx="6"></rect>
        <mask id="mask-2" maskContentUnits="userSpaceOnUse" maskUnits="objectBoundingBox" x="0" y="0" width="20" height="20" fill="white">
            <use xlink:href="#path-1"></use>
        </mask>
        <linearGradient x1="22.4599698%" y1="1.28569172%" x2="80.5439808%" y2="92.4687669%" id="linearGradient-3">
            <stop stop-color="#FFCE0B" offset="0%"></stop>
            <stop stop-color="#FF3D00" offset="100%"></stop>
        </linearGradient>
    </defs>
    <g id="项目管理" stroke="none" stroke-width="1" fill="none" fill-rule="evenodd">
        <g id="作业流程" transform="translate(-1203.000000, -448.000000)">
            <g id="编组-5" transform="translate(309.000000, 233.000000)">
                <g id="编组-3备份-2" transform="translate(874.000000, 197.000000)">
                    <g id="结束" transform="translate(20.000000, 18.000000)">
                        <use id="Icon-(Background)" stroke-opacity="0.5" stroke="#FF6806" mask="url(#mask-2)" fill="#FFF4E4" stroke-dasharray="0,0" xlink:href="#path-1"></use>
                        <g id="zhongdian" transform="translate(4.500000, 2.977863)" fill="url(#linearGradient-3)">
                            <path d="M2.96007844,11.6482276 C3.01632009,11.9167852 2.87141763,12.1866003 2.63642973,12.2508765 C2.54565061,12.2757073 2.46271085,12.3019526 2.38776073,12.3280653 L2.18702961,12.4044583 L1.9065,12.5285425 L2.12455373,12.6296113 C2.18574646,12.6572675 2.25844415,12.6880503 2.34292244,12.7191152 L2.45467598,12.7578873 C2.98322058,12.9304733 3.71501851,13.0315425 4.5,13.0315425 C5.28498149,13.0315425 6.01677942,12.9304733 6.54532402,12.7578873 C6.66325317,12.7193798 6.76259567,12.679461 6.84388988,12.6436868 L7.087375,12.5305425 L6.90015757,12.4439898 L6.72412888,12.3694166 C6.69053108,12.3562698 6.65479744,12.3429107 6.61691897,12.3295593 L6.49684006,12.2897482 C6.26369247,12.2172453 6.1261173,11.9424662 6.18955733,11.6760118 C6.25299736,11.4095574 6.49342913,11.2523286 6.72657672,11.3248315 C7.51108286,11.5687927 8,11.933437 8,12.5315425 C8,13.4916129 6.56372348,13.9948894 4.70787981,14.0296131 L4.5,14.0315425 C2.54463757,14.0315425 1,13.5271711 1,12.5315425 C1,11.8965612 1.55108675,11.5195074 2.43276068,11.2783434 C2.66774858,11.2140672 2.90383678,11.37967 2.96007844,11.6482276 Z M9.58557694,0.191367476 C9.99169759,-0.181661763 10.6476288,0.0181729604 10.7799352,0.552689299 L10.7799352,0.552689299 L11.9450419,5.33171668 C12.0102776,5.59094164 11.926918,5.86138495 11.7279263,6.04613191 L11.7279263,6.04613191 L11.4836028,6.26110663 C11.0514697,6.62918898 10.6642953,6.88832834 10.2136089,7.08288423 C10.0301832,7.16139108 9.84379334,7.22427634 9.6517807,7.27145539 C8.84609816,7.46938146 7.99794875,7.48170789 7.30721225,7.29960575 L7.30721225,7.29960575 L7.13958908,7.26297997 C6.73343363,7.19105937 6.22740809,7.21400317 5.7343455,7.33364796 C5.25319939,7.45170928 4.82526686,7.72840385 4.35742054,8.15521877 L4.35742054,8.15521877 L4.28609669,8.22145292 C4.27050051,8.23577829 4.25453376,8.24925884 4.23824067,8.26190827 L5.04969788,11.5190783 C5.11650276,11.787018 4.95345073,12.0583822 4.68551096,12.1251871 C4.41757119,12.191992 4.14620704,12.0289399 4.07940215,11.7610002 L3.13711751,7.98863255 C3.11907382,7.94785452 3.10446617,7.90448284 3.09379043,7.85867095 L3.09379043,7.85867095 L2.378,4.938 L1.90210509,3.02833862 C1.8736355,2.91415332 1.88691082,2.79934611 1.93225894,2.70001411 C1.97040238,2.57474366 2.04178285,2.46036089 2.14189105,2.37163957 L2.14189105,2.37163957 L2.38096347,2.1609288 C2.95774222,1.67185044 3.53012975,1.33633874 4.22471567,1.16463804 C5.02858372,0.967157722 5.87638242,0.954138503 6.56828001,1.13393668 L6.56828001,1.13393668 L6.73684029,1.17056497 C7.14493424,1.2424829 7.65126502,1.2194732 8.14516809,1.09962309 C8.59779194,0.989462801 9.02059806,0.712078 9.51425309,0.257601626 L9.51425309,0.257601626 Z M9.91584518,1.23379418 L9.79432458,1.33585599 C9.33530996,1.70245111 8.89082179,1.94733594 8.38131523,2.07134033 C7.6635442,2.24551422 6.916644,2.2590017 6.31577234,2.10153102 L6.31577234,2.10153102 L6.11281837,2.05748091 C5.62368646,1.97071362 5.03161236,1.99614666 4.46398822,2.13559021 C3.87691662,2.28071392 3.37748592,2.59984391 2.83545707,3.09274991 L2.93476649,3.00521966 L3.337,4.653 L3.965,7.172 L4.06657815,7.09048148 C4.38772977,6.83817088 4.71029129,6.6408987 5.06107737,6.5014897 L5.27515048,6.42481048 L5.4972846,6.36215402 C6.21534473,6.18790998 6.96244343,6.17448046 7.56218524,6.33265758 L7.56218524,6.33265758 L7.76458896,6.37724547 C8.25253602,6.46516002 8.8441706,6.44012196 9.41319068,6.300335 C9.55132304,6.26639477 9.686022,6.22094927 9.81870023,6.16416516 C10.223371,5.98947163 10.5831799,5.73159484 11.0343603,5.32502157 L11.027,5.331 L10.9350801,5.41113905 L9.91584518,1.23379418 Z" id="形状结合"></path>
                        </g>
                    </g>
                </g>
            </g>
        </g>
    </g>
</svg>