<?xml version="1.0" encoding="UTF-8"?>
<svg width="20px" height="20px" viewBox="0 0 20 20" version="1.1" xmlns="http://www.w3.org/2000/svg" xmlns:xlink="http://www.w3.org/1999/xlink">
    <title>成功</title>
    <defs>
        <linearGradient x1="20.1952777%" y1="14.4439077%" x2="82.6481378%" y2="84.4628079%" id="linearGradient-1">
            <stop stop-color="#F80000" offset="0%"></stop>
            <stop stop-color="#FF8181" offset="100%"></stop>
        </linearGradient>
    </defs>
    <g id="首页" stroke="none" stroke-width="1" fill="none" fill-rule="evenodd">
        <g id="任务管理" transform="translate(-494.000000, -402.000000)">
            <g id="编组-7备份-10" transform="translate(60.000000, 216.000000)">
                <g id="编组-4备份-16" transform="translate(0.000000, 168.000000)">
                    <g id="成功" transform="translate(434.000000, 18.000000)">
                        <circle id="椭圆形" fill="url(#linearGradient-1)" cx="10" cy="10" r="10"></circle>
                        <path d="M7.70710678,6.29289322 L9.828,8.413 L11.9497475,6.29289322 C12.3102314,5.93240926 12.8774625,5.90467972 13.2697537,6.20970461 L13.363961,6.29289322 C13.7544853,6.68341751 13.7544853,7.31658249 13.363961,7.70710678 L13.363961,7.70710678 L11.242,9.828 L13.363961,11.9497475 C13.7544853,12.3402718 13.7544853,12.9734367 13.363961,13.363961 C12.9734367,13.7544853 12.3402718,13.7544853 11.9497475,13.363961 L9.828,11.242 L7.70710678,13.363961 C7.34662282,13.724445 6.77939176,13.7521745 6.38710056,13.4471496 L6.29289322,13.363961 C5.90236893,12.9734367 5.90236893,12.3402718 6.29289322,11.9497475 L6.29289322,11.9497475 L8.413,9.828 L6.29289322,7.70710678 C5.90236893,7.31658249 5.90236893,6.68341751 6.29289322,6.29289322 C6.68341751,5.90236893 7.31658249,5.90236893 7.70710678,6.29289322 Z" id="形状结合" fill="#FFFFFF"></path>
                    </g>
                </g>
            </g>
        </g>
    </g>
</svg>