<?xml version="1.0" encoding="UTF-8"?>
<svg width="12px" height="10px" viewBox="0 0 12 10" version="1.1" xmlns="http://www.w3.org/2000/svg" xmlns:xlink="http://www.w3.org/1999/xlink">
    <title>形状结合</title>
    <g id="项目管理" stroke="none" stroke-width="1" fill="none" fill-rule="evenodd">
        <g id="数据目录卡片" transform="translate(-1455.000000, -239.000000)" fill="currentColor">
            <g id="弹窗" transform="translate(345.000000, 140.000000)">
                <g id="Content" transform="translate(30.000000, 82.000000)">
                    <g id="编组-2" transform="translate(281.875000, 1.000000)">
                        <g id="卡片" transform="translate(789.125000, 6.000000)">
                            <path d="M20.5,19 C20.7761424,19 21,19.2238576 21,19.5 C21,19.7761424 20.7761424,20 20.5,20 L9.5,20 C9.22385763,20 9,19.7761424 9,19.5 C9,19.2238576 9.22385763,19 9.5,19 L20.5,19 Z M20.5,14.5 C20.7761424,14.5 21,14.7238576 21,15 C21,15.2761424 20.7761424,15.5 20.5,15.5 L9.5,15.5 C9.22385763,15.5 9,15.2761424 9,15 C9,14.7238576 9.22385763,14.5 9.5,14.5 L20.5,14.5 Z M20.5,10 C20.7761424,10 21,10.2238576 21,10.5 C21,10.7761424 20.7761424,11 20.5,11 L9.5,11 C9.22385763,11 9,10.7761424 9,10.5 C9,10.2238576 9.22385763,10 9.5,10 L20.5,10 Z" id="形状结合"></path>
                        </g>
                    </g>
                </g>
            </g>
        </g>
    </g>
</svg>