<?xml version="1.0" encoding="UTF-8"?>
<svg width="14px" height="14px" viewBox="0 0 14 14" version="1.1" xmlns="http://www.w3.org/2000/svg" xmlns:xlink="http://www.w3.org/1999/xlink">
    <title>形状结合</title>
    <g id="项目管理" stroke="none" stroke-width="1" fill="none" fill-rule="evenodd">
        <g id="数据目录卡片" transform="translate(-1484.000000, -237.000000)" fill="currentColor">
            <g id="弹窗" transform="translate(345.000000, 140.000000)">
                <g id="Content" transform="translate(30.000000, 82.000000)">
                    <g id="编组-2" transform="translate(281.875000, 1.000000)">
                        <g id="编组" transform="translate(789.125000, 6.000000)">
                            <g id="liebiaoxingshi" transform="translate(38.000000, 8.000000)">
                                <path d="M5,0 C5.55228475,0 6,0.44771525 6,1 L6,5 C6,5.55228475 5.55228475,6 5,6 L1,6 C0.44771525,6 0,5.55228475 0,5 L0,1 C0,0.44771525 0.44771525,0 1,0 L5,0 Z M1,1 L1,5 L5,5 L5,1 L1,1 Z M5,8 C5.55228475,8 6,8.44771525 6,9 L6,13 C6,13.5522847 5.55228475,14 5,14 L1,14 C0.44771525,14 0,13.5522847 0,13 L0,9 C0,8.44771525 0.44771525,8 1,8 L5,8 Z M5,9 L1,9 L1,13 L5,13 L5,9 Z M13,0 C13.5522847,0 14,0.44771525 14,1 L14,5 C14,5.55228475 13.5522847,6 13,6 L9,6 C8.44771525,6 8,5.55228475 8,5 L8,1 C8,0.44771525 8.44771525,0 9,0 L13,0 Z M13,5 L13,1 L9,1 L9,5 L13,5 Z M13,8 C13.5522847,8 14,8.44771525 14,9 L14,13 C14,13.5522847 13.5522847,14 13,14 L9,14 C8.44771525,14 8,13.5522847 8,13 L8,9 C8,8.44771525 8.44771525,8 9,8 L13,8 Z M13,9 L9,9 L9,13 L13,13 L13,9 Z" id="形状结合"></path>
                            </g>
                        </g>
                    </g>
                </g>
            </g>
        </g>
    </g>
</svg>