<?xml version="1.0" encoding="UTF-8"?>
<svg width="16px" height="16px" viewBox="0 0 16 16" version="1.1" xmlns="http://www.w3.org/2000/svg" xmlns:xlink="http://www.w3.org/1999/xlink">
    <title>自适应视图</title>
    <g id="首页" stroke="none" stroke-width="1" fill="none" fill-rule="evenodd">
        <g id="流程引擎" transform="translate(-1046.000000, -1022.000000)" fill="#8292A3" fill-rule="nonzero">
            <g id="调整版" transform="translate(800.000000, 1010.000000)">
                <g id="自适应视图" transform="translate(246.000000, 12.000000)">
                    <path d="M15.2727273,10.688405 C15.6409171,10.688405 15.9452034,10.9620088 15.9933609,11.3169911 L16,11.4156777 L16,13.3333333 C16,14.751546 14.8928925,15.9111799 13.4957792,15.9951333 L13.3333333,16 L11.4397702,16 C11.0381086,16 10.7124975,15.6743889 10.7124975,15.2727273 C10.7124975,14.9045374 10.9861013,14.6002512 11.3410836,14.5520937 L11.4397702,14.5454545 L13.3333333,14.5454545 C13.9609296,14.5454545 14.4771238,14.0684852 14.5391965,13.4572657 L14.5454545,13.3333333 L14.5454545,11.4156777 C14.5454545,11.0140161 14.8710656,10.688405 15.2727273,10.688405 Z M0.727272727,10.6692141 C1.09546256,10.6692141 1.39974881,10.9428179 1.44790631,11.2978002 L1.45454545,11.3964868 L1.45454545,13.3333333 C1.45454545,13.9609296 1.93151483,14.4771238 2.54273431,14.5391965 L2.66666667,14.5454545 L4.62031745,14.5454545 C5.02197909,14.5454545 5.34759018,14.8710656 5.34759018,15.2727273 C5.34759018,15.6409171 5.07398641,15.9452034 4.71900405,15.9933609 L4.62031745,16 L2.66666667,16 C1.24845398,16 0.0888200933,14.8928925 0.00486670928,13.4957792 L0,13.3333333 L0,11.3964868 C0,10.9948252 0.325611091,10.6692141 0.727272727,10.6692141 Z M4.64564946,0 C5.0473111,0 5.37292219,0.325611091 5.37292219,0.727272727 C5.37292219,1.09546256 5.09931843,1.39974881 4.74433607,1.44790631 L4.64564946,1.45454545 L2.66666667,1.45454545 C2.03907036,1.45454545 1.52287622,1.93151483 1.4608035,2.54273431 L1.45454545,2.66666667 L1.45454545,4.65427751 C1.45454545,5.05593914 1.12893436,5.38155023 0.727272727,5.38155023 C0.359082894,5.38155023 0.054796644,5.10794647 0.00663914278,4.75296411 L0,4.65427751 L0,2.66666667 C0,1.24845398 1.10710749,0.0888200933 2.50422077,0.00486670928 L2.66666667,0 L4.64564946,0 Z M13.3333333,0 C14.751546,0 15.9111799,1.10710749 15.9951333,2.50422077 L16,2.66666667 L16,4.63748545 C16,5.03914709 15.6743889,5.36475818 15.2727273,5.36475818 C14.9045374,5.36475818 14.6002512,5.09115442 14.5520937,4.73617205 L14.5454545,4.63748545 L14.5454545,2.66666667 C14.5454545,2.03907036 14.0684852,1.52287622 13.4572657,1.4608035 L13.3333333,1.45454545 L11.4362199,1.45454545 C11.0345583,1.45454545 10.7089472,1.12893436 10.7089472,0.727272727 C10.7089472,0.359082894 10.9825509,0.054796644 11.3375333,0.00663914278 L11.4362199,0 L13.3333333,0 Z" id="形状"></path>
                    <path d="M11.2832747,4.25771944 L4.68327467,4.25771944 C3.6063194,4.25771944 2.73327467,5.13076418 2.73327467,6.20771944 L2.73327467,9.80771944 C2.73327467,10.8846747 3.6063194,11.7577194 4.68327467,11.7577194 L11.2832747,11.7577194 C12.3602299,11.7577194 13.2332747,10.8846747 13.2332747,9.80771944 L13.2332747,6.20771944 C13.2332747,5.13076418 12.3602299,4.25771944 11.2832747,4.25771944 Z M4.68327467,5.75771944 L11.2832747,5.75771944 C11.5318028,5.75771944 11.7332747,5.95919131 11.7332747,6.20771944 L11.7332747,9.80771944 C11.7332747,10.0562476 11.5318028,10.2577194 11.2832747,10.2577194 L4.68327467,10.2577194 C4.43474653,10.2577194 4.23327467,10.0562476 4.23327467,9.80771944 L4.23327467,6.20771944 C4.23327467,5.95919131 4.43474653,5.75771944 4.68327467,5.75771944 Z" id="矩形备份"></path>
                </g>
            </g>
        </g>
    </g>
</svg>