<?xml version="1.0" encoding="UTF-8"?>
<svg width="16px" height="16px" viewBox="0 0 16 16" version="1.1" xmlns="http://www.w3.org/2000/svg" xmlns:xlink="http://www.w3.org/1999/xlink">
    <title>编辑备份 2</title>
    <g id="用户管理" stroke="none" stroke-width="1" fill="none" fill-rule="evenodd">
        <g transform="translate(-1771.000000, -437.000000)" fill="#333333" fill-rule="nonzero" id="编组-4">
            <g transform="translate(30.000000, 222.000000)">
                <g id="新建浮窗" transform="translate(1731.000000, 203.000000)">
                    <g id="任务详情" transform="translate(0.000000, 5.000000)">
                        <g id="编辑备份-2" transform="translate(10.000000, 7.000000)">
                            <g id="fuzeren" transform="translate(0.000000, 2.015813)">
                                <path d="M8,1.5 C9.65685425,1.5 11,2.84314575 11,4.5 C11,5.45580796 10.5530121,6.30721629 9.85666889,6.85659225 C11.6986085,7.59299653 13,9.39452013 13,11.5 C13,11.7761424 12.7761424,12 12.5,12 C12.2238576,12 12,11.7761424 12,11.5 C12,9.290861 10.209139,7.5 8,7.5 C5.790861,7.5 4,9.290861 4,11.5 C4,11.7761424 3.77614237,12 3.5,12 C3.22385763,12 3,11.7761424 3,11.5 C3,9.39452013 4.30139151,7.59299653 6.14366836,6.85593538 C5.44698795,6.30721629 5,5.45580796 5,4.5 C5,2.84314575 6.34314575,1.5 8,1.5 Z M8,2.5 C6.8954305,2.5 6,3.3954305 6,4.5 C6,5.6045695 6.8954305,6.5 8,6.5 C9.1045695,6.5 10,5.6045695 10,4.5 C10,3.3954305 9.1045695,2.5 8,2.5 Z" id="形状结合"></path>
                                <path d="M5,0 C6.31674033,0 7.46270059,0.855299649 7.85632328,2.08038275 L7.90528123,2.24968599 L6.93690338,2.49917411 C6.71129397,1.62348054 5.91766577,1 5,1 C3.8954305,1 3,1.8954305 3,3 C3,4.0543618 3.81587779,4.91816512 4.85073766,4.99451426 L5,5 L5,5 C5.18070302,5 5.36032224,5.00960644 5.53832783,5.02868359 C5.81289788,5.05810972 6.0116263,5.30454732 5.98220017,5.57911737 C5.95277405,5.85368742 5.70633645,6.05241584 5.4317664,6.02298971 C5.28913828,6.00770402 5.14509006,6 5,6 C2.790861,6 1,7.790861 1,10 C1,10.2761424 0.776142375,10.5 0.5,10.5 C0.223857625,10.5 0,10.2761424 0,10 C0,7.89452013 1.30139151,6.09299653 3.14366836,5.35593538 C2.44698795,4.80721629 2,3.95580796 2,3 C2,1.34314575 3.34314575,0 5,0 Z" id="形状结合"></path>
                                <path d="M13,0 C14.3167403,0 15.4627006,0.855299649 15.8563233,2.08038275 L15.9052812,2.24968599 L14.9369034,2.49917411 C14.711294,1.62348054 13.9176658,1 13,1 C11.8954305,1 11,1.8954305 11,3 C11,4.0543618 11.8158778,4.91816512 12.8507377,4.99451426 L13,5 L13,5 C13.180703,5 13.3603222,5.00960644 13.5383278,5.02868359 C13.8128979,5.05810972 14.0116263,5.30454732 13.9822002,5.57911737 C13.952774,5.85368742 13.7063364,6.05241584 13.4317664,6.02298971 C13.2891383,6.00770402 13.1450901,6 13,6 C10.790861,6 9,7.790861 9,10 C9,10.2761424 8.77614237,10.5 8.5,10.5 C8.22385763,10.5 8,10.2761424 8,10 C8,7.89452013 9.30139151,6.09299653 11.1436684,5.35593538 C10.4469879,4.80721629 10,3.95580796 10,3 C10,1.34314575 11.3431458,0 13,0 Z" id="形状结合备份" transform="translate(11.952641, 5.250000) scale(-1, 1) translate(-11.952641, -5.250000) "></path>
                            </g>
                        </g>
                    </g>
                </g>
            </g>
        </g>
    </g>
</svg>