<svg xmlns="http://www.w3.org/2000/svg" xmlns:xlink="http://www.w3.org/1999/xlink" fill="none" width="24" height="24"
     viewBox="0 0 24 24" class="h-6 w-6">
    <defs>
        <clipPath id="master_svg0_1310_2474">
            <rect x="2" y="2" width="20" height="20" rx="0"></rect>
        </clipPath>
    </defs>
    <g>
        <g>
            <rect x="0" y="0" width="24" height="24" rx="4" fill="#FF8C62" fill-opacity="1"></rect>
        </g>
        <g clip-path="url(#master_svg0_1310_2474)">
            <g>
                <path d="M18.499499999999998,5L5.50064,5C4.671896,5,4,5.6718969999999995,4,6.50064L4,17.4994C4,18.3281,4.671896,19,5.50064,19L18.499299999999998,19C19.3281,19,20,18.3281,20,17.4994L20,6.50064C20,5.6718969999999995,19.3281,5,18.499499999999998,5ZM5.50027,5.999967L18.4998,5.999967C18.7761,5.999967,19,6.22409,19,6.50018L19,12.38931C18.194200000000002,11.72791,16.7974,10.8366,15.1216,10.8366C13.57639,10.8366,12.05308,12.03396,10.58009,13.19188C9.45129,14.07886,8.28406,14.99644,7.46518,14.99644C6.31648,14.99644,5.33329,14.15194,4.9999649999999995,13.82959L4.9999649999999995,6.50018C4.9999649999999995,6.22409,5.22408,5.999967,5.50027,5.999967Z"
                      fill="#fff" fill-opacity="1"></path>
            </g>
            <g>
                <path d="M9,12C10.10464,12,11,11.10455,11,10C11,8.895454,10.10464,8,9,8C7.895454,8,7,8.895362,7,10C7,11.10464,7.895454,12,9,12Z"
                      fill="#fff" fill-opacity="1"></path>
            </g>
        </g>
    </g>
</svg>