<?xml version="1.0" encoding="UTF-8"?>
<svg width="36px" height="36px" viewBox="0 0 36 36" version="1.1" xmlns="http://www.w3.org/2000/svg" xmlns:xlink="http://www.w3.org/1999/xlink">
    <title>切片</title>
    <g id="首页" stroke="none" stroke-width="1" fill="none" fill-rule="evenodd">
        <g id="任务详情" transform="translate(-280.000000, -353.000000)">
            <g id="编组-7备份-10" transform="translate(270.000000, 96.000000)">
                <g id="编组-5" transform="translate(0.000000, 70.000000)">
                    <g id="编组-7" transform="translate(10.000000, 90.000000)">
                        <g id="方向左键" transform="translate(0.000000, 97.000000)">
                            <circle id="椭圆形" fill-opacity="0.08" fill="#00244C" cx="18" cy="18" r="18"></circle>
                            <path d="M21.9285979,10.4393398 C22.5143843,11.0251263 22.5143843,11.9748737 21.9285979,12.5606602 L16.627,17.861 L21.9245109,23.1580706 C22.5102974,23.743857 22.5102974,24.6936045 21.9245109,25.2793909 C21.3387245,25.8651773 20.388977,25.8651773 19.8031906,25.2793909 L13.4942872,18.9732931 C13.4770124,18.9575452 13.4600166,18.9413213 13.4433165,18.9246212 C13.2963354,18.7776401 13.1862337,18.6077451 13.1130114,18.426435 C12.8890976,17.8831709 12.9979628,17.2353763 13.4392296,16.7941095 C13.4782618,16.7550773 13.51891,16.7186458 13.5609588,16.6848152 L19.8072775,10.4393398 C20.393064,9.85355339 21.3428115,9.85355339 21.9285979,10.4393398 Z" id="形状结合" fill="#FFFFFF" fill-rule="nonzero"></path>
                        </g>
                    </g>
                </g>
            </g>
        </g>
    </g>
</svg>