<?xml version="1.0" encoding="UTF-8"?>
<svg width="12px" height="13px" viewBox="0 0 12 13" version="1.1" xmlns="http://www.w3.org/2000/svg" xmlns:xlink="http://www.w3.org/1999/xlink">
    <title>chuangjianshijian备份</title>
    <g id="首页" stroke="none" stroke-width="1" fill="none" fill-rule="evenodd">
        <g id="项目管理" transform="translate(-112.000000, -440.000000)" fill="#7E93A5" fill-rule="nonzero">
            <g id="编组-4" transform="translate(30.000000, 222.000000)">
                <g id="平台项目" transform="translate(42.000000, 111.000000)">
                    <g id="编组-5" transform="translate(20.000000, 88.000000)">
                        <g id="chuangjianshijian备份" transform="translate(20.000000, 19.680000)">
                            <path d="M5.99964703,1 C7.15735752,1 8.18825847,1.73266435 8.56896631,2.82598734 C8.94967414,3.91931033 8.59679331,5.13380945 7.68947975,5.85288921 C9.67567892,6.56562427 11.0004043,8.44881235 11,10.5590205 C11,10.8025666 10.8025665,11 10.5590203,11 C10.3154742,11 10.118041,10.8025666 10.118041,10.5590205 C10.0885456,8.30571044 8.25350287,6.49453078 6,6.49453078 C3.74649676,6.49453078 1.911454,8.30571044 1.88195862,10.5590205 C1.88195862,10.8025666 1.68452546,11 1.44097931,11 C1.19743316,11 1,10.8025666 1,10.5590205 C1,8.44862625 2.32449955,6.56526163 4.31051988,5.85147807 C3.40438871,5.13210382 3.0523303,3.91834128 3.43289239,2.82575466 C3.81345448,1.73316803 4.8433857,1.00077042 6.0003526,1 L5.99964703,1 Z M6.46179335,6.79623217 C6.63042384,7.03118595 6.7143863,7.17582716 6.7143863,7.23086138 C6.7080362,7.31905725 6.5288222,7.71064688 6.36371955,7.93925056 C6.5034218,8.61095026 6.66923002,9.11049163 6.66923002,9.69611217 C6.66923002,9.89649317 6.25647338,10.3134832 6.13299917,10.3240667 L6.1195934,10.3240667 C5.9961192,10.3127776 5.58336256,9.89649317 5.58336256,9.69611217 C5.58336256,9.11049163 5.74917078,8.61095026 5.8895786,7.93925056 C5.72518151,7.71205801 5.54526195,7.32046838 5.53891185,7.23086138 C5.53891185,7.17582716 5.62287431,7.03118595 5.79009366,6.79623217 L6.46179335,6.79623217 Z M6.0003526,1.88195864 C5.33498697,1.8689229 4.71450854,2.21643231 4.37800566,2.7905814 C4.04150279,3.3647305 4.04150279,4.07589594 4.37800566,4.65004504 C4.71450854,5.22419413 5.33498697,5.57170354 6.0003526,5.55866781 C7.00161252,5.53905128 7.80304318,4.72176531 7.80304318,3.72031322 C7.80304318,2.71886114 7.00161252,1.90157517 6.0003526,1.88195864 L6.0003526,1.88195864 Z" id="形状"></path>
                        </g>
                    </g>
                </g>
            </g>
        </g>
    </g>
</svg>