<?xml version="1.0" encoding="UTF-8"?>
<svg width="141px" height="36px" viewBox="0 0 141 36" version="1.1" xmlns="http://www.w3.org/2000/svg" xmlns:xlink="http://www.w3.org/1999/xlink">
    <title>用户管理备份</title>
    <defs>
        <linearGradient x1="12.9873262%" y1="5.42621503e-13%" x2="70.8872125%" y2="74.41816%" id="linearGradient-1">
            <stop stop-color="#00DAFF" offset="0%"></stop>
            <stop stop-color="#1960F6" offset="100%"></stop>
        </linearGradient>
        <path d="M14.436,22.824 L7.236,22.824 C7.188,24.288 7.074,25.608 6.894,26.784 C6.714,27.96 6.396,28.968 5.94,29.808 C5.484,30.648 4.86,31.296 4.068,31.752 C3.276,32.208 2.256,32.436 1.008,32.436 L0,32.436 L0,27.576 L1.08,27.576 C1.656,27.576 2.064,27.132 2.304,26.244 C2.544,25.356 2.664,23.88 2.664,21.816 L2.664,1.116 L7.272,1.116 L7.272,1.836 L26.28,1.836 C27.912,1.836 29.034,2.208 29.646,2.952 C30.258,3.696 30.564,4.764 30.564,6.156 L30.564,26.496 C30.564,28.032 30.15,29.31 29.322,30.33 C28.494,31.35 27.24,32.244 25.56,33.012 L22.86,29.088 C23.82,28.632 24.588,28.17 25.164,27.702 C25.74,27.234 26.028,26.616 26.028,25.848 L26.028,22.824 L18.828,22.824 L18.828,32.004 L14.436,32.004 L14.436,22.824 Z M18.828,18.684 L26.028,18.684 L26.028,14.364 L18.828,14.364 L18.828,18.684 Z M7.272,18.684 L14.436,18.684 L14.436,14.364 L7.272,14.364 L7.272,18.684 Z M18.828,6.228 L18.828,10.224 L26.028,10.224 L26.028,6.228 L18.828,6.228 Z M7.272,10.224 L14.436,10.224 L14.436,6.228 L7.272,6.228 L7.272,10.224 Z" id="path-2"></path>
        <filter x="-3.3%" y="-3.1%" width="106.5%" height="112.5%" filterUnits="objectBoundingBox" id="filter-3">
            <feOffset dx="0" dy="2" in="SourceAlpha" result="shadowOffsetOuter1"></feOffset>
            <feColorMatrix values="0 0 0 0 0.729192073   0 0 0 0 0.930004791   0 0 0 0 1  0 0 0 0.708615603 0" type="matrix" in="shadowOffsetOuter1"></feColorMatrix>
        </filter>
        <linearGradient x1="14.1013302%" y1="5.42621503e-13%" x2="70.2585511%" y2="74.41816%" id="linearGradient-4">
            <stop stop-color="#00DAFF" offset="0%"></stop>
            <stop stop-color="#1960F6" offset="100%"></stop>
        </linearGradient>
        <path d="M44.064,3.708 L44.064,4.572 L50.292,4.572 C50.076,3.972 49.86,3.396 49.644,2.844 C49.428,2.292 49.224,1.812 49.032,1.404 L53.676,0 C53.892,0.48 54.192,1.134 54.576,1.962 C54.96,2.79 55.356,3.66 55.764,4.572 L62.136,4.572 C65.136,4.572 66.636,5.808 66.636,8.28 L66.636,20.556 L61.92,20.556 L61.92,19.62 L44.064,19.62 L44.064,22.716 C44.064,24.564 43.932,26.124 43.668,27.396 C43.404,28.668 42.984,29.688 42.408,30.456 C41.832,31.224 41.094,31.776 40.194,32.112 C39.294,32.448 38.196,32.616 36.9,32.616 L35.856,32.616 L35.856,28.116 L36.972,28.116 C37.356,28.116 37.698,28.074 37.998,27.99 C38.298,27.906 38.55,27.696 38.754,27.36 C38.958,27.024 39.114,26.502 39.222,25.794 C39.33,25.086 39.384,24.12 39.384,22.896 L39.384,3.708 L44.064,3.708 Z M44.064,8.928 L44.064,15.156 L61.92,15.156 L61.92,8.928 L44.064,8.928 Z" id="path-5"></path>
        <filter x="-3.2%" y="-3.1%" width="106.5%" height="112.3%" filterUnits="objectBoundingBox" id="filter-6">
            <feOffset dx="0" dy="2" in="SourceAlpha" result="shadowOffsetOuter1"></feOffset>
            <feColorMatrix values="0 0 0 0 0.729192073   0 0 0 0 0.930004791   0 0 0 0 1  0 0 0 0.708615603 0" type="matrix" in="shadowOffsetOuter1"></feColorMatrix>
        </filter>
        <linearGradient x1="12.0142599%" y1="5.42621503e-13%" x2="71.436339%" y2="74.41816%" id="linearGradient-7">
            <stop stop-color="#00DAFF" offset="0%"></stop>
            <stop stop-color="#1960F6" offset="100%"></stop>
        </linearGradient>
        <path d="M96.192,32.868 L96.192,32.076 L80.784,32.076 L80.784,32.868 L75.996,32.868 L75.996,15.84 L72.972,15.84 L72.972,9.108 L77.796,9.108 L77.796,9.684 L85.752,9.684 C85.632,9.492 85.518,9.306 85.41,9.126 C85.302,8.946 85.212,8.772 85.14,8.604 L86.544,8.1 L86.544,6.12 L84.06,6.12 L85.248,7.416 L81.792,9.576 L79.128,6.624 C78.552,7.392 77.82,7.956 76.932,8.316 C76.044,8.676 75.036,8.856 73.908,8.856 L72.756,8.856 L72.756,5.112 L73.44,5.112 C74.28,5.112 74.898,4.83 75.294,4.266 C75.69,3.702 75.888,2.928 75.888,1.944 L75.888,0.864 L80.424,0.864 L80.424,1.944 C80.424,2.088 80.424,2.232 80.424,2.376 C80.424,2.52 80.412,2.652 80.388,2.772 L87.804,2.772 L87.804,5.112 C88.5,4.992 89.004,4.662 89.316,4.122 C89.628,3.582 89.784,2.868 89.784,1.98 L89.784,0.9 L94.32,0.9 L94.32,1.98 C94.32,2.124 94.32,2.262 94.32,2.394 C94.32,2.526 94.308,2.652 94.284,2.772 L103.824,2.772 L103.824,6.12 L98.748,6.12 C98.988,6.384 99.21,6.624 99.414,6.84 C99.618,7.056 99.78,7.248 99.9,7.416 L96.624,9.288 C96.36,8.952 95.964,8.472 95.436,7.848 C94.908,7.224 94.404,6.648 93.924,6.12 L93.384,6.12 C92.976,6.816 92.466,7.374 91.854,7.794 C91.242,8.214 90.54,8.52 89.748,8.712 L90.396,9.684 L99.468,9.684 C100.836,9.684 101.85,9.984 102.51,10.584 C103.17,11.184 103.5,11.976 103.5,12.96 L103.5,15.48 L99.396,15.48 C99.852,16.08 100.08,16.98 100.08,18.18 L100.08,22.86 L95.4,22.86 L95.4,22.5 L80.784,22.5 L80.784,23.724 L97.38,23.724 C98.7,23.724 99.612,24.036 100.116,24.66 C100.62,25.284 100.872,26.22 100.872,27.468 L100.872,32.868 L96.192,32.868 Z M77.796,13.32 L77.796,14.472 L96.588,14.472 C97.428,14.472 98.124,14.616 98.676,14.904 L98.676,13.32 L77.796,13.32 Z M80.784,27.18 L80.784,28.584 L96.192,28.584 L96.192,27.18 L80.784,27.18 Z M80.784,17.928 L80.784,18.972 L95.4,18.972 L95.4,17.928 L80.784,17.928 Z" id="path-8"></path>
        <filter x="-3.2%" y="-3.1%" width="106.4%" height="112.5%" filterUnits="objectBoundingBox" id="filter-9">
            <feOffset dx="0" dy="2" in="SourceAlpha" result="shadowOffsetOuter1"></feOffset>
            <feColorMatrix values="0 0 0 0 0.729192073   0 0 0 0 0.930004791   0 0 0 0 1  0 0 0 0.708615603 0" type="matrix" in="shadowOffsetOuter1"></feColorMatrix>
        </filter>
        <linearGradient x1="9.69095375%" y1="5.40123457%" x2="72.747441%" y2="71.7803958%" id="linearGradient-10">
            <stop stop-color="#00DAFF" offset="0%"></stop>
            <stop stop-color="#1960F6" offset="100%"></stop>
        </linearGradient>
        <path d="M127.512,28.224 L127.512,25.74 L120.456,25.74 L120.456,21.888 L127.512,21.888 L127.512,19.476 L124.02,19.476 L124.02,20.412 L120.168,20.412 L120.168,1.44 L124.02,1.44 L124.02,2.34 L134.856,2.34 C136.152,2.34 137.142,2.64 137.826,3.24 C138.51,3.84 138.852,4.788 138.852,6.084 L138.852,20.412 L135,20.412 L135,19.476 L131.616,19.476 L131.616,21.888 L138.78,21.888 L138.78,25.74 L131.616,25.74 L131.616,28.224 L140.148,28.224 L140.148,32.04 L118.872,32.04 L118.872,28.476 C118.416,28.572 117.876,28.692 117.252,28.836 C116.628,28.98 115.968,29.136 115.272,29.304 C114.576,29.472 113.868,29.646 113.148,29.826 C112.428,30.006 111.762,30.174 111.15,30.33 C110.538,30.486 109.998,30.63 109.53,30.762 C109.062,30.894 108.732,30.996 108.54,31.068 L107.748,26.964 C107.988,26.916 108.516,26.802 109.332,26.622 C110.148,26.442 111.084,26.22 112.14,25.956 L112.14,17.748 L108.828,17.748 L108.828,13.644 L112.14,13.644 L112.14,7.164 L108.576,7.164 L108.576,2.952 L119.448,2.952 L119.448,7.164 L116.352,7.164 L116.352,13.644 L119.196,13.644 L119.196,17.748 L116.352,17.748 L116.352,24.948 L119.376,24.12 L119.952,28.224 L127.512,28.224 Z M124.02,15.624 L127.512,15.624 L127.512,12.852 L124.02,12.852 L124.02,15.624 Z M124.02,9 L127.512,9 L127.512,6.264 L124.02,6.264 L124.02,9 Z M131.616,15.624 L135,15.624 L135,12.852 L131.616,12.852 L131.616,15.624 Z M131.616,6.264 L131.616,9 L135,9 L135,6.264 L131.616,6.264 Z" id="path-11"></path>
        <filter x="-3.1%" y="-3.3%" width="106.2%" height="113.1%" filterUnits="objectBoundingBox" id="filter-12">
            <feOffset dx="0" dy="2" in="SourceAlpha" result="shadowOffsetOuter1"></feOffset>
            <feColorMatrix values="0 0 0 0 0.729192073   0 0 0 0 0.930004791   0 0 0 0 1  0 0 0 0.708615603 0" type="matrix" in="shadowOffsetOuter1"></feColorMatrix>
        </filter>
    </defs>
    <g id="用户管理" stroke="none" stroke-width="1" fill="none" fill-rule="evenodd">
        <g id="角色管理" transform="translate(-201.000000, -114.000000)" fill-rule="nonzero">
            <g id="用户管理备份" transform="translate(201.764000, 114.660000)">
                <g id="形状">
                    <use fill="black" fill-opacity="1" filter="url(#filter-3)" xlink:href="#path-2"></use>
                    <use fill="#333333" xlink:href="#path-2"></use>
                    <use fill="url(#linearGradient-1)" xlink:href="#path-2"></use>
                </g>
                <g id="形状">
                    <use fill="black" fill-opacity="1" filter="url(#filter-6)" xlink:href="#path-5"></use>
                    <use fill="#333333" xlink:href="#path-5"></use>
                    <use fill="url(#linearGradient-4)" xlink:href="#path-5"></use>
                </g>
                <g id="形状">
                    <use fill="black" fill-opacity="1" filter="url(#filter-9)" xlink:href="#path-8"></use>
                    <use fill="#333333" xlink:href="#path-8"></use>
                    <use fill="url(#linearGradient-7)" xlink:href="#path-8"></use>
                </g>
                <g id="形状">
                    <use fill="black" fill-opacity="1" filter="url(#filter-12)" xlink:href="#path-11"></use>
                    <use fill="#333333" xlink:href="#path-11"></use>
                    <use fill="url(#linearGradient-10)" xlink:href="#path-11"></use>
                </g>
            </g>
        </g>
    </g>
</svg>