<?xml version="1.0" encoding="UTF-8"?>
<svg width="22px" height="22px" viewBox="0 0 22 22" version="1.1" xmlns="http://www.w3.org/2000/svg" xmlns:xlink="http://www.w3.org/1999/xlink">
    <title>Icon</title>
    <defs>
        <linearGradient x1="100%" y1="100%" x2="-14.9980151%" y2="-22.1138862%" id="linearGradient-1">
            <stop stop-color="#FF6500" offset="0%"></stop>
            <stop stop-color="#FFC92A" offset="100%"></stop>
        </linearGradient>
    </defs>
    <g id="首页" stroke="none" stroke-width="1" fill="none" fill-rule="evenodd">
        <g id="流程引擎" transform="translate(-289.000000, -378.000000)">
            <g id="左侧导航" transform="translate(270.000000, 86.000000)">
                <g id="个人空间" transform="translate(0.000000, 106.000000)">
                    <g id="问题分类器" transform="translate(0.000000, 168.000000)">
                        <g id="Icon" transform="translate(20.000000, 19.000000)">
                            <path d="M6,0 L14,0 C17.3137085,-6.08718376e-16 20,2.6862915 20,6 L20,14 C20,17.3137085 17.3137085,20 14,20 L6,20 C2.6862915,20 2.02906125e-16,17.3137085 0,14 L0,6 C-4.05812251e-16,2.6862915 2.6862915,4.05812251e-16 6,0 Z" id="Icon-(Background)" stroke-opacity="0.5" stroke="#FF7612" stroke-width="0.5" fill="#FFF1DF" stroke-dasharray="0,0"></path>
                            <g id="wentifenlei" transform="translate(4.524128, 4.579215)" fill="url(#linearGradient-1)" fill-rule="nonzero">
                                <path d="M3.5,6 C4.32842712,6 5,6.67157288 5,7.5 L5,7.5 L5,9.5 C5,10.3284271 4.32842712,11 3.5,11 L3.5,11 L1.5,11 C0.671572875,11 0,10.3284271 0,9.5 L0,9.5 L0,7.5 C0,6.67157288 0.671572875,6 1.5,6 L1.5,6 Z M9.5,6 C10.3284271,6 11,6.67157288 11,7.5 L11,7.5 L11,9.5 C11,10.3284271 10.3284271,11 9.5,11 L9.5,11 L7.5,11 C6.67157288,11 6,10.3284271 6,9.5 L6,9.5 L6,7.5 C6,6.67157288 6.67157288,6 7.5,6 L7.5,6 Z M3.5,7 L1.5,7 C1.22385763,7 1,7.22385763 1,7.5 L1,7.5 L1,9.5 C1,9.77614237 1.22385763,10 1.5,10 L1.5,10 L3.5,10 C3.77614237,10 4,9.77614237 4,9.5 L4,9.5 L4,7.5 C4,7.22385763 3.77614237,7 3.5,7 L3.5,7 Z M9.5,7 L7.5,7 C7.22385763,7 7,7.22385763 7,7.5 L7,7.5 L7,9.5 C7,9.77614237 7.22385763,10 7.5,10 L7.5,10 L9.5,10 C9.77614237,10 10,9.77614237 10,9.5 L10,9.5 L10,7.5 C10,7.22385763 9.77614237,7 9.5,7 L9.5,7 Z M3.5,0 C4.32842712,0 5,0.671572875 5,1.5 L5,1.5 L5,3.5 C5,4.32842712 4.32842712,5 3.5,5 L3.5,5 L1.5,5 C0.671572875,5 0,4.32842712 0,3.5 L0,3.5 L0,1.5 C0,0.671572875 0.671572875,0 1.5,0 L1.5,0 Z M8.48942846,0 C9.87014033,0 10.9894285,1.11928813 10.9894285,2.5 C10.9894285,3.88071187 9.87014033,5 8.48942846,5 C7.10871658,5 5.98942846,3.88071187 5.98942846,2.5 C5.98942846,1.11928813 7.10871658,0 8.48942846,0 Z M3.5,1 L1.5,1 C1.22385763,1 1,1.22385763 1,1.5 L1,1.5 L1,3.5 C1,3.77614237 1.22385763,4 1.5,4 L1.5,4 L3.5,4 C3.77614237,4 4,3.77614237 4,3.5 L4,3.5 L4,1.5 C4,1.22385763 3.77614237,1 3.5,1 L3.5,1 Z M8.48942846,1 C7.66100133,1 6.98942846,1.67157288 6.98942846,2.5 C6.98942846,3.32842712 7.66100133,4 8.48942846,4 C9.31785558,4 9.98942846,3.32842712 9.98942846,2.5 C9.98942846,1.67157288 9.31785558,1 8.48942846,1 Z" id="形状结合"></path>
                            </g>
                        </g>
                    </g>
                </g>
            </g>
        </g>
    </g>
</svg>