<?xml version="1.0" encoding="UTF-8"?>
<svg width="20px" height="20px" viewBox="0 0 20 20" version="1.1" xmlns="http://www.w3.org/2000/svg" xmlns:xlink="http://www.w3.org/1999/xlink">
    <title>Icon</title>
    <defs>
        <rect id="path-1" x="0" y="0" width="20" height="20" rx="6"></rect>
        <mask id="mask-2" maskContentUnits="userSpaceOnUse" maskUnits="objectBoundingBox" x="0" y="0" width="20" height="20" fill="white">
            <use xlink:href="#path-1"></use>
        </mask>
        <linearGradient x1="89.102943%" y1="82.891773%" x2="12.9115271%" y2="15.6287178%" id="linearGradient-3">
            <stop stop-color="#008834" offset="0%"></stop>
            <stop stop-color="#88FF00" offset="100%"></stop>
        </linearGradient>
    </defs>
    <g id="首页" stroke="none" stroke-width="1" fill="none" fill-rule="evenodd">
        <g id="流程引擎" transform="translate(-290.000000, -267.000000)">
            <g id="左侧导航" transform="translate(270.000000, 86.000000)">
                <g id="个人空间" transform="translate(0.000000, 106.000000)">
                    <g id="知识检索" transform="translate(0.000000, 56.000000)">
                        <g id="Icon" transform="translate(20.000000, 19.000000)">
                            <use id="Icon-(Background)" stroke-opacity="0.5" stroke="#3CC000" mask="url(#mask-2)" fill="#EBFFE5" stroke-dasharray="0,0" xlink:href="#path-1"></use>
                            <g id="zhishijiansuo" transform="translate(4.000000, 4.457726)" fill="url(#linearGradient-3)">
                                <path d="M0.513299416,0.000714948855 C-0.027497955,0.000714948855 -0.199569846,0.635208506 0.283870228,0.844805254 C0.484545178,0.943495368 0.663714529,1.07211433 0.81319614,1.22478847 C1.16061748,1.5648485 1.36710375,1.99117114 1.36710375,2.52585672 C1.36710375,3.0605423 1.16061748,3.48615203 0.81319614,3.82549914 C0.635388519,3.99945019 0.460039069,4.11779393 0.339588745,4.17910454 L0.283870228,4.20548236 C-0.199569846,4.41579203 -0.027497955,5.04957267 0.513299416,5.04957267 L10.1215969,5.04957267 C10.201238,5.04962336 10.2797951,5.03351252 10.3510261,5.00252034 C10.5747196,4.90485111 10.8828102,4.71521595 11.1868039,4.41793077 C11.6931869,3.92174255 11.9988193,3.29010065 11.9988193,2.52514381 C11.9988193,1.76018697 11.6931869,1.12783216 11.1876233,0.632356849 C10.8828102,0.334358752 10.5747196,0.144723599 10.3502067,0.0470543659 C10.2789757,0.0160621812 10.2004186,0 10.1207775,0 L0.513299416,0.000714948855 Z M10.0117987,0.906828781 C10.1265133,0.973842708 10.2731841,1.08006691 10.4214936,1.22478847 C10.768915,1.5648485 10.9745819,1.99117114 10.9745819,2.52585672 C10.9745819,3.0605423 10.768915,3.48615203 10.4214936,3.82621206 L10.3329995,3.90891009 C10.2158268,4.01228264 10.1035703,4.09070319 10.0117987,4.14417175 L9.9847588,4.15914103 L1.81367128,4.15914103 L1.89561027,4.05363166 C2.22690405,3.59668972 2.39907761,3.06607433 2.39134119,2.52585672 L2.38560546,2.35119277 C2.36049696,1.87082891 2.1918947,1.40445759 1.89642966,0.998081787 L1.81367128,0.89185567 L9.9847588,0.89185567 L10.0117987,0.906828781 Z M1.87922247,5.95042745 C1.79958138,5.95042745 1.72102427,5.96648963 1.64979328,5.99748182 C1.42528044,6.09515105 1.11718981,6.2847862 0.814015529,6.58207139 C0.306813147,7.07825961 0.00118069342,7.70990151 0.00118069342,8.47485835 C0.00118069342,9.23981518 0.306813147,9.87217 0.81319614,10.3676453 C1.1180092,10.6656434 1.42528044,10.8552786 1.64979328,10.9529478 C1.72102427,10.98394 1.79958138,11.0000508 1.87922247,11.0000001 L11.4867006,11.0000001 C12.027498,11.0000001 12.1995698,10.3655066 11.7161298,10.1559098 C11.5154548,10.0572197 11.3362855,9.92860074 11.1868039,9.77592659 C10.8393825,9.43586656 10.6337156,9.00954393 10.6337156,8.47485835 C10.6337156,7.94017276 10.8393825,7.51456304 11.1868039,7.17450301 C11.3646115,7.00055197 11.5407803,6.88220823 11.6604113,6.82089761 L11.7161298,6.79451979 C12.1995698,6.58421013 12.027498,5.95042745 11.4867006,5.95042745 L1.87922247,5.95042745 Z M10.1035703,6.94779632 C9.77300503,7.40468754 9.60141037,7.93502525 9.6094782,8.47485835 L9.61439454,8.6495223 C9.63974955,9.12995151 9.80863596,9.59632762 10.1043897,10.0026333 L10.1863287,10.1088556 L2.01606059,10.1088556 L1.98820134,10.0938863 C1.83721089,10.0028696 1.69961897,9.89608605 1.57850636,9.77592659 C1.23190441,9.43586656 1.02541814,9.00954393 1.02541814,8.47485835 C1.02541814,7.94017276 1.23190441,7.51456304 1.57850636,7.17450301 L1.66781986,7.09180497 C1.78499263,6.98843243 1.89724905,6.91001188 1.98820134,6.85654332 L2.0152412,6.84085729 L10.1855093,6.84085729 L10.1035703,6.94779632 Z" id="形状"></path>
                            </g>
                        </g>
                    </g>
                </g>
            </g>
        </g>
    </g>
</svg>