<?xml version="1.0" encoding="UTF-8"?>
<svg width="20px" height="20px" viewBox="0 0 20 20" version="1.1" xmlns="http://www.w3.org/2000/svg" xmlns:xlink="http://www.w3.org/1999/xlink">
    <title>切片</title>
    <defs>
        <rect id="path-1" x="0" y="0" width="20" height="20" rx="6"></rect>
        <mask id="mask-2" maskContentUnits="userSpaceOnUse" maskUnits="objectBoundingBox" x="0" y="0" width="20" height="20" fill="white">
            <use xlink:href="#path-1"></use>
        </mask>
        <linearGradient x1="89.0945933%" y1="89.1439265%" x2="12.9194466%" y2="9.0953354%" id="linearGradient-3">
            <stop stop-color="#008834" offset="0%"></stop>
            <stop stop-color="#88FF00" offset="100%"></stop>
        </linearGradient>
    </defs>
    <g id="项目管理" stroke="none" stroke-width="1" fill="none" fill-rule="evenodd">
        <g id="作业流程" transform="translate(-674.000000, -251.000000)">
            <g id="编组-5" transform="translate(309.000000, 233.000000)">
                <g id="编组-3备份" transform="translate(345.000000, 0.000000)">
                    <g id="Icon" transform="translate(20.000000, 18.000000)">
                        <use id="Icon-(Background)" stroke-opacity="0.5" stroke="#3CC000" mask="url(#mask-2)" fill="#EBFFE5" stroke-dasharray="0,0" xlink:href="#path-1"></use>
                        <path d="M10.0436642,3.53424729 C11.9766608,3.53424729 13.5436642,5.10125066 13.5436642,7.03424729 C13.5436642,8.96724391 11.9766608,10.5342473 10.0436642,10.5342473 L10.0439401,10.5342473 C7.07330005,10.5342473 4.66697057,12.6719721 4.54851075,15.3288735 L4.54394007,15.5352473 L9.82091428,15.5353595 C10.0663742,15.5353595 10.2705227,15.7122347 10.3128586,15.9454839 L10.3209143,16.0353595 C10.3209143,16.2808194 10.1440391,16.4849679 9.91078992,16.5273039 L9.82091428,16.5353595 L4.06850936,16.5353595 C3.81135483,16.5353595 3.59613398,16.3403021 3.57091884,16.0843867 C3.55296843,15.9022032 3.54394007,15.7186932 3.54394007,15.5342473 C3.54394007,12.8854905 5.39782861,10.6480897 7.96287195,9.84846584 C7.10206166,9.21162488 6.54366417,8.18814645 6.54366417,7.03424729 C6.54366417,5.10125066 8.11066755,3.53424729 10.0436642,3.53424729 Z M15.5436642,10.5342473 C16.0959489,10.5342473 16.5436642,10.9819625 16.5436642,11.5342473 C16.5436642,11.904335 16.3426229,12.227467 16.0437937,12.4003902 L16.0437937,14.6681044 C16.3426229,14.8410275 16.5436642,15.1641596 16.5436642,15.5342473 C16.5436642,16.086532 16.0959489,16.5342473 15.5436642,16.5342473 C15.1735765,16.5342473 14.8504444,16.3332061 14.6775213,16.0343768 L12.4098071,16.0343768 C12.2368839,16.3332061 11.9137519,16.5342473 11.5436642,16.5342473 C10.9913794,16.5342473 10.5436642,16.086532 10.5436642,15.5342473 C10.5436642,15.1645663 10.7442638,14.8417378 11.0425499,14.668675 L11.0425499,12.3998195 C10.7442638,12.2267568 10.5436642,11.9039283 10.5436642,11.5342473 C10.5436642,10.9819625 10.9913794,10.5342473 11.5436642,10.5342473 C11.9133452,10.5342473 12.2361737,10.7348469 12.4092364,11.033133 L14.6780919,11.033133 C14.8511547,10.7348469 15.1739831,10.5342473 15.5436642,10.5342473 Z M14.6775213,12.0343768 L12.4098071,12.0343768 C12.3222053,12.1857617 12.1960545,12.3120506 12.0447785,12.3998195 L12.0447785,14.668675 C12.1960545,14.7564439 12.3222053,14.8827328 12.4098071,15.0341178 L14.6775213,15.0341178 C14.765313,14.8824045 14.8918213,14.7558962 15.0435347,14.6681044 L15.0435347,12.4003902 C14.8918213,12.3125984 14.765313,12.1860901 14.6775213,12.0343768 Z M10.0436642,4.53424729 C8.6629523,4.53424729 7.54366417,5.65353541 7.54366417,7.03424729 C7.54366417,8.41495916 8.6629523,9.53424729 10.0436642,9.53424729 C11.424376,9.53424729 12.5436642,8.41495916 12.5436642,7.03424729 C12.5436642,5.65353541 11.424376,4.53424729 10.0436642,4.53424729 Z" id="形状结合" fill="url(#linearGradient-3)"></path>
                    </g>
                </g>
            </g>
        </g>
    </g>
</svg>