<?xml version="1.0" encoding="UTF-8"?>
<svg width="16px" height="16px" viewBox="0 0 16 16" version="1.1" xmlns="http://www.w3.org/2000/svg" xmlns:xlink="http://www.w3.org/1999/xlink">
    <title>编辑</title>
    <g id="首页" stroke="none" stroke-width="1" fill="none" fill-rule="evenodd">
        <g id="任务管理" transform="translate(-1801.000000, -324.000000)" fill="currentColor" fill-rule="nonzero">
            <g id="新建浮窗" transform="translate(1791.000000, 312.000000)">
                <g id="任务详情" transform="translate(0.000000, 5.000000)">
                    <g id="编辑" transform="translate(10.000000, 7.000000)">
                        <g id="renwu-2" transform="translate(1.000000, 1.000000)">
                            <path d="M11.99975,0 L2.00024999,0 C0.895548386,0 0,0.895548386 0,2.00024999 L0,11.99975 C0,13.1044516 0.895548386,14 2.00024999,14 L11.99975,14 C13.1044516,14 14,13.1044516 14,11.99975 L14,2.00024999 C14,0.895548386 13.1044516,0 11.99975,0 Z M13.0008073,12.0024597 C13.0010171,12.2675371 12.895716,12.5217984 12.7081508,12.7091094 C12.5205856,12.8964204 12.2661818,13.0013766 12.0011049,13.0008088 L2.00256451,13.0008088 C1.73515322,13.0008088 1.48264515,12.8980645 1.29353227,12.7089516 C1.10441938,12.5198387 0.999193549,12.269871 0.999193549,12.0024597 L0.999193549,2.00120968 C1.00018958,1.44769563 1.44904962,0.99944168 2.00256451,0.999193549 L12.0011049,0.999193549 C12.2665607,0.99946287 12.521033,1.1051925 12.7085216,1.29311514 C12.8960101,1.48103778 13.001151,1.73575392 13.0008073,2.00120968 L13.0008073,12.0024597 Z" id="形状"></path>
                            <path d="M11.377371,4.49919355 L7.37687097,4.49919355 C7.10095129,4.49919355 6.8772742,4.72287064 6.8772742,4.99879032 C6.8772742,5.27471 7.10095129,5.49838709 7.37687097,5.49838709 L11.377371,5.49838709 C11.6532907,5.49838709 11.8769678,5.27471 11.8769678,4.99879032 C11.8769678,4.72287064 11.6532907,4.49919355 11.377371,4.49919355 L11.377371,4.49919355 Z M11.377371,8.50161291 L7.37687097,8.50161291 C7.10095129,8.50161291 6.8772742,8.72529 6.8772742,9.00120968 C6.8772742,9.27712936 7.10095129,9.50080645 7.37687097,9.50080645 L11.377371,9.50080645 C11.6532907,9.50080645 11.8769678,9.27712936 11.8769678,9.00120968 C11.8769678,8.72529 11.6532907,8.50161291 11.377371,8.50161291 Z M4.3765242,7.25183065 C3.40990323,7.25183065 2.6265242,8.0354355 2.6265242,9.00183064 C2.6265242,9.96822579 3.41012904,10.7518307 4.3765242,10.7518307 C5.34291937,10.7518307 6.1265242,9.96822581 6.1265242,9.00183064 C6.1265242,8.03543548 5.34314516,7.25183065 4.3765242,7.25183065 Z M4.90756453,9.53309678 C4.65418029,9.78623762 4.25727069,9.82515364 3.95954478,9.62604779 C3.66181886,9.42694195 3.54618615,9.04526046 3.68335572,8.71440041 C3.82052529,8.38354037 4.17229868,8.19563837 4.52356752,8.26559593 C4.87483636,8.33555348 5.12778069,8.64388909 5.12772819,9.00205645 C5.12822933,9.20139041 5.04894947,9.39263784 4.90756453,9.53315324 L4.90756453,9.53309678 Z M5.52345161,3.64818549 L3.87641935,5.29516129 L3.22959678,4.64828227 C3.03448883,4.45317432 2.71815634,4.45317431 2.52304839,4.64828226 C2.32794044,4.84339021 2.32794044,5.15972269 2.52304838,5.35483065 L3.52314516,6.35498388 C3.61683821,6.44868008 3.74391515,6.50131832 3.87641935,6.50131832 C4.00892356,6.50131832 4.1360005,6.44868008 4.22969355,6.35498388 L6.22994355,4.35473387 C6.42279154,4.15925817 6.42173385,3.84478403 6.22757531,3.65060998 C6.03341677,3.45643593 5.71894272,3.45535311 5.52345161,3.64818549 L5.52345161,3.64818549 Z" id="形状"></path>
                        </g>
                    </g>
                </g>
            </g>
        </g>
    </g>
</svg>