<?xml version="1.0" encoding="UTF-8"?>
<svg width="12px" height="13px" viewBox="0 0 12 13" version="1.1" xmlns="http://www.w3.org/2000/svg" xmlns:xlink="http://www.w3.org/1999/xlink">
    <title>chuangjianshijian备份</title>
    <g id="首页" stroke="none" stroke-width="1" fill="none" fill-rule="evenodd">
        <g id="项目管理" transform="translate(-112.000000, -466.000000)" fill="#7E93A5" fill-rule="nonzero">
            <g id="编组-4" transform="translate(30.000000, 222.000000)">
                <g id="平台项目" transform="translate(42.000000, 111.000000)">
                    <g id="编组-5" transform="translate(20.000000, 88.000000)">
                        <g id="编组-3备份-2" transform="translate(20.000000, 45.680000)">
                            <g id="lianxifangshi-2" transform="translate(1.000000, 0.320000)">
                                <path d="M3.41950404,4.91765892 C3.21823373,4.59289567 3.18436746,4.4279937 3.1854688,4.42727361 C3.22071176,4.39011667 3.34006973,4.2665482 3.35149615,4.25445059 C3.41936637,4.18373717 3.47030345,4.12900988 3.51848718,4.07413857 C4.15616437,3.34856993 4.12808015,2.6276099 3.27343851,1.51059713 C2.78265285,0.869567751 2.26736232,0.600539915 1.73100861,0.709850482 C1.33920609,0.789781128 1.04624903,1.01949172 0.639716058,1.46119855 C0.647563126,1.45270142 0.425229648,1.69753403 0.369336514,1.75629386 C-0.614712837,2.79020757 0.432801365,5.70601994 2.73722248,8.12568621 C5.04164359,10.5453525 7.82335893,11.6468112 8.80906029,10.6108812 C8.8641274,10.5525535 9.09692364,10.3203945 9.08976491,10.3277395 C9.51020234,9.90187479 9.72895645,9.59424981 9.80563741,9.18393917 C9.90971426,8.62226435 9.65420284,8.08262448 9.04337087,7.56732384 C7.97878586,6.66864414 7.28934558,6.6389762 6.59701427,7.31010558 C6.54483818,7.36080034 6.49266208,7.41423144 6.42534253,7.48537692 C6.41322776,7.49819463 6.29621014,7.62291525 6.2613802,7.6593521 C6.2613802,7.6593521 6.1062286,7.6233473 5.79743975,7.41250322 C5.44638688,7.1728553 5.01273335,6.77680256 4.519332,6.25919761 C4.02593064,5.74159266 3.64817023,5.28649205 3.41950404,4.91765892 Z M6.84743197,8.27157764 C6.88529061,8.23182835 7.00396025,8.1053795 7.01400999,8.09472209 C7.07306947,8.03192973 7.1173985,7.98613162 7.15869885,7.94551821 C7.52819919,7.5873425 7.75906807,7.59727983 8.52160995,8.24147763 C8.91465148,8.57272175 9.02891574,8.81424192 8.99091943,9.01918122 C8.95760382,9.1992052 8.81621901,9.39809569 8.51266154,9.70543262 C8.52642832,9.6910307 8.28550969,9.93240685 8.22149416,9.99951979 C7.68637947,10.5611946 5.34175936,9.63342303 3.32272358,7.5144688 C1.3036878,5.39551458 0.419860595,2.93105833 0.95607663,2.36765529 C1.02009215,2.30039833 1.25096103,2.04620447 1.23664359,2.06175854 C1.52946297,1.74333212 1.71848084,1.59499237 1.88960191,1.56013972 C2.08233682,1.52067847 2.31141601,1.64021439 2.62695059,2.05254131 C3.24081126,2.85458414 3.250448,3.09941674 2.90889422,3.48783649 C2.87034723,3.53176234 2.82629354,3.57842455 2.76682106,3.6410729 C2.75732199,3.6508662 2.63644966,3.77616289 2.59886635,3.81562414 C1.96917388,4.47580807 2.56265972,5.4339677 3.93231655,6.87099109 C5.30197338,8.30801449 6.21526148,8.93190559 6.8468813,8.27157764 L6.84743197,8.27157764 Z M8.06427755,4.6967335 C8.25495728,4.66516618 8.39672883,4.49538925 8.40101296,4.29347979 C8.43391556,2.88554827 7.36520052,1.712368 6.01825888,1.67837948 C5.87520183,1.67402298 5.74085328,1.75008265 5.66609414,1.87775292 C5.59133499,2.0054232 5.58759613,2.16518295 5.65629354,2.29652747 C5.72499095,2.427872 5.85562061,2.51071836 5.99871006,2.51369073 C6.90442644,2.5367338 7.62318996,3.3258149 7.60116312,4.27274103 C7.59846607,4.38371507 7.63811116,4.49124678 7.71134177,4.57158505 C7.78457238,4.65192332 7.88536294,4.69845776 7.9914513,4.70091005 C8.0158175,4.70154121 8.04018906,4.69990253 8.06427755,4.69601341 L8.06427755,4.6967335 Z M9.66191224,4.89447184 C9.85250376,4.86269698 9.9942146,4.69306211 9.99878532,4.49121813 C10.0255397,3.32793514 9.60940419,2.20119084 8.84194751,1.35891987 C8.07449083,0.516648896 7.01859698,0.0278654419 5.90661031,0.000123949315 C5.68585192,-0.00544382417 5.50257737,0.177259075 5.49725514,0.408202296 C5.49193291,0.639145518 5.66657842,0.830875561 5.88733681,0.836443335 C6.78735258,0.858823882 7.64198017,1.25443236 8.26309841,1.93618719 C8.88421664,2.61794201 9.22091281,3.52996012 9.19907314,4.4714875 C9.19391685,4.70237898 9.36852078,4.89399733 9.58922365,4.89965653 C9.61355245,4.90019765 9.63787879,4.89846251 9.66191224,4.89447184 L9.66191224,4.89447184 Z" id="形状"></path>
                            </g>
                        </g>
                    </g>
                </g>
            </g>
        </g>
    </g>
</svg>