<?xml version="1.0" encoding="utf-8"?>
<!-- Generator: Adobe Illustrator 27.1.1, SVG Export Plug-In . SVG Version: 6.00 Build 0)  -->
<svg version="1.1" id="图层_1" xmlns="http://www.w3.org/2000/svg" xmlns:xlink="http://www.w3.org/1999/xlink" x="0px" y="0px"
	 viewBox="0 0 40.6 43.4" style="enable-background:new 0 0 40.6 43.4;" xml:space="preserve">
<style type="text/css">
	.st0{fill:#2787BB;}
	.st1{opacity:0.5;fill:#B4DCED;}
	.st2{fill:none;stroke:#000000;stroke-width:1.7;stroke-miterlimit:10;}
	.st3{clip-path:url(#SVGID_00000132054003164366088990000003235217011853886090_);}
	.st4{fill:none;stroke:#2787BB;stroke-width:1.7;stroke-miterlimit:10;}
	.st5{fill:#FFFFFF;}
</style>
<g>
	<path class="st1" d="M27.9,26V32l0,0.1C27.9,32.6,27.5,33,27,33h-9.6c0.7-2.3,2.2-4.3,4.2-5.6h4.5c0.5,0,0.9-0.4,0.9-0.9
		c0-0.2-0.1-0.4-0.2-0.6C27.2,25.9,27.6,25.9,27.9,26z"/>
	<path class="st1" d="M26.1,27.4h-4.5c1.5-1,3.3-1.5,5.2-1.5c0,0,0,0,0,0c0.1,0.2,0.2,0.4,0.2,0.6C27,27,26.6,27.4,26.1,27.4z"/>
	<g>
		<g>
			<path class="st0" d="M26.8,25.9c-0.2-0.2-0.4-0.3-0.7-0.3h-5.6c-0.5,0-0.9,0.4-0.9,0.9c0,0.5,0.4,0.9,0.9,0.9h5.6
				c0.5,0,0.9-0.4,0.9-0.9C27,26.2,26.9,26,26.8,25.9z M26.1,25.6h-5.6c-0.5,0-0.9,0.4-0.9,0.9c0,0.5,0.4,0.9,0.9,0.9h5.6
				c0.5,0,0.9-0.4,0.9-0.9c0-0.2-0.1-0.4-0.2-0.6C26.6,25.7,26.4,25.6,26.1,25.6z M20.5,20.1h5.6c0.5,0,0.9-0.4,0.9-0.9
				c0-0.5-0.4-0.9-0.9-0.9h-5.6c-0.5,0-0.9,0.4-0.9,0.9C19.6,19.7,20,20.1,20.5,20.1z M26.1,21.9h-5.6c-0.5,0-0.9,0.4-0.9,0.9
				c0,0.5,0.4,0.9,0.9,0.9h5.6c0.5,0,0.9-0.4,0.9-0.9C27,22.3,26.6,21.9,26.1,21.9z M27,10.9h-14c-1.4,0.1-2.6,1.3-2.6,2.7v3.7H8.7
				c-1,0-1.8,0.8-1.8,1.8v7.3c0,0.5,0.2,1,0.5,1.3c0.3,0.4,0.8,0.5,1.3,0.5h1.8V32l0,0.2c0.1,1.5,1.3,2.6,2.7,2.6H27l0.2,0
				c1.4-0.1,2.6-1.3,2.6-2.7V13.4C29.7,12,28.5,10.9,27,10.9z M27.9,32L27.9,32C27.9,32.6,27.5,33,27,33H13.2l-0.1,0
				c-0.5,0-0.8-0.4-0.8-0.9v-3.7H16c0.5,0,1-0.2,1.3-0.5c0.3-0.3,0.5-0.8,0.5-1.3v-7.3c0-1-0.8-1.8-1.8-1.8h-3.7v-3.7l0-0.1
				c0-0.5,0.4-0.8,0.9-0.8H27l0.1,0c0.5,0.1,0.8,0.4,0.8,0.9V32z M26.1,25.6h-5.6c-0.5,0-0.9,0.4-0.9,0.9c0,0.5,0.4,0.9,0.9,0.9h5.6
				c0.5,0,0.9-0.4,0.9-0.9c0-0.2-0.1-0.4-0.2-0.6C26.6,25.7,26.4,25.6,26.1,25.6z M26.1,18.3h-5.6c-0.5,0-0.9,0.4-0.9,0.9
				c0,0.5,0.4,0.9,0.9,0.9h5.6c0.5,0,0.9-0.4,0.9-0.9C27,18.7,26.6,18.3,26.1,18.3z M26.1,21.9h-5.6c-0.5,0-0.9,0.4-0.9,0.9
				c0,0.5,0.4,0.9,0.9,0.9h5.6c0.5,0,0.9-0.4,0.9-0.9C27,22.3,26.6,21.9,26.1,21.9z M26.1,21.9h-5.6c-0.5,0-0.9,0.4-0.9,0.9
				c0,0.5,0.4,0.9,0.9,0.9h5.6c0.5,0,0.9-0.4,0.9-0.9C27,22.3,26.6,21.9,26.1,21.9z M26.1,18.3h-5.6c-0.5,0-0.9,0.4-0.9,0.9
				c0,0.5,0.4,0.9,0.9,0.9h5.6c0.5,0,0.9-0.4,0.9-0.9C27,18.7,26.6,18.3,26.1,18.3z"/>
			<g>
				<path class="st5" d="M10.1,19.4h2.5c1.8,0,3.1,0.6,3.1,2.2c0,1.6-1.3,2.3-3,2.3h-1.2v2.7h-1.3V19.4z M12.5,23
					c1.3,0,1.9-0.4,1.9-1.4s-0.7-1.3-2-1.3h-1.1V23H12.5z"/>
			</g>
		</g>
	</g>
</g>
</svg>
