<?xml version="1.0" encoding="UTF-8"?>
<svg width="16px" height="16px" viewBox="0 0 16 16" version="1.1" xmlns="http://www.w3.org/2000/svg" xmlns:xlink="http://www.w3.org/1999/xlink">
    <title>编辑备份 2</title>
    <g id="首页" stroke="none" stroke-width="1" fill="none" fill-rule="evenodd">
        <g id="任务管理" transform="translate(-1801.000000, -354.000000)" fill="currentColor" fill-rule="nonzero">
            <g id="新建浮窗" transform="translate(1791.000000, 312.000000)">
                <g id="人员配置" transform="translate(0.000000, 35.000000)">
                    <g id="编辑备份-2" transform="translate(10.000000, 7.000000)">
                        <g id="fuzeren" transform="translate(2.000000, 2.000000)">
                            <path d="M5.9995766,0 C7.38882923,0 8.6259104,0.879197237 9.08275982,2.19118485 C9.53960924,3.50317246 9.11615223,4.96057144 8.02737592,5.82346716 C10.410815,6.67874924 12.0004855,8.93857499 12,11.4708248 C12,11.7630802 11.7630801,12 11.4708247,12 C11.1785693,12 10.9416495,11.7630802 10.9416495,11.4708248 C10.9062551,8.76685269 8.70420368,6.59343706 6,6.59343706 C3.29579621,6.59343706 1.09374483,8.76685269 1.05835037,11.4708248 C1.05835037,11.7630802 0.821430573,12 0.529175187,12 C0.236919801,12 0,11.7630802 0,11.4708248 C0,8.93835167 1.5893995,6.67831407 3.97262397,5.8217738 C2.88526653,4.95852468 2.46279643,3.5020096 2.91947095,2.19090563 C3.37614547,0.879801657 4.61206297,0.000924502618 6.00042328,0 L5.9995766,0 Z M6.5541522,6.95547873 C6.75650879,7.23742327 6.85726375,7.41099273 6.85726375,7.4770338 C6.84964363,7.58286884 6.63458683,8.05277641 6.43646364,8.32710083 C6.60410634,9.13314048 6.80307621,9.73259014 6.80307621,10.4353348 C6.80307621,10.675792 6.30776823,11.1761801 6.15959918,11.1888803 L6.14351226,11.1888803 C5.9953432,11.1753334 5.50003523,10.675792 5.50003523,10.4353348 C5.50003523,9.73259014 5.6990051,9.13314048 5.86749448,8.32710083 C5.67021797,8.05446977 5.45431449,7.5845622 5.44669437,7.4770338 C5.44669437,7.41099273 5.54744932,7.23742327 5.74811256,6.95547873 L6.5541522,6.95547873 Z M6.00042328,1.05835038 C5.20198451,1.0427075 4.45741037,1.4597188 4.05360691,2.14869773 C3.64980345,2.83767665 3.64980345,3.6910752 4.05360691,4.38005413 C4.45741037,5.06903305 5.20198451,5.48604436 6.00042328,5.47040147 C7.20193523,5.44686163 8.16365204,4.46611845 8.16365204,3.26437593 C8.16365204,2.0626334 7.20193523,1.08189022 6.00042328,1.05835038 L6.00042328,1.05835038 Z" id="形状"></path>
                        </g>
                    </g>
                </g>
            </g>
        </g>
    </g>
</svg>