<?xml version="1.0" encoding="UTF-8"?>
<svg width="22px" height="22px" viewBox="0 0 22 22" version="1.1" xmlns="http://www.w3.org/2000/svg" xmlns:xlink="http://www.w3.org/1999/xlink">
    <title>Icon</title>
    <defs>
        <linearGradient x1="7.98611111%" y1="-2.17418676e-13%" x2="92.0138889%" y2="100%" id="linearGradient-1">
            <stop stop-color="#FF72B0" offset="0%"></stop>
            <stop stop-color="#FF2046" offset="100%"></stop>
        </linearGradient>
    </defs>
    <g id="首页" stroke="none" stroke-width="1" fill="none" fill-rule="evenodd">
        <g id="流程引擎" transform="translate(-289.000000, -322.000000)">
            <g id="左侧导航" transform="translate(270.000000, 86.000000)">
                <g id="个人空间" transform="translate(0.000000, 106.000000)">
                    <g id="直接回复" transform="translate(0.000000, 112.000000)">
                        <g id="Icon" transform="translate(20.000000, 19.000000)">
                            <path d="M6,0 L14,0 C17.3137085,-6.08718376e-16 20,2.6862915 20,6 L20,14 C20,17.3137085 17.3137085,20 14,20 L6,20 C2.6862915,20 2.02906125e-16,17.3137085 0,14 L0,6 C-4.05812251e-16,2.6862915 2.6862915,4.05812251e-16 6,0 Z" id="Icon-(Background)" stroke-opacity="0.5" stroke="#FF4373" stroke-width="0.5" fill="#FFE5EA" stroke-dasharray="0,0"></path>
                            <g id="jieshu" transform="translate(4.553131, 4.000000)" fill="url(#linearGradient-1)" fill-rule="nonzero">
                                <path d="M10.0587039,10.2098619 L10.0587039,11.0108118 L0.942029477,11.0108118 L0.942029477,10.2098619 C0.942029477,9.15167802 1.7043803,8.02562341 3.27345156,6.76795201 C3.38669235,6.67727434 3.45260619,6.53817745 3.45203014,6.39110056 L3.45203014,6.25648397 C3.45260619,6.10940708 3.38669235,5.97031018 3.27345156,5.87963252 C1.70438029,4.62233611 0.942029477,3.49628148 0.942029477,2.43772264 L0.942029477,0.989188171 L10.0587039,0.989188171 L10.0587039,2.43772264 C10.0587039,3.49628148 9.29635308,4.6223361 7.72728182,5.87963252 C7.61460245,5.97081012 7.54872359,6.10954832 7.54833655,6.25648397 L7.54833655,6.39110056 C7.54833655,6.53734142 7.61544103,6.6783326 7.72728182,6.76795201 C9.29635309,8.0256234 10.0587039,9.15130305 10.0587039,10.2098619 Z M9.10017334,2.43772264 L9.10017334,0.989188171 L1.90056004,0.989188171 L1.90056004,2.43772264 C1.90056004,2.93419161 2.24048271,3.79888756 3.86162411,5.09818136 C4.20985978,5.37675186 4.41251395,5.8043693 4.4105607,6.25648397 L4.4105607,6.39110056 C4.41251395,6.84321522 4.20985978,7.27083267 3.86162411,7.54940317 C2.24048271,8.84832199 1.90056004,9.71301794 1.90056004,10.2098619 L1.90056004,11.0108118 L9.10017334,11.0108118 L9.10017334,10.2098619 C9.10017334,9.71339291 8.75988398,8.84869696 7.13910927,7.54940317 C6.79051372,7.2710924 6.58766224,6.84334435 6.58980599,6.39110056 L6.58980599,6.25648397 C6.58980599,5.80051247 6.78965265,5.37828885 7.13910927,5.09818136 C8.75988398,3.79963752 9.10017334,2.93456659 9.10017334,2.43772264 Z M3.5,9 L7.5,9 C7.77614237,9 8,9.22385763 8,9.5 C8,9.77614237 7.77614237,10 7.5,10 L3.5,10 C3.22385763,10 3,9.77614237 3,9.5 C3,9.22385763 3.22385763,9 3.5,9 Z M0.5,0 L10.5,0 C10.7761424,-5.07265313e-17 11,0.223857625 11,0.5 C11,0.776142375 10.7761424,1 10.5,1 L0.5,1 C0.223857625,1 2.38953449e-16,0.776142375 0,0.5 C-3.38176876e-17,0.223857625 0.223857625,3.38176876e-17 0.5,0 Z M0.5,11 L10.5,11 C10.7761424,11 11,11.2238576 11,11.5 C11,11.7761424 10.7761424,12 10.5,12 L0.5,12 C0.223857625,12 2.38953449e-16,11.7761424 0,11.5 C-3.38176876e-17,11.2238576 0.223857625,11 0.5,11 Z" id="形状"></path>
                            </g>
                        </g>
                    </g>
                </g>
            </g>
        </g>
    </g>
</svg>