<?xml version="1.0" encoding="UTF-8"?>
<svg width="22px" height="22px" viewBox="0 0 22 22" version="1.1" xmlns="http://www.w3.org/2000/svg" xmlns:xlink="http://www.w3.org/1999/xlink">
    <title>Icon</title>
    <defs>
        <linearGradient x1="3.26590606e-13%" y1="7.98611111%" x2="100%" y2="81.8176696%" id="linearGradient-1">
            <stop stop-color="#A694FF" offset="0%"></stop>
            <stop stop-color="#552FFF" offset="100%"></stop>
        </linearGradient>
    </defs>
    <g id="首页" stroke="none" stroke-width="1" fill="none" fill-rule="evenodd">
        <g id="流程引擎" transform="translate(-289.000000, -434.000000)">
            <g id="左侧导航" transform="translate(270.000000, 86.000000)">
                <g id="个人空间" transform="translate(0.000000, 106.000000)">
                    <g id="条件分支" transform="translate(0.000000, 224.000000)">
                        <g id="Icon" transform="translate(20.000000, 19.000000)">
                            <path d="M6,0 L14,0 C17.3137085,-6.08718376e-16 20,2.6862915 20,6 L20,14 C20,17.3137085 17.3137085,20 14,20 L6,20 C2.6862915,20 2.02906125e-16,17.3137085 0,14 L0,6 C-4.05812251e-16,2.6862915 2.6862915,4.05812251e-16 6,0 Z" id="Icon-(Background)" stroke-opacity="0.5" stroke="#8770FF" stroke-width="0.5" fill="#E4DFFF" stroke-dasharray="0,0"></path>
                            <g id="tiaojianfenzhi" transform="translate(4.000000, 4.642179)" fill="url(#linearGradient-1)" fill-rule="nonzero">
                                <path d="M6.01990636,2.55401066 C6.35289951,3.0472186 6.56158272,3.63647539 6.56158272,4.32178105 L6.56158272,6.67880823 C6.56158272,7.655796 7.31587971,8.44657862 8.24904802,8.44657862 L8.33567124,8.44657862 C8.61336051,7.52166364 9.49379814,6.94743781 10.4086144,7.09459471 C11.3234307,7.24175161 11.9988478,8.06625147 11.9988478,9.03583542 C11.9988478,10.0054194 11.3234307,10.8299192 10.4086144,10.9770761 C9.49379814,11.124233 8.61336051,10.5500072 8.33567124,9.62509221 L8.24904802,9.62509221 C6.69489249,9.62509221 5.43660586,8.3063355 5.43660586,6.67880823 L5.43660586,4.32178105 C5.43660586,3.34420402 4.68174638,2.55401066 3.74914055,2.55401066 L3.66195485,2.55401066 C3.37316791,3.5145158 2.43753137,4.09041227 1.4960385,3.88716038 C0.554545635,3.68390848 -0.0875165837,2.76741435 0.00972090488,1.76555703 C0.106958394,0.763699701 0.911965517,0.00133983881 1.87324163,0.000760958966 C2.71303687,0.000760958966 3.42289727,0.578232619 3.66195485,1.37549707 L8.33567124,1.37549707 C8.61337057,0.450243624 9.4940715,-0.124244506 10.409202,0.022916657 C11.3243326,0.17007782 12,0.994843887 12,1.96475386 C12,2.93466384 11.3243326,3.7594299 10.409202,3.90659107 C9.4940715,4.05375223 8.61337057,3.4792641 8.33567124,2.55401066 L6.01990636,2.55401066 Z M10.1241032,2.75052779 C10.53836,2.75052779 10.8741815,2.39872482 10.8741815,1.96475385 C10.8741815,1.53078289 10.53836,1.17897992 10.1241032,1.17897992 C9.70984639,1.17897992 9.37402489,1.53078289 9.37402489,1.96475385 C9.37402489,2.39872482 9.70984639,2.75052779 10.1241032,2.75052779 Z M10.873619,9.03583541 C10.8812912,8.7501951 10.7402816,8.48272363 10.5054124,8.33740967 C10.2705432,8.19209571 9.97887138,8.1918664 9.74379427,8.3368109 C9.50871715,8.4817554 9.36732444,8.74900484 9.37458737,9.03465689 C9.38540051,9.45993914 9.71744923,9.79890225 10.1235559,9.79922176 C10.5296626,9.7995408 10.8621966,9.46110018 10.873619,9.03583541 Z M1.49271149,2.66289662 C1.72768581,2.80802771 2.01935994,2.80802771 2.25433426,2.66289662 C2.48930859,2.51776553 2.63050913,2.25040196 2.62303871,1.96475385 C2.61191682,1.53948348 2.27962668,1.20078633 1.87352288,1.20078633 C1.46741907,1.20078633 1.13512893,1.53948348 1.12400704,1.96475385 C1.11653662,2.25040196 1.25773716,2.51776553 1.49271149,2.66289662 Z" id="形状"></path>
                            </g>
                        </g>
                    </g>
                </g>
            </g>
        </g>
    </g>
</svg>