<?xml version="1.0" encoding="UTF-8"?>
<svg width="141px" height="35px" viewBox="0 0 141 35" version="1.1" xmlns="http://www.w3.org/2000/svg" xmlns:xlink="http://www.w3.org/1999/xlink">
    <title>项目管理备份</title>
    <defs>
        <linearGradient x1="9.69095375%" y1="47.4080974%" x2="72.747441%" y2="51.2657898%" id="linearGradient-1">
            <stop stop-color="#00DAFF" offset="0%"></stop>
            <stop stop-color="#1960F6" offset="100%"></stop>
        </linearGradient>
        <path d="M23.868,13.212 L23.868,20.592 C23.868,20.88 23.862,21.162 23.85,21.438 C23.838,21.714 23.82,21.984 23.796,22.248 C24.324,22.608 25.008,23.058 25.848,23.598 C26.688,24.138 27.552,24.69 28.44,25.254 C29.328,25.818 30.174,26.364 30.978,26.892 C31.782,27.42 32.424,27.84 32.904,28.152 L30.204,32.04 C29.772,31.704 29.256,31.308 28.656,30.852 C28.056,30.396 27.426,29.922 26.766,29.43 C26.106,28.938 25.434,28.446 24.75,27.954 C24.066,27.462 23.436,27.012 22.86,26.604 C22.116,28.428 21.006,29.718 19.53,30.474 C18.054,31.23 16.332,31.608 14.364,31.608 L11.376,31.608 L11.376,27.252 L13.788,27.252 C14.676,27.252 15.48,27.138 16.2,26.91 C16.92,26.682 17.52,26.31 18,25.794 C18.48,25.278 18.852,24.594 19.116,23.742 C19.38,22.89 19.512,21.84 19.512,20.592 L19.512,13.212 L23.868,13.212 Z M81,0 L81,1.512 L81,1.512 C81,1.656 80.988,1.788 80.964,1.908 L88.38,1.908 L88.38,4.248 C89.076,4.128 89.58,3.798 89.892,3.258 C90.204,2.718 90.36,2.004 90.36,1.116 L90.36,0.036 L94.896,0.036 L94.896,1.53 L94.896,1.53 C94.896,1.662 94.884,1.788 94.86,1.908 L104.4,1.908 L104.4,5.256 L99.324,5.256 C99.564,5.52 99.786,5.76 99.99,5.976 C100.194,6.192 100.356,6.384 100.476,6.552 L97.2,8.424 C96.936,8.088 96.54,7.608 96.012,6.984 C95.484,6.36 94.98,5.784 94.5,5.256 L93.96,5.256 C93.552,5.952 93.042,6.51 92.43,6.93 C91.818,7.35 91.116,7.656 90.324,7.848 L90.972,8.82 L100.044,8.82 C101.412,8.82 102.426,9.12 103.086,9.72 C103.746,10.32 104.076,11.112 104.076,12.096 L104.076,14.616 L99.972,14.616 C100.428,15.216 100.656,16.116 100.656,17.316 L100.656,21.996 L95.976,21.996 L95.976,21.636 L81.36,21.636 L81.36,22.86 L97.956,22.86 C99.276,22.86 100.188,23.172 100.692,23.796 C101.196,24.42 101.448,25.356 101.448,26.604 L101.448,32.004 L96.768,32.004 L96.768,31.212 L81.36,31.212 L81.36,32.004 L76.572,32.004 L76.572,14.976 L73.548,14.976 L73.548,8.244 L78.372,8.244 L78.372,8.82 L86.328,8.82 C86.208,8.628 86.094,8.442 85.986,8.262 C85.878,8.082 85.788,7.908 85.716,7.74 L87.12,7.236 L87.12,5.256 L84.636,5.256 L85.824,6.552 L82.368,8.712 L79.704,5.76 C79.128,6.528 78.396,7.092 77.508,7.452 C76.62,7.812 75.612,7.992 74.484,7.992 L73.332,7.992 L73.332,4.248 L74.016,4.248 C74.856,4.248 75.474,3.966 75.87,3.402 C76.266,2.838 76.464,2.064 76.464,1.08 L76.464,0 L81,0 Z M44.856,0.36 L44.856,1.296 L61.164,1.296 C62.604,1.296 63.708,1.608 64.476,2.232 C65.244,2.856 65.628,3.828 65.628,5.148 L65.628,31.86 L60.912,31.86 L60.912,30.852 L44.856,30.852 L44.856,31.86 L40.068,31.86 L40.068,0.36 L44.856,0.36 Z M124.596,0.576 L124.596,1.476 L135.432,1.476 C136.728,1.476 137.718,1.776 138.402,2.376 C139.086,2.976 139.428,3.924 139.428,5.22 L139.428,19.548 L135.576,19.548 L135.576,18.612 L132.192,18.612 L132.192,21.024 L139.356,21.024 L139.356,24.876 L132.192,24.876 L132.192,27.36 L140.724,27.36 L140.724,31.176 L119.448,31.176 L119.448,27.612 C118.992,27.708 118.452,27.828 117.828,27.972 C117.204,28.116 116.544,28.272 115.848,28.44 C115.152,28.608 114.444,28.782 113.724,28.962 C113.004,29.142 112.338,29.31 111.726,29.466 C111.114,29.622 110.574,29.766 110.106,29.898 C109.638,30.03 109.308,30.132 109.116,30.204 L108.324,26.1 C108.564,26.052 109.092,25.938 109.908,25.758 C110.724,25.578 111.66,25.356 112.716,25.092 L112.716,16.884 L109.404,16.884 L109.404,12.78 L112.716,12.78 L112.716,6.3 L109.152,6.3 L109.152,2.088 L120.024,2.088 L120.024,6.3 L116.928,6.3 L116.928,12.78 L119.772,12.78 L119.772,16.884 L116.928,16.884 L116.928,24.084 L119.952,23.256 L120.528,27.36 L128.088,27.36 L128.088,24.876 L121.032,24.876 L121.032,21.024 L128.088,21.024 L128.088,18.612 L124.596,18.612 L124.596,19.548 L120.744,19.548 L120.744,0.576 L124.596,0.576 Z M11.808,2.196 L11.808,6.516 L8.46,6.516 L8.46,21.564 L11.7,20.736 L12.384,25.056 C12.144,25.104 11.724,25.194 11.124,25.326 C10.524,25.458 9.84,25.614 9.072,25.794 C8.304,25.974 7.488,26.166 6.624,26.37 C5.76,26.574 4.932,26.772 4.14,26.964 C3.348,27.156 2.646,27.33 2.034,27.486 C1.422,27.642 0.972,27.756 0.684,27.828 L0,23.436 C0.288,23.388 0.798,23.292 1.53,23.148 C2.262,23.004 3.084,22.824 3.996,22.608 L3.996,6.516 L1.008,6.516 L1.008,2.196 L11.808,2.196 Z M96.768,26.316 L81.36,26.316 L81.36,27.72 L96.768,27.72 L96.768,26.316 Z M60.912,21.924 L44.856,21.924 L44.856,26.496 L60.912,26.496 L60.912,21.924 Z M32.508,1.404 L32.508,5.544 L24.624,5.544 C24.544,5.832 24.4613333,6.128 24.376,6.432 L24.246,6.894 C24.114,7.362 23.988,7.812 23.868,8.244 L27.144,8.244 C28.44,8.244 29.43,8.532 30.114,9.108 C30.798,9.684 31.14,10.74 31.14,12.276 L31.14,23.976 L26.82,23.976 L26.82,12.24 L16.632,12.24 L16.632,23.976 L12.384,23.976 L12.384,7.308 L16.632,7.308 L16.632,8.244 L19.188,8.244 C19.268,7.956 19.348,7.66 19.428,7.356 L19.548,6.894 C19.668,6.426 19.788,5.976 19.908,5.544 L12.672,5.544 L12.672,1.404 L32.508,1.404 Z M95.976,17.064 L81.36,17.064 L81.36,18.108 L95.976,18.108 L95.976,17.064 Z M60.912,13.644 L44.856,13.644 L44.856,17.532 L60.912,17.532 L60.912,13.644 Z M128.088,11.988 L124.596,11.988 L124.596,14.76 L128.088,14.76 L128.088,11.988 Z M135.576,11.988 L132.192,11.988 L132.192,14.76 L135.576,14.76 L135.576,11.988 Z M99.252,12.456 L78.372,12.456 L78.372,13.608 L97.164,13.608 C98.004,13.608 98.7,13.752 99.252,14.04 L99.252,12.456 Z M60.912,5.688 L44.856,5.688 L44.856,9.252 L60.912,9.252 L60.912,5.688 Z M128.088,5.4 L124.596,5.4 L124.596,8.136 L128.088,8.136 L128.088,5.4 Z M135.576,5.4 L132.192,5.4 L132.192,8.136 L135.576,8.136 L135.576,5.4 Z" id="path-2"></path>
        <filter x="-0.7%" y="-3.1%" width="101.4%" height="112.5%" filterUnits="objectBoundingBox" id="filter-3">
            <feOffset dx="0" dy="2" in="SourceAlpha" result="shadowOffsetOuter1"></feOffset>
            <feColorMatrix values="0 0 0 0 0.729192073   0 0 0 0 0.930004791   0 0 0 0 1  0 0 0 0.708615603 0" type="matrix" in="shadowOffsetOuter1"></feColorMatrix>
        </filter>
    </defs>
    <g id="项目管理" stroke="none" stroke-width="1" fill="none" fill-rule="evenodd">
        <g transform="translate(-201.000000, -115.000000)" fill-rule="nonzero" id="编组-2">
            <g id="形状结合" transform="translate(201.188000, 115.524000)">
                <use fill="black" fill-opacity="1" filter="url(#filter-3)" xlink:href="#path-2"></use>
                <use fill="#333333" xlink:href="#path-2"></use>
                <use fill="url(#linearGradient-1)" xlink:href="#path-2"></use>
            </g>
        </g>
    </g>
</svg>