<svg xmlns="http://www.w3.org/2000/svg" xmlns:xlink="http://www.w3.org/1999/xlink" fill="none" width="24" height="24"
     viewBox="0 0 24 24" class="h-6 w-6">
    <defs>
        <clipPath id="master_svg0_1310_2175">
            <rect x="2" y="2" width="20" height="20" rx="0"></rect>
        </clipPath>
    </defs>
    <g>
        <g>
            <rect x="0" y="0" width="24" height="24" rx="4" fill="#F15E73" fill-opacity="1"></rect>
        </g>
        <g clip-path="url(#master_svg0_1310_2175)">
            <g>
                <path d="M12.809939904632568,18.531223046875L12.809939904632568,20.424023046875L11.442979904632569,20.424023046875L11.442979904632569,18.583123046875002C8.455719904632568,18.353523046875,6.099999904632568,15.900223046875,6.099999904632568,13.130813046875C6.1001841856325685,12.753473046875,6.4061339046325685,12.447673046875,6.783477904632568,12.447673046875C7.160819904632568,12.447673046875,7.466769904632568,12.753473046875,7.466959904632568,13.130813046875C7.466959904632568,15.281523046875,9.449959904632568,17.233523046875,11.90045990463257,17.233523046875C14.350949904632568,17.233523046875,16.33299990463257,15.280623046875,16.33299990463257,13.130813046875C16.33299990463257,12.753343046875,16.63899990463257,12.447333046875,17.016499904632568,12.447333046875C17.39399990463257,12.447333046875,17.69999990463257,12.753343046875,17.69999990463257,13.130813046875C17.69999990463257,15.759023046875,15.579389904632569,18.102923046875,12.809939904632568,18.531223046875ZM11.925059904632569,4.651123046875C13.434959904632567,4.651123085984,14.658979904632568,5.875143046875,14.658979904632568,7.385033046875L14.658979904632568,12.852863046875C14.658979904632568,14.362763046875,13.434959904632567,15.586823046875,11.925059904632569,15.586823046875C10.415159904632567,15.586823046875,9.191149904632567,14.362763046875,9.191149904632567,12.852863046875L9.191149904632567,7.385033046875C9.191149904632567,5.875143046875,10.415159904632567,4.651123085984,11.925059904632569,4.651123046875Z"
                      fill="#fff" fill-opacity="1"></path>
            </g>
        </g>
    </g>
</svg>