<?xml version="1.0" encoding="UTF-8"?>
<svg width="24px" height="24px" viewBox="0 0 24 24" version="1.1" xmlns="http://www.w3.org/2000/svg" xmlns:xlink="http://www.w3.org/1999/xlink">
    <title>Iconly/Two-tone/Bag</title>
    <g id="项目管理" stroke="none" stroke-width="1" fill="none" fill-rule="evenodd">
        <g id="标注工具" transform="translate(-415.000000, -294.000000)" fill="currentColor" fill-rule="nonzero">
            <g id="编组-7备份-10" transform="translate(218.000000, 86.000000)">
                <g id="编组-5" transform="translate(0.000000, 62.000000)">
                    <g id="编组备份-2" transform="translate(182.000000, 134.000000)">
                        <g id="Iconly/Two-tone/Bag" transform="translate(15.000000, 12.000000)">
                            <g id="形状结合" transform="translate(0.000000, 2.536110)">
                                <path d="M22,0 C23.1045695,0 24,0.8954305 24,2 C24,2.7398375 23.5982846,3.38584934 23.0010775,3.73181186 L23.0010775,15.2681881 C23.5982846,15.6141507 24,16.2601625 24,17 C24,18.1045695 23.1045695,19 22,19 C21.2609924,19 20.6156,18.5991853 20.2693535,18.0030864 L3.73064652,18.0030864 C3.38439995,18.5991853 2.73900762,19 2,19 C0.8954305,19 0,18.1045695 0,17 C0,16.2597476 0.40216612,15.6134261 0.999927519,15.2676063 L0.999927519,3.73239368 C0.40216612,3.38657394 0,2.74025244 0,2 C0,0.8954305 0.8954305,0 2,0 C2.74108232,0 3.38802298,0.403068343 3.73355562,1.00193866 L20.2664444,1.00193866 C20.611977,0.403068343 21.2589177,0 22,0 Z M20.0849843,2.57864231 L3.9150157,2.57864231 C3.72590043,3.2053689 3.23754009,3.70230531 2.61606868,3.90331753 L2.61606868,15.0966825 C3.23950628,15.2983306 3.72898921,15.7977784 3.91680165,16.42731 L20.0831983,16.42731 C20.2710108,15.7977784 20.7604937,15.2983306 21.3839313,15.0966825 L21.3839313,3.90331753 C20.7624599,3.70230531 20.2740996,3.2053689 20.0849843,2.57864231 Z"></path>
                            </g>
                        </g>
                    </g>
                </g>
            </g>
        </g>
    </g>
</svg>
