<?xml version="1.0" encoding="UTF-8"?>
<svg width="16px" height="16px" viewBox="0 0 16 16" version="1.1" xmlns="http://www.w3.org/2000/svg" xmlns:xlink="http://www.w3.org/1999/xlink">
    <title>编辑备份 2</title>
    <g id="用户管理" stroke="none" stroke-width="1" fill="none" fill-rule="evenodd">
        <g transform="translate(-1771.000000, -467.000000)" fill="#333333" fill-rule="nonzero" id="编组-4">
            <g transform="translate(30.000000, 222.000000)">
                <g id="新建浮窗" transform="translate(1731.000000, 203.000000)">
                    <g id="人员配置" transform="translate(0.000000, 35.000000)">
                        <g id="编辑备份-2" transform="translate(10.000000, 7.000000)">
                            <g id="fuzeren" transform="translate(1.500000, 2.262318)">
                                <path d="M6,0 C7.65685425,0 9,1.34314575 9,3 C9,3.9306787 8.57620671,4.76237518 7.91107113,5.3126384 C8.2475784,5.42385498 8.57346891,5.56677035 8.88544913,5.73820055 C9.24568101,5.58537277 9.64345838,5.5 10.0611756,5.5 C11.7180299,5.5 13.0611756,6.84314575 13.0611756,8.5 C13.0611756,10.1568542 11.7180299,11.5 10.0611756,11.5 C8.40432138,11.5 7.06117563,10.1568542 7.06117563,8.5 C7.06117563,7.67601088 7.39337399,6.92961084 7.93114807,6.38742254 C7.3262645,6.13294391 6.67315461,6 6,6 C3.23857625,6 1,8.23857625 1,11 C1,11.2761424 0.776142375,11.5 0.5,11.5 C0.223857625,11.5 0,11.2761424 0,11 C0,8.3545438 1.71208643,6.10896682 4.08867568,5.31085265 C3.42336228,4.76152907 3,3.93020531 3,3 C3,1.34314575 4.34314575,0 6,0 Z M10.0611756,6.5 C8.95660613,6.5 8.06117563,7.3954305 8.06117563,8.5 C8.06117563,9.6045695 8.95660613,10.5 10.0611756,10.5 C11.1657451,10.5 12.0611756,9.6045695 12.0611756,8.5 C12.0611756,7.3954305 11.1657451,6.5 10.0611756,6.5 Z M11.0494909,7.96901041 C11.3256333,7.96901041 11.5494909,8.19286803 11.5494909,8.46901041 C11.5494909,8.74515278 11.3256333,8.96901041 11.0494909,8.96901041 L9.04949091,8.96901041 C8.77334854,8.96901041 8.54949091,8.74515278 8.54949091,8.46901041 C8.54949091,8.19286803 8.77334854,7.96901041 9.04949091,7.96901041 L11.0494909,7.96901041 Z M6,1 C4.8954305,1 4,1.8954305 4,3 C4,4.1045695 4.8954305,5 6,5 C7.1045695,5 8,4.1045695 8,3 C8,1.8954305 7.1045695,1 6,1 Z" id="形状结合"></path>
                            </g>
                        </g>
                    </g>
                </g>
            </g>
        </g>
    </g>
</svg>