<?xml version="1.0" encoding="UTF-8"?>
<svg width="36px" height="36px" viewBox="0 0 36 36" version="1.1" xmlns="http://www.w3.org/2000/svg" xmlns:xlink="http://www.w3.org/1999/xlink">
    <title>切片</title>
    <g id="首页" stroke="none" stroke-width="1" fill="none" fill-rule="evenodd">
        <g id="任务详情" transform="translate(-1854.000000, -353.000000)">
            <g id="编组-7备份-10" transform="translate(270.000000, 96.000000)">
                <g id="编组-5" transform="translate(0.000000, 70.000000)">
                    <g id="编组-7" transform="translate(10.000000, 90.000000)">
                        <g id="方向右键" transform="translate(1574.000000, 97.000000)">
                            <circle id="椭圆形" fill-opacity="0.2" fill="#00244C" transform="translate(18.000000, 18.000000) scale(-1, 1) translate(-18.000000, -18.000000) " cx="18" cy="18" r="18"></circle>
                            <path d="M22.5606602,10.4393398 C23.1464466,11.0251263 23.1464466,11.9748737 22.5606602,12.5606602 L17.2590623,17.861 L22.5565732,23.1580706 C23.1423596,23.743857 23.1423596,24.6936045 22.5565732,25.2793909 C21.9707868,25.8651773 21.0210393,25.8651773 20.4352529,25.2793909 L14.1263495,18.9732931 C14.1090747,18.9575452 14.0920788,18.9413213 14.0753788,18.9246212 C13.9283977,18.7776401 13.818296,18.6077451 13.7450737,18.426435 C13.5211599,17.8831709 13.6300251,17.2353763 14.0712918,16.7941095 C14.1103241,16.7550773 14.1509723,16.7186458 14.1930211,16.6848152 L20.4393398,10.4393398 C21.0251263,9.85355339 21.9748737,9.85355339 22.5606602,10.4393398 Z" id="形状结合" fill="#FFFFFF" fill-rule="nonzero" transform="translate(18.316031, 17.859365) scale(-1, 1) translate(-18.316031, -17.859365) "></path>
                        </g>
                    </g>
                </g>
            </g>
        </g>
    </g>
</svg>