<?xml version="1.0" encoding="UTF-8"?>
<svg width="16px" height="16px" viewBox="0 0 16 16" version="1.1" xmlns="http://www.w3.org/2000/svg" xmlns:xlink="http://www.w3.org/1999/xlink">
    <title>搜索，放大镜</title>
    <g id="首页" stroke="none" stroke-width="1" fill="none" fill-rule="evenodd">
        <g id="流程引擎" transform="translate(-300.000000, -116.000000)" fill-rule="nonzero">
            <g id="左侧导航" transform="translate(270.000000, 86.000000)">
                <g id="搜索" transform="translate(20.000000, 20.000000)">
                    <g id="搜索，放大镜" transform="translate(10.000000, 10.000000)">
                        <rect id="矩形" fill="#000000" opacity="0" x="0" y="0" width="16" height="16"></rect>
                        <path d="M14.5359375,13.7626562 L12.590625,11.8171875 C13.5041648,10.7392591 14.0444528,9.3947055 14.1307813,7.984375 C14.358125,4.359375 11.6035938,1.23546875 7.9784375,1.008125 C7.838125,0.999375 7.69875,0.995 7.5603125,0.995 C4.11609375,0.995 1.22109375,3.67546875 1.0025,7.16046875 C0.775,10.7854687 3.52953125,13.9089062 7.15484375,14.1364062 C7.29546875,14.1451562 7.43421875,14.1495312 7.57296875,14.1495312 C9.12787408,14.1498975 10.6322586,13.5974112 11.8173438,12.5907812 L13.7626563,14.5359375 C13.9772385,14.7431879 14.3183276,14.740224 14.5292758,14.5292758 C14.740224,14.3183276 14.7431879,13.9772385 14.5359375,13.7626562 L14.5359375,13.7626562 Z M11.3140625,11.5751563 C10.3010876,12.5271259 8.96306357,13.0567359 7.57296875,13.0559384 C7.4571875,13.0559384 7.33953125,13.0521875 7.22328125,13.045 C4.26882592,12.8594893 1.99496513,10.3624537 2.0860703,7.40358227 C2.17717548,4.44471081 4.60035323,2.09229944 7.560625,2.08890625 C7.67609375,2.08890625 7.79359375,2.09265625 7.9096875,2.09984375 C10.0935718,2.23670954 11.9870006,3.65892995 12.7268904,5.71821284 C13.4667801,7.77749573 12.9114602,10.079539 11.3140625,11.575 L11.3140625,11.5751563 Z" id="形状" fill="#8F95B2"></path>
                    </g>
                </g>
            </g>
        </g>
    </g>
</svg>