<?xml version="1.0" encoding="UTF-8"?>
<svg width="26px" height="26px" viewBox="0 0 26 26" version="1.1" xmlns="http://www.w3.org/2000/svg" xmlns:xlink="http://www.w3.org/1999/xlink">
    <title>Iconly/Two-tone/Bag</title>
    <g id="首页" stroke="none" stroke-width="1" fill="none" fill-rule="evenodd">
        <g id="数据管理" transform="translate(-40.000000, -162.000000)">
            <g id="左侧导航" transform="translate(0.000000, 66.000000)">
                <g id="模版管理" transform="translate(20.000000, 76.000000)">
                    <g id="Iconly/Two-tone/Bag" transform="translate(20.000000, 20.000000)">
                        <path d="M15.75,18.1207954 L14.1988424,22.8113273 C13.9820869,23.4667725 13.2750285,23.8224007 12.6195834,23.6056452 C12.2460315,23.4821117 11.9524423,23.189911 11.8271394,22.8169489 L11.8271394,22.8169489 L10.25,18.12262 L10.25,5 C10.25,3.48121694 11.4812169,2.25 13,2.25 L13,2.25 L13.1675223,2.25501879 C14.6082954,2.34159572 15.75,3.53746816 15.75,5 L15.75,5 L15.75,18.1207954 Z M14.25,7.75 L11.75,7.75 L11.75,17.88 L13.01,21.627 L14.25,17.876 L14.25,7.75 Z M13,3.75 L12.8721948,3.75645361 C12.2418747,3.8204661 11.75,4.35279131 11.75,5 L11.75,5 L11.75,6.25 L14.25,6.25 L14.25,5 C14.25,4.35279131 13.7581253,3.8204661 13.1278052,3.75645361 L13.1278052,3.75645361 L13,3.75 L13,3.75 Z" id="形状结合" fill="currentColor" fill-rule="nonzero" transform="translate(13.000000, 12.959598) rotate(-315.000000) translate(-13.000000, -12.959598) "></path>
                        <rect id="矩形" fill="#1960F6" x="7" y="21" width="13" height="1.5" rx="0.75"></rect>
                    </g>
                </g>
            </g>
        </g>
    </g>
</svg>
