<?xml version="1.0" encoding="UTF-8"?>
<svg width="20px" height="20px" viewBox="0 0 20 20" version="1.1" xmlns="http://www.w3.org/2000/svg" xmlns:xlink="http://www.w3.org/1999/xlink">
    <title>Icon</title>
    <defs>
        <rect id="path-1" x="0" y="0" width="20" height="20" rx="6"></rect>
        <mask id="mask-2" maskContentUnits="userSpaceOnUse" maskUnits="objectBoundingBox" x="0" y="0" width="20" height="20" fill="white">
            <use xlink:href="#path-1"></use>
        </mask>
        <linearGradient x1="16.7620647%" y1="2.08166817e-15%" x2="85.7987974%" y2="92.4687669%" id="linearGradient-3">
            <stop stop-color="#4BE7FF" offset="0%"></stop>
            <stop stop-color="#265BFF" offset="100%"></stop>
        </linearGradient>
    </defs>
    <g id="项目管理" stroke="none" stroke-width="1" fill="none" fill-rule="evenodd">
        <g id="作业流程" transform="translate(-329.000000, -271.000000)">
            <g id="编组-5" transform="translate(309.000000, 233.000000)">
                <g id="编组-3" transform="translate(0.000000, 20.000000)">
                    <g id="Icon" transform="translate(20.000000, 18.000000)">
                        <use id="Icon-(Background)" stroke-opacity="0.5" stroke="#3BABFF" mask="url(#mask-2)" fill="#E5F1FF" stroke-dasharray="0,0" xlink:href="#path-1"></use>
                        <g id="xianshiqishizhi" transform="translate(4.585181, 3.550272)" fill="url(#linearGradient-3)">
                            <path d="M5.49952492,7.80237315e-08 C6.95825423,-0.000242655585 8.35732403,0.565886357 9.38889053,1.5738227 C10.420457,2.58175905 11,3.94891863 11,5.37447903 C11,7.35415794 9.26880884,9.82597092 5.84443292,12.8697737 C5.64965018,13.0434134 5.3513,13.0434134 5.15556708,12.8697737 C1.73119116,9.82597092 0,7.35415794 0,5.37447903 C0,2.40623823 2.46222117,7.80237315e-08 5.49952492,7.80237315e-08 Z M5.49952492,1.00005719 C3.02760367,1.00056982 1.02384665,2.95876493 1.0233221,5.37447903 C1.0233221,6.88059498 2.41815669,8.97170047 5.2401313,11.5837252 L5.2401313,11.5837252 L5.49952492,11.8205067 L6.04681697,11.3153729 C8.58184331,8.91784429 9.88166192,6.97345046 9.9719271,5.53233335 L9.9719271,5.53233335 L9.9766779,5.37447903 C9.97615322,2.95840236 7.97181722,1.00005719 5.49952492,1.00005719 Z M5.5,3.00000348 C6.88071187,3.00000348 8,4.11929161 8,5.50000348 C8,6.88071536 6.88071187,8.00000348 5.5,8.00000348 C4.11928813,8.00000348 3,6.88071536 3,5.50000348 C3,4.11929161 4.11928813,3.00000348 5.5,3.00000348 Z M5.5,4.00000348 C4.67157288,4.00000348 4,4.67157636 4,5.50000348 C4,6.32843061 4.67157288,7.00000348 5.5,7.00000348 C6.32842712,7.00000348 7,6.32843061 7,5.50000348 C7,4.67157636 6.32842712,4.00000348 5.5,4.00000348 Z" id="形状结合"></path>
                        </g>
                    </g>
                </g>
            </g>
        </g>
    </g>
</svg>