<?xml version="1.0" encoding="UTF-8"?>
<svg width="141px" height="35px" viewBox="0 0 141 35" version="1.1" xmlns="http://www.w3.org/2000/svg" xmlns:xlink="http://www.w3.org/1999/xlink">
    <title>数据管理</title>
    <defs>
        <linearGradient x1="9.69095375%" y1="47.3803764%" x2="72.747441%" y2="51.2793278%" id="linearGradient-1">
            <stop stop-color="#00DAFF" offset="0%"></stop>
            <stop stop-color="#1960F6" offset="100%"></stop>
        </linearGradient>
        <path d="M44.1,0.252 L44.1,5.724 L46.836,5.724 L46.836,10.152 L44.1,10.152 L44.1,13.968 L46.368,13.104 L47.376,16.668 L47.376,0.252 L51.624,0.252 L51.624,1.188 L63.576,1.188 C66.552,1.188 68.04,2.436 68.04,4.932 L68.04,11.808 L63.684,11.808 L63.684,11.16 L51.624,11.16 L51.624,13.644 L57.816,13.644 L57.816,11.664 L62.064,11.664 L62.064,13.644 L68.22,13.644 L68.22,17.388 L62.064,17.388 L62.064,19.548 L63.54,19.548 C65.052,19.548 66.096,19.866 66.672,20.502 C67.248,21.138 67.536,22.116 67.536,23.436 L67.536,31.68 L63.288,31.68 L63.288,30.78 L56.232,30.78 L56.232,31.68 L52.056,31.68 L52.056,18.54 L56.232,18.54 L56.232,19.548 L57.816,19.548 L57.816,17.388 L51.624,17.388 L51.624,19.692 C51.624,21.924 51.516,23.79 51.3,25.29 C51.084,26.79 50.742,27.99 50.274,28.89 C49.806,29.79 49.188,30.426 48.42,30.798 C47.652,31.17 46.728,31.356 45.648,31.356 L44.748,31.356 L44.748,27.072 L45.72,27.072 C45.984,27.072 46.218,26.994 46.422,26.838 C46.626,26.682 46.8,26.358 46.944,25.866 C47.088,25.374 47.196,24.66 47.268,23.724 C47.3334545,22.8730909 47.369157,21.7643306 47.3751074,20.397719 L47.376,17.352 C46.872,17.52 46.344,17.7 45.792,17.892 C45.24,18.084 44.676,18.276 44.1,18.468 L44.1,25.164 C44.1,25.98 44.022,26.718 43.866,27.378 C43.71,28.038 43.452,28.638 43.092,29.178 C42.732,29.718 42.264,30.228 41.688,30.708 C41.112,31.188 40.392,31.656 39.528,32.112 L37.188,28.26 C38.244,27.732 38.958,27.198 39.33,26.658 C39.702,26.118 39.888,25.44 39.888,24.624 L39.888,20.016 C39.408,20.184 38.952,20.352 38.52,20.52 C38.088,20.688 37.68,20.844 37.296,20.988 L36.144,16.56 L39.888,15.408 L39.888,10.152 L36.504,10.152 L36.504,5.724 L39.888,5.724 L39.888,0.252 L44.1,0.252 Z M80.568,0 L80.568,1.512 L80.568,1.512 C80.568,1.656 80.556,1.788 80.532,1.908 L87.948,1.908 L87.948,4.248 C88.644,4.128 89.148,3.798 89.46,3.258 C89.772,2.718 89.928,2.004 89.928,1.116 L89.928,0.036 L94.464,0.036 L94.464,1.53 L94.464,1.53 C94.464,1.662 94.452,1.788 94.428,1.908 L103.968,1.908 L103.968,5.256 L98.892,5.256 C99.132,5.52 99.354,5.76 99.558,5.976 C99.762,6.192 99.924,6.384 100.044,6.552 L96.768,8.424 C96.504,8.088 96.108,7.608 95.58,6.984 C95.052,6.36 94.548,5.784 94.068,5.256 L93.528,5.256 C93.12,5.952 92.61,6.51 91.998,6.93 C91.386,7.35 90.684,7.656 89.892,7.848 L90.54,8.82 L99.612,8.82 C100.98,8.82 101.994,9.12 102.654,9.72 C103.314,10.32 103.644,11.112 103.644,12.096 L103.644,14.616 L99.54,14.616 C99.996,15.216 100.224,16.116 100.224,17.316 L100.224,21.996 L95.544,21.996 L95.544,21.636 L80.928,21.636 L80.928,22.86 L97.524,22.86 C98.844,22.86 99.756,23.172 100.26,23.796 C100.764,24.42 101.016,25.356 101.016,26.604 L101.016,32.004 L96.336,32.004 L96.336,31.212 L80.928,31.212 L80.928,32.004 L76.14,32.004 L76.14,14.976 L73.116,14.976 L73.116,8.244 L77.94,8.244 L77.94,8.82 L85.896,8.82 C85.776,8.628 85.662,8.442 85.554,8.262 C85.446,8.082 85.356,7.908 85.284,7.74 L86.688,7.236 L86.688,5.256 L84.204,5.256 L85.392,6.552 L81.936,8.712 L79.272,5.76 C78.696,6.528 77.964,7.092 77.076,7.452 C76.188,7.812 75.18,7.992 74.052,7.992 L72.9,7.992 L72.9,4.248 L73.584,4.248 C74.424,4.248 75.042,3.966 75.438,3.402 C75.834,2.838 76.032,2.064 76.032,1.08 L76.032,0 L80.568,0 Z M20.484,0.036 L24.804,0.792 C24.612,1.512 24.42,2.22 24.228,2.916 C24.036,3.612 23.82,4.308 23.58,5.004 L32.256,5.004 L32.256,9.468 L31.032,9.468 L31.032,16.38 C31.032,18.9 30.882,21.042 30.582,22.806 C30.282,24.57 29.82,26.052 29.196,27.252 L32.724,27.252 L32.724,31.536 L29.412,31.536 C27.708,31.536 26.244,31.32 25.02,30.888 C23.748,31.32 22.296,31.536 20.664,31.536 L17.532,31.536 L17.532,27.252 L20.772,27.252 C20.148,26.028 19.692,24.528 19.404,22.752 C19.116,20.976 18.972,18.852 18.972,16.38 L18.972,15.3 C18.828,15.564 18.678,15.81 18.522,16.038 C18.366,16.266 18.216,16.5 18.072,16.74 L17.028,15.336 L15.48,17.28 C15.12,17.016 14.736,16.728 14.328,16.416 C13.92,16.104 13.506,15.786 13.086,15.462 C12.666,15.138 12.258,14.832 11.862,14.544 C11.466,14.256 11.1,13.992 10.764,13.752 L10.764,17.28 L6.696,17.28 L6.696,14.724 C6.048,15.396 5.28,15.894 4.392,16.218 C3.504,16.542 2.556,16.704 1.548,16.704 L0.18,16.704 L0.18,12.96 L0.756,12.96 C1.572,12.96 2.346,12.768 3.078,12.384 C3.81,12 4.344,11.364 4.68,10.476 L0.288,10.476 L0.288,6.804 L3.384,6.804 C3.168,6.492 2.934,6.144 2.682,5.76 C2.43,5.376 2.166,4.992 1.89,4.608 C1.614,4.224 1.35,3.852 1.098,3.492 C0.846,3.132 0.624,2.82 0.432,2.556 L3.276,0.612 C3.468,0.9 3.708,1.236 3.996,1.62 C4.284,2.004 4.584,2.406 4.896,2.826 C5.208,3.246 5.514,3.666 5.814,4.086 C6.114,4.506 6.396,4.884 6.66,5.22 L4.032,6.804 L6.696,6.804 L6.696,0.324 L10.764,0.324 L10.764,6.804 L13.068,6.804 L10.872,5.292 C11.112,4.98 11.376,4.62 11.664,4.212 C11.952,3.804 12.252,3.39 12.564,2.97 C12.876,2.55 13.176,2.136 13.464,1.728 C13.752,1.32 14.004,0.948 14.22,0.612 L17.316,2.592 C16.908,3.168 16.416,3.858 15.84,4.662 C15.264,5.466 14.724,6.18 14.22,6.804 L16.956,6.804 L16.956,10.044 C17.796,8.34 18.51,6.624 19.098,4.896 C19.686,3.168 20.148,1.548 20.484,0.036 Z M5.868,17.1 L5.868,18.288 L13.248,18.288 C14.376,18.288 15.252,18.546 15.876,19.062 C16.5,19.578 16.812,20.484 16.812,21.78 C16.812,24.012 16.332,25.836 15.372,27.252 L16.992,27.252 L16.992,31.536 L14.508,31.536 C13.428,31.536 12.426,31.494 11.502,31.41 C10.578,31.326 9.732,31.2 8.964,31.032 C7.332,31.368 5.472,31.536 3.384,31.536 L0,31.536 L0,27.252 L2.88,27.252 C2.448,26.556 2.13,25.788 1.926,24.948 C1.722,24.108 1.608,23.184 1.584,22.176 L0.18,22.176 L0.18,18.288 L1.584,18.288 L1.584,17.1 L5.868,17.1 Z M124.164,0.576 L124.164,1.476 L135,1.476 C136.296,1.476 137.286,1.776 137.97,2.376 C138.654,2.976 138.996,3.924 138.996,5.22 L138.996,19.548 L135.144,19.548 L135.144,18.612 L131.76,18.612 L131.76,21.024 L138.924,21.024 L138.924,24.876 L131.76,24.876 L131.76,27.36 L140.292,27.36 L140.292,31.176 L119.016,31.176 L119.016,27.612 C118.56,27.708 118.02,27.828 117.396,27.972 C116.772,28.116 116.112,28.272 115.416,28.44 C114.72,28.608 114.012,28.782 113.292,28.962 C112.572,29.142 111.906,29.31 111.294,29.466 C110.682,29.622 110.142,29.766 109.674,29.898 C109.206,30.03 108.876,30.132 108.684,30.204 L107.892,26.1 C108.132,26.052 108.66,25.938 109.476,25.758 C110.292,25.578 111.228,25.356 112.284,25.092 L112.284,16.884 L108.972,16.884 L108.972,12.78 L112.284,12.78 L112.284,6.3 L108.72,6.3 L108.72,2.088 L119.592,2.088 L119.592,6.3 L116.496,6.3 L116.496,12.78 L119.34,12.78 L119.34,16.884 L116.496,16.884 L116.496,24.084 L119.52,23.256 L120.096,27.36 L127.656,27.36 L127.656,24.876 L120.6,24.876 L120.6,21.024 L127.656,21.024 L127.656,18.612 L124.164,18.612 L124.164,19.548 L120.312,19.548 L120.312,0.576 L124.164,0.576 Z M96.336,26.316 L80.928,26.316 L80.928,27.72 L96.336,27.72 L96.336,26.316 Z M63.288,23.4 L56.232,23.4 L56.232,27.036 L63.288,27.036 L63.288,23.4 Z M12.528,22.176 L5.868,22.176 C5.916,23.352 6.168,24.3 6.624,25.02 C7.08,25.74 7.908,26.292 9.108,26.676 C10.428,26.292 11.316,25.734 11.772,25.002 C12.228,24.27 12.48,23.328 12.528,22.176 Z M26.64,9.468 L23.364,9.468 L23.364,16.02 C23.364,18.492 23.496,20.472 23.76,21.96 C24.024,23.448 24.444,24.6 25.02,25.416 C25.572,24.6 25.98,23.448 26.244,21.96 C26.508,20.472 26.64,18.492 26.64,16.02 L26.64,9.468 Z M95.544,17.064 L80.928,17.064 L80.928,18.108 L95.544,18.108 L95.544,17.064 Z M127.656,11.988 L124.164,11.988 L124.164,14.76 L127.656,14.76 L127.656,11.988 Z M135.144,11.988 L131.76,11.988 L131.76,14.76 L135.144,14.76 L135.144,11.988 Z M98.82,12.456 L77.94,12.456 L77.94,13.608 L96.732,13.608 C97.572,13.608 98.268,13.752 98.82,14.04 L98.82,12.456 Z M16.74,10.476 L12.564,10.476 L15.552,12.636 C15.768,12.3 15.972,11.952 16.164,11.592 C16.356,11.232 16.548,10.86 16.74,10.476 Z M12.384,10.476 L10.764,10.476 L10.764,12.528 L12.384,10.476 Z M127.656,5.4 L124.164,5.4 L124.164,8.136 L127.656,8.136 L127.656,5.4 Z M135.144,5.4 L131.76,5.4 L131.76,8.136 L135.144,8.136 L135.144,5.4 Z M63.684,4.932 L51.624,4.932 L51.624,7.452 L63.684,7.452 L63.684,4.932 Z" id="path-2"></path>
        <filter x="-0.7%" y="-3.1%" width="101.4%" height="112.5%" filterUnits="objectBoundingBox" id="filter-3">
            <feOffset dx="0" dy="2" in="SourceAlpha" result="shadowOffsetOuter1"></feOffset>
            <feColorMatrix values="0 0 0 0 0.729192073   0 0 0 0 0.930004791   0 0 0 0 1  0 0 0 0.708615603 0" type="matrix" in="shadowOffsetOuter1"></feColorMatrix>
        </filter>
    </defs>
    <g id="数据管理" stroke="none" stroke-width="1" fill="none" fill-rule="evenodd">
        <g transform="translate(-201.000000, -115.000000)" fill-rule="nonzero" id="编组-2">
            <g id="形状结合" transform="translate(201.620000, 115.524000)">
                <use fill="black" fill-opacity="1" filter="url(#filter-3)" xlink:href="#path-2"></use>
                <use fill="#333333" xlink:href="#path-2"></use>
                <use fill="url(#linearGradient-1)" xlink:href="#path-2"></use>
            </g>
        </g>
    </g>
</svg>