<?xml version="1.0" encoding="UTF-8"?>
<svg width="141px" height="35px" viewBox="0 0 141 35" version="1.1" xmlns="http://www.w3.org/2000/svg" xmlns:xlink="http://www.w3.org/1999/xlink">
    <title>标签管理</title>
    <defs>
        <linearGradient x1="9.69095375%" y1="47.3404544%" x2="72.747441%" y2="51.2988242%" id="linearGradient-1">
            <stop stop-color="#00DAFF" offset="0%"></stop>
            <stop stop-color="#1960F6" offset="100%"></stop>
        </linearGradient>
        <path d="M32.976,10.476 L32.976,15.048 L24.984,15.048 L24.984,26.136 C24.984,26.88 24.918,27.54 24.786,28.116 C24.654,28.692 24.408,29.226 24.048,29.718 C23.688,30.21 23.19,30.678 22.554,31.122 C21.918,31.566 21.084,32.016 20.052,32.472 L17.424,28.836 C18.432,28.38 19.17,27.924 19.638,27.468 C20.106,27.012 20.34,26.412 20.34,25.668 L20.34,15.048 L12.816,15.048 L12.816,10.476 L32.976,10.476 Z M81.072,0 L81.072,1.512 L81.072,1.512 C81.072,1.656 81.06,1.788 81.036,1.908 L88.452,1.908 L88.452,4.248 C89.148,4.128 89.652,3.798 89.964,3.258 C90.276,2.718 90.432,2.004 90.432,1.116 L90.432,0.036 L94.968,0.036 L94.968,1.53 L94.968,1.53 C94.968,1.662 94.956,1.788 94.932,1.908 L104.472,1.908 L104.472,5.256 L99.396,5.256 C99.636,5.52 99.858,5.76 100.062,5.976 C100.266,6.192 100.428,6.384 100.548,6.552 L97.272,8.424 C97.008,8.088 96.612,7.608 96.084,6.984 C95.556,6.36 95.052,5.784 94.572,5.256 L94.032,5.256 C93.624,5.952 93.114,6.51 92.502,6.93 C91.89,7.35 91.188,7.656 90.396,7.848 L91.044,8.82 L100.116,8.82 C101.484,8.82 102.498,9.12 103.158,9.72 C103.818,10.32 104.148,11.112 104.148,12.096 L104.148,14.616 L100.044,14.616 C100.5,15.216 100.728,16.116 100.728,17.316 L100.728,21.996 L96.048,21.996 L96.048,21.636 L81.432,21.636 L81.432,22.86 L98.028,22.86 C99.348,22.86 100.26,23.172 100.764,23.796 C101.268,24.42 101.52,25.356 101.52,26.604 L101.52,32.004 L96.84,32.004 L96.84,31.212 L81.432,31.212 L81.432,32.004 L76.644,32.004 L76.644,14.976 L73.62,14.976 L73.62,8.244 L78.444,8.244 L78.444,8.82 L86.4,8.82 C86.28,8.628 86.166,8.442 86.058,8.262 C85.95,8.082 85.86,7.908 85.788,7.74 L87.192,7.236 L87.192,5.256 L84.708,5.256 L85.896,6.552 L82.44,8.712 L79.776,5.76 C79.2,6.528 78.468,7.092 77.58,7.452 C76.692,7.812 75.684,7.992 74.556,7.992 L73.404,7.992 L73.404,4.248 L74.088,4.248 C74.928,4.248 75.546,3.966 75.942,3.402 C76.338,2.838 76.536,2.064 76.536,1.08 L76.536,0 L81.072,0 Z M9.504,0.468 L9.504,6.336 L12.564,6.336 L12.564,10.476 L9.504,10.476 L9.504,13.032 L9.936,12.636 C10.2,12.924 10.518,13.26 10.89,13.644 C11.262,14.028 11.64,14.43 12.024,14.85 C12.408,15.27 12.78,15.684 13.14,16.092 C13.5,16.5 13.8,16.848 14.04,17.136 L11.088,19.8 L9.504,17.892 L9.504,31.896 L5.004,31.896 L5.004,10.476 L0.864,10.476 L0.864,6.336 L5.004,6.336 L5.004,0.468 L9.504,0.468 Z M61.236,18.828 L64.944,20.736 L64.788,21.1 C64.76,21.1653333 64.731,21.233 64.701,21.303 L64.404,21.996 L64.404,21.996 C64.188,22.5 63.942,23.04 63.666,23.616 C63.39,24.192 63.102,24.792 62.802,25.416 C62.502,26.04 62.196,26.652 61.884,27.252 L67.968,27.252 L67.968,31.248 L37.692,31.248 L37.692,27.252 L43.524,27.252 C43.308,26.796 43.068,26.274 42.804,25.686 C42.54,25.098 42.264,24.504 41.976,23.904 C41.688,23.304 41.406,22.728 41.13,22.176 C40.854,21.624 40.62,21.144 40.428,20.736 L44.172,18.828 L44.3497959,19.1821224 C44.5089796,19.4980408 44.6957143,19.866 44.91,20.286 C45.21,20.874 45.516,21.48 45.828,22.104 C46.14,22.728 46.446,23.352 46.746,23.976 C47.046,24.6 47.304,25.14 47.52,25.596 L44.424,27.252 L56.916,27.252 C57.276,26.604 57.672,25.872 58.104,25.056 C58.536,24.24 58.956,23.436 59.364,22.644 C59.772,21.852 60.144,21.114 60.48,20.43 C60.816,19.746 61.068,19.212 61.236,18.828 Z M124.668,0.576 L124.668,1.476 L135.504,1.476 C136.8,1.476 137.79,1.776 138.474,2.376 C139.158,2.976 139.5,3.924 139.5,5.22 L139.5,19.548 L135.648,19.548 L135.648,18.612 L132.264,18.612 L132.264,21.024 L139.428,21.024 L139.428,24.876 L132.264,24.876 L132.264,27.36 L140.796,27.36 L140.796,31.176 L119.52,31.176 L119.52,27.612 C119.064,27.708 118.524,27.828 117.9,27.972 C117.276,28.116 116.616,28.272 115.92,28.44 C115.224,28.608 114.516,28.782 113.796,28.962 C113.076,29.142 112.41,29.31 111.798,29.466 C111.186,29.622 110.646,29.766 110.178,29.898 C109.71,30.03 109.38,30.132 109.188,30.204 L108.396,26.1 C108.636,26.052 109.164,25.938 109.98,25.758 C110.796,25.578 111.732,25.356 112.788,25.092 L112.788,16.884 L109.476,16.884 L109.476,12.78 L112.788,12.78 L112.788,6.3 L109.224,6.3 L109.224,2.088 L120.096,2.088 L120.096,6.3 L117,6.3 L117,12.78 L119.844,12.78 L119.844,16.884 L117,16.884 L117,24.084 L120.024,23.256 L120.6,27.36 L128.16,27.36 L128.16,24.876 L121.104,24.876 L121.104,21.024 L128.16,21.024 L128.16,18.612 L124.668,18.612 L124.668,19.548 L120.816,19.548 L120.816,0.576 L124.668,0.576 Z M14.4,16.416 L18.792,17.352 C18.648,18.312 18.456,19.326 18.216,20.394 C17.976,21.462 17.7,22.536 17.388,23.616 C17.076,24.696 16.74,25.764 16.38,26.82 C16.02,27.876 15.636,28.86 15.228,29.772 L10.764,28.188 C11.172,27.3 11.562,26.352 11.934,25.344 C12.306,24.336 12.648,23.322 12.96,22.302 C13.272,21.282 13.554,20.274 13.806,19.278 C14.058,18.282 14.256,17.328 14.4,16.416 Z M30.348,16.344 C30.612,17.064 30.912,17.91 31.248,18.882 C31.584,19.854 31.932,20.868 32.292,21.924 C32.652,22.98 33.006,24.03 33.354,25.074 C33.702,26.118 34.02,27.084 34.308,27.972 L29.952,29.556 C29.688,28.668 29.394,27.684 29.07,26.604 C28.746,25.524 28.422,24.438 28.098,23.346 C27.774,22.254 27.456,21.204 27.144,20.196 C26.832,19.188 26.556,18.312 26.316,17.568 L30.348,16.344 Z M4.428,12.204 L4.428,18.648 C4.428,20.16 4.386,21.492 4.302,22.644 C4.218,23.796 4.038,24.75 3.762,25.506 C3.486,26.262 3.102,26.832 2.61,27.216 C2.118,27.6 1.476,27.792 0.684,27.792 L0,27.792 L0,23.616 L0.468,23.616 C0.564,23.616 0.654,23.562 0.738,23.454 C0.822,23.346 0.894,23.112 0.954,22.752 C1.014,22.392 1.056,21.888 1.08,21.24 C1.10133333,20.664 1.11318519,19.9173333 1.11555556,19 L1.116,12.204 L4.428,12.204 Z M96.84,26.316 L81.432,26.316 L81.432,27.72 L96.84,27.72 L96.84,26.316 Z M45.288,0.036 L45.288,1.98 L45.288,1.98 C45.288,2.124 45.276,2.256 45.252,2.376 L52.668,2.376 L52.668,4.644 C53.316,4.524 53.796,4.194 54.108,3.654 C54.42,3.114 54.576,2.4 54.576,1.512 L54.576,0.036 L59.076,0.036 L59.076,1.98 L59.076,1.98 C59.076,2.124 59.064,2.256 59.04,2.376 L68.688,2.376 L68.688,5.868 L63.252,5.868 C63.636,6.324 64.008,6.762 64.368,7.182 C64.728,7.602 65.004,7.92 65.196,8.136 L61.884,10.08 L58.464,5.868 L58.032,5.868 C57.408,6.852 56.52,7.524 55.368,7.884 C56.784,7.884 57.768,8.364 58.32,9.324 C58.872,10.332 59.526,11.124 60.282,11.7 C61.038,12.276 61.818,12.702 62.622,12.978 C63.426,13.254 64.224,13.428 65.016,13.5 C65.808,13.572 66.528,13.608 67.176,13.608 L68.616,13.608 L68.616,17.46 L66.96,17.46 C66.408,17.46 65.814,17.436 65.178,17.388 C64.542,17.34 63.888,17.256 63.216,17.136 L63.216,18.72 L53.1,18.72 C53.2296,18.9792 53.37216,19.26432 53.52768,19.57536 L53.856,20.232 L53.856,20.232 C54.144,20.808 54.432,21.39 54.72,21.978 C55.008,22.566 55.284,23.136 55.548,23.688 C55.812,24.24 56.04,24.708 56.232,25.092 L52.416,27.144 C52.224,26.688 51.978,26.142 51.678,25.506 C51.378,24.87 51.066,24.21 50.742,23.526 C50.418,22.842 50.106,22.182 49.806,21.546 C49.506,20.91 49.248,20.376 49.032,19.944 L51.408,18.72 L42.732,18.72 L42.732,17.1 C42.012,17.22 41.316,17.31 40.644,17.37 C39.972,17.43 39.348,17.46 38.772,17.46 L37.26,17.46 L37.26,13.608 L38.628,13.608 C39.18,13.608 39.888,13.542 40.752,13.41 C41.616,13.278 42.498,13.05 43.398,12.726 C44.298,12.402 45.15,11.964 45.954,11.412 C46.758,10.86 47.376,10.164 47.808,9.324 L48.06,8.892 L46.656,9.828 L43.776,6.516 C43.2,7.164 42.486,7.62 41.634,7.884 C40.782,8.148 39.828,8.28 38.772,8.28 L37.62,8.28 L37.62,4.68 L38.304,4.68 C39.144,4.68 39.762,4.404 40.158,3.852 C40.554,3.3 40.752,2.52 40.752,1.512 L40.752,0.036 L45.288,0.036 Z M96.048,17.064 L81.432,17.064 L81.432,18.108 L96.048,18.108 L96.048,17.064 Z M54.684,11.412 L51.552,11.412 C51.12,12.228 50.616,12.936 50.04,13.536 C49.464,14.136 48.828,14.652 48.132,15.084 L57.816,15.084 C57.144,14.652 56.538,14.136 55.998,13.536 C55.458,12.936 55.02,12.228 54.684,11.412 Z M128.16,11.988 L124.668,11.988 L124.668,14.76 L128.16,14.76 L128.16,11.988 Z M135.648,11.988 L132.264,11.988 L132.264,14.76 L135.648,14.76 L135.648,11.988 Z M99.324,12.456 L78.444,12.456 L78.444,13.608 L97.236,13.608 C98.076,13.608 98.772,13.752 99.324,14.04 L99.324,12.456 Z M128.16,5.4 L124.668,5.4 L124.668,8.136 L128.16,8.136 L128.16,5.4 Z M135.648,5.4 L132.264,5.4 L132.264,8.136 L135.648,8.136 L135.648,5.4 Z M51.336,5.868 L48.6,5.868 C48.912,6.204 49.2,6.522 49.464,6.822 C49.728,7.122 49.944,7.368 50.112,7.56 L49.428,8.028 C49.74,7.932 50.16,7.884 50.688,7.884 L51.336,7.884 L51.336,5.868 Z M31.464,1.836 L31.464,6.228 L14.544,6.228 L14.544,1.836 L31.464,1.836 Z" id="path-2"></path>
        <filter x="-0.7%" y="-3.1%" width="101.4%" height="112.3%" filterUnits="objectBoundingBox" id="filter-3">
            <feOffset dx="0" dy="2" in="SourceAlpha" result="shadowOffsetOuter1"></feOffset>
            <feColorMatrix values="0 0 0 0 0.729192073   0 0 0 0 0.930004791   0 0 0 0 1  0 0 0 0.708615603 0" type="matrix" in="shadowOffsetOuter1"></feColorMatrix>
        </filter>
    </defs>
    <g id="标签管理" stroke="none" stroke-width="1" fill="none" fill-rule="evenodd">
        <g transform="translate(-201.000000, -115.000000)" fill-rule="nonzero" id="编组-2">
            <g id="形状结合" transform="translate(201.116000, 115.524000)">
                <use fill="black" fill-opacity="1" filter="url(#filter-3)" xlink:href="#path-2"></use>
                <use fill="#333333" xlink:href="#path-2"></use>
                <use fill="url(#linearGradient-1)" xlink:href="#path-2"></use>
            </g>
        </g>
    </g>
</svg>