<?xml version="1.0" encoding="UTF-8"?>
<svg width="26px" height="26px" viewBox="0 0 26 26" version="1.1" xmlns="http://www.w3.org/2000/svg" xmlns:xlink="http://www.w3.org/1999/xlink">
    <title>Iconly/Two-tone/Bag</title>
    <g id="首页" stroke="none" stroke-width="1" fill="currentColor" fill-rule="evenodd">
        <g id="数据管理" transform="translate(-40.000000, -96.000000)" fill-rule="nonzero">
            <g id="左侧导航" transform="translate(0.000000, 66.000000)">
                <g id="项目管理" transform="translate(20.000000, 10.000000)">
                    <g id="Iconly/Two-tone/Bag" transform="translate(20.000000, 20.000000)">
                        <g id="xiangmuguanli" transform="translate(3.000000, 3.000000)">
                            <path d="M16.7251462,19.7660819 L3.04093567,19.7660819 C1.40350878,19.7660819 0,18.3625731 0,16.7251462 L0,3.04093567 C0,1.40350878 1.40350878,0 3.04093567,0 L5.49707603,0 C6.66666667,0 7.71929825,0.701754379 8.18713452,1.75438596 L8.8888889,3.15789474 C9.12280703,3.625731 9.59064328,3.97660818 10.1754386,3.97660818 L16.7251462,3.97660818 C18.3625731,3.97660818 19.7660819,5.38011696 19.7660819,7.01754385 L19.7660819,16.7251462 C19.7660819,18.3625731 18.3625731,19.7660819 16.7251462,19.7660819 Z M3.04093567,1.63742689 C2.33918129,1.63742689 1.63742691,2.2222222 1.63742691,3.04093567 L1.63742691,16.7251462 C1.63742691,17.4269006 2.22222222,18.128655 3.04093567,18.128655 L16.7251462,18.128655 C17.4269006,18.128655 18.128655,17.5438597 18.128655,16.7251462 L18.128655,7.01754385 C18.128655,6.31578947 17.5438597,5.61403507 16.7251462,5.61403509 L10.0584795,5.61403509 C8.8888889,5.61403509 7.83625732,4.91228072 7.36842105,3.85964912 L6.66666667,2.45614036 C6.43274854,1.98830409 5.96491229,1.63742689 5.49707603,1.63742689 L3.04093567,1.63742689 Z" id="形状" fill="currentColor"></path>
                            <path d="M17.4269006,4.79532163 L15.7894737,4.79532163 L15.7894737,3.97660818 C15.7894737,3.2748538 15.2046784,2.5730994 14.3859649,2.5730994 L7.25146199,2.5730994 L7.25146199,0.935672512 L14.3859649,0.935672512 C16.0233918,0.935672512 17.4269006,2.33918129 17.4269006,3.97660818 L17.4269006,4.79532163 Z" id="路径" fill="currentColor"></path>
                            <rect id="矩形" fill="#1960F6" x="3.74269007" y="13.9356725" width="7" height="1.5" rx="0.75"></rect>
                        </g>
                    </g>
                </g>
            </g>
        </g>
    </g>
</svg>
