<?xml version="1.0" encoding="UTF-8"?>
<svg width="141px" height="35px" viewBox="0 0 141 35" version="1.1" xmlns="http://www.w3.org/2000/svg" xmlns:xlink="http://www.w3.org/1999/xlink">
    <title>模版管理</title>
    <defs>
        <linearGradient x1="9.69095375%" y1="47.4152413%" x2="72.747441%" y2="51.262301%" id="linearGradient-1">
            <stop stop-color="#00DAFF" offset="0%"></stop>
            <stop stop-color="#1960F6" offset="100%"></stop>
        </linearGradient>
        <path d="M81.036,0 L81.036,1.512 L81.036,1.512 C81.036,1.656 81.024,1.788 81,1.908 L88.416,1.908 L88.416,4.248 C89.112,4.128 89.616,3.798 89.928,3.258 C90.24,2.718 90.396,2.004 90.396,1.116 L90.396,0.036 L94.932,0.036 L94.932,1.53 L94.932,1.53 C94.932,1.662 94.92,1.788 94.896,1.908 L104.436,1.908 L104.436,5.256 L99.36,5.256 C99.6,5.52 99.822,5.76 100.026,5.976 C100.23,6.192 100.392,6.384 100.512,6.552 L97.236,8.424 C96.972,8.088 96.576,7.608 96.048,6.984 C95.52,6.36 95.016,5.784 94.536,5.256 L93.996,5.256 C93.588,5.952 93.078,6.51 92.466,6.93 C91.854,7.35 91.152,7.656 90.36,7.848 L91.008,8.82 L100.08,8.82 C101.448,8.82 102.462,9.12 103.122,9.72 C103.782,10.32 104.112,11.112 104.112,12.096 L104.112,14.616 L100.008,14.616 C100.464,15.216 100.692,16.116 100.692,17.316 L100.692,21.996 L96.012,21.996 L96.012,21.636 L81.396,21.636 L81.396,22.86 L97.992,22.86 C99.312,22.86 100.224,23.172 100.728,23.796 C101.232,24.42 101.484,25.356 101.484,26.604 L101.484,32.004 L96.804,32.004 L96.804,31.212 L81.396,31.212 L81.396,32.004 L76.608,32.004 L76.608,14.976 L73.584,14.976 L73.584,8.244 L78.408,8.244 L78.408,8.82 L86.364,8.82 C86.244,8.628 86.13,8.442 86.022,8.262 C85.914,8.082 85.824,7.908 85.752,7.74 L87.156,7.236 L87.156,5.256 L84.672,5.256 L85.86,6.552 L82.404,8.712 L79.74,5.76 C79.164,6.528 78.432,7.092 77.544,7.452 C76.656,7.812 75.648,7.992 74.52,7.992 L73.368,7.992 L73.368,4.248 L74.052,4.248 C74.892,4.248 75.51,3.966 75.906,3.402 C76.302,2.838 76.5,2.064 76.5,1.08 L76.5,0 L81.036,0 Z M20.268,0 L20.268,2.412 L24.048,2.412 L24.048,0 L28.044,0 L28.044,2.412 L32.436,2.412 L32.436,6.336 L28.044,6.336 L28.044,7.236 L24.048,7.236 L24.048,6.336 L20.268,6.336 L20.268,7.236 L16.848,7.236 L16.848,7.956 L27.756,7.956 C29.076,7.956 30.054,8.22 30.69,8.748 C31.326,9.276 31.644,10.188 31.644,11.484 L31.644,20.916 L27.576,20.916 L27.576,20.196 L24.264,20.196 L24.156,21.708 L32.724,21.708 L32.724,25.416 L25.668,25.416 C26.388,26.304 27.282,26.988 28.35,27.468 C29.418,27.948 30.672,28.164 32.112,28.116 L33.372,28.116 L33.372,31.86 L31.032,31.86 C29.064,31.86 27.372,31.542 25.956,30.906 C24.54,30.27 23.352,29.232 22.392,27.792 C21.384,29.352 20.028,30.432 18.324,31.032 C16.62,31.632 14.64,31.932 12.384,31.932 L10.764,31.932 L10.764,28.224 L12.06,28.224 C13.524,28.224 14.82,28.044 15.948,27.684 C17.076,27.324 17.976,26.568 18.648,25.416 L11.628,25.416 L11.628,21.708 L19.728,21.708 L19.836,20.196 L16.848,20.196 L16.848,20.916 L12.816,20.916 L12.816,17.172 L10.476,18.9 L8.856,16.632 L8.856,31.86 L4.788,31.86 L4.788,10.008 L0.72,10.008 L0.72,5.904 L4.788,5.904 L4.788,0.36 L8.856,0.36 L8.856,5.904 L11.7,5.904 L11.7,10.008 L8.856,10.008 L8.856,12.78 L9.972,11.952 L12.816,15.624 L12.816,7.056 L16.272,7.056 L16.272,6.336 L11.808,6.336 L11.808,2.412 L16.272,2.412 L16.272,0 L20.268,0 Z M49.032,0.252 L49.032,9.216 L50.58,9.216 L50.58,13.428 L42.768,13.428 L42.768,16.272 L46.584,16.272 C48.432,16.344 49.356,17.364 49.356,19.332 L49.356,31.68 L45.288,31.68 L45.288,20.34 L42.768,20.34 L42.768,21.132 C42.768,23.124 42.66,24.792 42.444,26.136 C42.228,27.48 41.892,28.566 41.436,29.394 C40.98,30.222 40.386,30.81 39.654,31.158 C38.922,31.506 38.052,31.68 37.044,31.68 L36.396,31.68 L36.396,27.324 L37.116,27.324 C37.332,27.324 37.536,27.234 37.728,27.054 C37.92,26.874 38.076,26.562 38.196,26.118 C38.316,25.674 38.412,25.062 38.484,24.282 C38.556,23.502 38.592,22.512 38.592,21.312 L38.592,0.936 L42.768,0.936 L42.768,9.216 L44.892,9.216 L44.892,0.252 L49.032,0.252 Z M67.932,0.36 C67.932,2.256 67.47,3.672 66.546,4.608 C65.622,5.544 64.056,6.012 61.848,6.012 L55.152,6.012 L55.152,9.18 L64.188,9.18 C65.436,9.18 66.384,9.492 67.032,10.116 C67.68,10.74 68.004,11.628 68.004,12.78 L68.004,14.796 C68.004,17.508 67.8,19.92 67.392,22.032 C66.984,24.144 66.324,25.932 65.412,27.396 C65.532,27.42 65.64,27.432 65.736,27.432 L68.148,27.432 L68.148,31.68 L65.916,31.68 C64.308,31.68 62.844,31.38 61.524,30.78 C60.852,31.068 60.132,31.29 59.364,31.446 C58.596,31.602 57.756,31.68 56.844,31.68 L54.72,31.68 L54.72,27.432 L56.556,27.432 C57.012,27.432 57.444,27.396 57.852,27.324 C56.412,24.804 55.692,21.072 55.692,16.128 L55.692,14.832 L60.012,14.832 L60.012,16.38 C60.012,18.372 60.156,20.052 60.444,21.42 C60.732,22.788 61.14,23.916 61.668,24.804 C62.388,23.7 62.886,22.314 63.162,20.646 C63.438,18.978 63.576,17.112 63.576,15.048 L63.576,13.572 L55.152,13.572 L55.152,20.484 C55.152,22.356 55.08,23.988 54.936,25.38 C54.792,26.772 54.522,27.924 54.126,28.836 C53.73,29.748 53.172,30.438 52.452,30.906 C51.732,31.374 50.796,31.632 49.644,31.68 L49.644,27.18 C49.98,27.18 50.298,26.64 50.598,25.56 C50.898,24.48 51.048,22.92 51.048,20.88 L51.048,0.972 L55.152,0.972 L55.152,1.872 L60.732,1.872 C61.476,1.872 61.98,1.752 62.244,1.512 C62.508,1.272 62.64,0.888 62.64,0.36 L67.932,0.36 Z M124.632,0.576 L124.632,1.476 L135.468,1.476 C136.764,1.476 137.754,1.776 138.438,2.376 C139.122,2.976 139.464,3.924 139.464,5.22 L139.464,19.548 L135.612,19.548 L135.612,18.612 L132.228,18.612 L132.228,21.024 L139.392,21.024 L139.392,24.876 L132.228,24.876 L132.228,27.36 L140.76,27.36 L140.76,31.176 L119.484,31.176 L119.484,27.612 C119.028,27.708 118.488,27.828 117.864,27.972 C117.24,28.116 116.58,28.272 115.884,28.44 C115.188,28.608 114.48,28.782 113.76,28.962 C113.04,29.142 112.374,29.31 111.762,29.466 C111.15,29.622 110.61,29.766 110.142,29.898 C109.674,30.03 109.344,30.132 109.152,30.204 L108.36,26.1 C108.6,26.052 109.128,25.938 109.944,25.758 C110.76,25.578 111.696,25.356 112.752,25.092 L112.752,16.884 L109.44,16.884 L109.44,12.78 L112.752,12.78 L112.752,6.3 L109.188,6.3 L109.188,2.088 L120.06,2.088 L120.06,6.3 L116.964,6.3 L116.964,12.78 L119.808,12.78 L119.808,16.884 L116.964,16.884 L116.964,24.084 L119.988,23.256 L120.564,27.36 L128.124,27.36 L128.124,24.876 L121.068,24.876 L121.068,21.024 L128.124,21.024 L128.124,18.612 L124.632,18.612 L124.632,19.548 L120.78,19.548 L120.78,0.576 L124.632,0.576 Z M96.804,26.316 L81.396,26.316 L81.396,27.72 L96.804,27.72 L96.804,26.316 Z M4.32,11.16 L4.32,17.316 C4.32,18.78 4.278,20.064 4.194,21.168 C4.11,22.272 3.936,23.19 3.672,23.922 C3.408,24.654 3.036,25.2 2.556,25.56 C2.076,25.92 1.452,26.1 0.684,26.1 L0,26.1 L0,22.104 L0.432,22.104 C0.528,22.104 0.612,22.05 0.684,21.942 C0.756,21.834 0.816,21.612 0.864,21.276 C0.912,20.94 0.942,20.46 0.954,19.836 C0.966,19.212 0.972,18.372 0.972,17.316 L0.972,11.16 L4.32,11.16 Z M96.012,17.064 L81.396,17.064 L81.396,18.108 L96.012,18.108 L96.012,17.064 Z M27.576,15.804 L16.848,15.804 L16.848,16.884 L27.576,16.884 L27.576,15.804 Z M128.124,11.988 L124.632,11.988 L124.632,14.76 L128.124,14.76 L128.124,11.988 Z M135.612,11.988 L132.228,11.988 L132.228,14.76 L135.612,14.76 L135.612,11.988 Z M99.288,12.456 L78.408,12.456 L78.408,13.608 L97.2,13.608 C98.04,13.608 98.736,13.752 99.288,14.04 L99.288,12.456 Z M27.576,11.484 L16.848,11.484 L16.848,12.564 L27.576,12.564 L27.576,11.484 Z M135.612,5.4 L132.228,5.4 L132.228,8.136 L135.612,8.136 L135.612,5.4 Z M128.124,5.4 L124.632,5.4 L124.632,8.136 L128.124,8.136 L128.124,5.4 Z" id="path-2"></path>
        <filter x="-0.7%" y="-3.1%" width="101.4%" height="112.5%" filterUnits="objectBoundingBox" id="filter-3">
            <feOffset dx="0" dy="2" in="SourceAlpha" result="shadowOffsetOuter1"></feOffset>
            <feColorMatrix values="0 0 0 0 0.729192073   0 0 0 0 0.930004791   0 0 0 0 1  0 0 0 0.708615603 0" type="matrix" in="shadowOffsetOuter1"></feColorMatrix>
        </filter>
    </defs>
    <g id="模版管理" stroke="none" stroke-width="1" fill="none" fill-rule="evenodd">
        <g transform="translate(-201.000000, -115.000000)" fill-rule="nonzero" id="编组-2">
            <g id="形状结合" transform="translate(201.152000, 115.524000)">
                <use fill="black" fill-opacity="1" filter="url(#filter-3)" xlink:href="#path-2"></use>
                <use fill="#333333" xlink:href="#path-2"></use>
                <use fill="url(#linearGradient-1)" xlink:href="#path-2"></use>
            </g>
        </g>
    </g>
</svg>