<svg xmlns="http://www.w3.org/2000/svg" xmlns:xlink="http://www.w3.org/1999/xlink" fill="none" width="24" height="24"
     viewBox="0 0 24 24" class="h-6 w-6">
    <defs>
        <clipPath id="master_svg0_5521_80946/1447_60305">
            <rect x="1.2000732421875" y="2.4000244140625" width="21.599998474121094" height="21.599998474121094"
                  rx="0"></rect>
        </clipPath>
    </defs>
    <g>
        <g>
            <g>
                <rect x="0" y="0" width="24" height="24" rx="4" fill="#6277FF" fill-opacity="1"></rect>
            </g>
            <g clip-path="url(#master_svg0_5521_80946/1447_60305)">
                <g>
                    <path d="M6.0401611328125,8.7599072265625L10.260161132812499,8.7599072265625L10.260161132812499,18.1999072265625C10.260161132812499,18.7522072265625,10.7078811328125,19.1999072265625,11.260161132812499,19.1999072265625L12.7401611328125,19.1999072265625C13.2924511328125,19.1999072265625,13.7401611328125,18.7522072265625,13.7401611328125,18.1999072265625L13.7401611328125,8.7599072265625L17.9601611328125,8.7599072265625C18.5124611328125,8.7599072265625,18.9601611328125,8.3121872265625,18.9601611328125,7.7599072265625L18.9601611328125,6.2799072265625C18.9601611328125,5.7276222265625,18.5124611328125,5.2799072265625,17.9601611328125,5.2799072265625L6.0401611328125,5.2799072265625C5.4878761328125,5.2799072265625,5.0401611328125,5.7276222265625,5.0401611328125,6.2799072265625L5.0401611328125,7.7599072265625C5.0401611328125,8.3121872265625,5.4878761328125,8.7599072265625,6.0401611328125,8.7599072265625"
                          fill="#fff" fill-opacity="1"></path>
                </g>
            </g>
        </g>
    </g>
</svg>