<?xml version="1.0" encoding="UTF-8"?>
<svg width="12px" height="13px" viewBox="0 0 12 13" version="1.1" xmlns="http://www.w3.org/2000/svg" xmlns:xlink="http://www.w3.org/1999/xlink">
    <title>chuangjianshijian备份</title>
    <g id="首页" stroke="none" stroke-width="1" fill="none" fill-rule="evenodd">
        <g id="项目管理" transform="translate(-112.000000, -492.000000)" fill="currentColor" fill-rule="nonzero">
            <g id="编组-4" transform="translate(30.000000, 222.000000)">
                <g id="平台项目" transform="translate(42.000000, 111.000000)">
                    <g id="编组-5" transform="translate(20.000000, 88.000000)">
                        <g id="chuangjianshijian备份" transform="translate(20.000000, 71.680000)">
                            <path d="M7.66666667,7.57 C7.60214149,7.56983603 7.53853247,7.55471819 7.48083333,7.52583333 L5.81416667,6.6925 C5.67286752,6.62208994 5.58349645,6.4778702 5.58333333,6.32 L5.58333333,3.40333333 C5.58333333,3.17321468 5.76988135,2.98666666 6,2.98666666 C6.23011865,2.98666666 6.41666667,3.17321468 6.41666667,3.40333333 L6.41666667,6.0625 L7.8525,6.78083333 C8.02504792,6.8673122 8.11562,7.06097117 8.07138083,7.24883888 C8.02714165,7.43670659 7.85967243,7.56960188 7.66666667,7.57 Z M6,11.32 C3.24333333,11.32 1,9.0775 1,6.32 C1,3.56333333 3.24333333,1.32 6,1.32 C8.7575,1.32 11,3.56333333 11,6.32 C11,9.0775 8.7575,11.32 6,11.32 Z M6,2.15333333 C3.7025,2.15333333 1.83333333,4.0225 1.83333333,6.32 C1.83333333,8.6175 3.7025,10.4866667 6,10.4866667 C8.2975,10.4866667 10.1666667,8.6175 10.1666667,6.32 C10.1666667,4.0225 8.2975,2.15333333 6,2.15333333 Z" id="形状"></path>
                        </g>
                    </g>
                </g>
            </g>
        </g>
    </g>
</svg>