<?xml version="1.0" encoding="UTF-8"?>
<svg width="36px" height="22px" viewBox="0 0 36 22" version="1.1" xmlns="http://www.w3.org/2000/svg" xmlns:xlink="http://www.w3.org/1999/xlink">
    <title>shangchuan-2</title>
    <g id="首页" stroke="none" stroke-width="1" fill="none" fill-rule="evenodd">
        <g id="导入数据集" transform="translate(-1350.000000, -919.000000)" fill="currentColor" fill-rule="nonzero">
            <g id="创建项目弹层" transform="translate(1040.000000, 0.000000)">
                <g id="编组备份" transform="translate(30.000000, 853.000000)">
                    <g id="shangchuan-2" transform="translate(280.000000, 66.000000)">
                        <path d="M27.0072,22 C26.4852,22 26.0604,21.6140984 26.0604,21.1380328 C26.0604,20.6619672 26.4852,20.2760656 27.0072,20.2760656 C30.9204,20.2760656 34.1028,16.875082 34.1028,12.6914754 C34.1028,8.50786885 30.9204,5.10688525 27.0072,5.10688525 C26.6292,5.10688525 26.2368,5.14655738 25.8048,5.22590164 C25.4484,5.29081967 25.0776,5.16459016 24.8616,4.89770492 C23.202,2.8852459 20.8188,1.72754098 18.324,1.72754098 C14.5548,1.72754098 11.2284,4.29540984 10.0548,8.11836066 C9.9864,8.34557377 9.8172,8.53672131 9.5904,8.64491803 C9.3636,8.75672131 9.0972,8.77836066 8.8488,8.70262295 C8.3628,8.55836066 7.8696,8.48262295 7.3872,8.48262295 C4.3596,8.48262295 1.9008,11.1262295 1.9008,14.3793443 C1.9008,17.6288525 4.3632,20.2760656 7.3872,20.2760656 L18.3276,20.2760656 C18.8496,20.2760656 19.2744,20.6619672 19.2744,21.1380328 C19.2744,21.6140984 18.846,22 18.3204,22 L7.3836,22 C3.312,22 0,18.5809836 0,14.3793443 C0,10.1777049 3.312,6.75868852 7.3836,6.75868852 C7.758,6.75868852 8.1324,6.78754098 8.5068,6.84885246 C10.1196,2.71934426 13.968,0 18.3204,0 C21.24,0 24.012,1.24786885 26.0136,3.44065574 C26.3556,3.39737705 26.6832,3.37934426 27.0072,3.37934426 C31.968,3.37934426 36,7.5557377 36,12.6914754 C36,17.8272131 31.968,22 27.0072,22 Z" id="路径"></path>
                        <path d="M23.3172,15.5298361 C23.1408,15.5298361 22.9608,15.4865574 22.8024,15.3891803 L18.9396,13.1062295 L15.0768,15.3891803 C14.6376,15.6488525 14.0508,15.5334426 13.7664,15.1367213 C13.482,14.7363934 13.608,14.202623 14.0436,13.9429508 L18.4212,11.3534426 C18.7344,11.1695082 19.1376,11.1695082 19.4508,11.3534426 L23.832,13.9429508 C24.2712,14.202623 24.3972,14.7363934 24.1092,15.1367213 C23.9328,15.3891803 23.6268,15.5298361 23.3172,15.5298361 Z" id="路径"></path>
                        <path d="M26.7588,22 C21.924,22 17.9892,17.9859016 17.9892,13.0485246 C17.9892,12.572459 18.414,12.1865574 18.936,12.1865574 C19.458,12.1865574 19.8828,12.572459 19.8828,13.0485246 C19.8828,17.0337705 22.9644,20.272459 26.7552,20.272459 C27.2772,20.272459 27.702,20.6583607 27.702,21.1344262 C27.702,21.6104918 27.2808,22 26.7588,22 Z" id="路径"></path>
                    </g>
                </g>
            </g>
        </g>
    </g>
</svg>