<svg xmlns="http://www.w3.org/2000/svg" xmlns:xlink="http://www.w3.org/1999/xlink" fill="none" width="24" height="24"
     viewBox="0 0 24 24" class="h-6 w-6">
    <defs>
        <clipPath id="master_svg0_1310_2200">
            <rect x="2" y="2" width="20" height="20" rx="0"></rect>
        </clipPath>
    </defs>
    <g>
        <g>
            <rect x="0" y="0" width="24" height="24" rx="4" fill="#6282FF" fill-opacity="1"></rect>
        </g>
        <g clip-path="url(#master_svg0_1310_2200)">
            <g>
                <path d="M14.70152,10.73298C14.70152,10.77619,14.65607,10.85172,14.56581,10.95975C14.47491,11.067779999999999,14.3776,11.19501,14.2739,11.34192C14.17021,11.48868,14.07354,11.64839,13.98264,11.82106C13.89174,11.993739999999999,13.84693,12.17074,13.84693,12.352070000000001C13.84693,12.53355,13.89174,12.708300000000001,13.98264,12.87668C14.07353,13.045200000000001,14.17021,13.198360000000001,14.2739,13.33647C14.3776,13.47475,14.47491,13.58917,14.56581,13.67991C14.65607,13.770330000000001,14.70152,13.82875,14.70152,13.85468L14.70152,15.21467C14.70152,15.36144,14.64775,15.5277,14.53955,15.71336C14.43201,15.899000000000001,14.29821,16.07376,14.13818,16.23797C13.97878,16.40185,13.80146,16.5382,13.60684,16.64576C13.41288,16.75394,13.22916,16.80772,13.05632,16.80772L6.61894,16.80772C6.38593,16.80772,6.17212,16.766759999999998,5.978159,16.684820000000002C5.783543,16.60288,5.613272,16.48829,5.466036,16.34169C5.319437,16.19478,5.204849,16.02225,5.122909,15.82349C5.0409698,15.624880000000001,5,15.40898,5,15.17596L5,9.59318C5,9.4205,5.0390579,9.24126,5.1165,9.05562C5.194597,8.86998,5.304069,8.699528,5.446826,8.54397C5.589583,8.388576,5.757941,8.259093,5.951901,8.155394C6.14652,8.0518407,6.3596900000000005,8,6.5933399999999995,8L13.03072,8C13.26374,8,13.48202,8.0409698,13.68496,8.123073C13.8879,8.205013,14.06458,8.317361,14.21566,8.45979C14.36673,8.602383,14.4858,8.772818000000001,14.57222,8.97144C14.65864,9.17006,14.70154,9.38161,14.70154,9.60614L14.70152,10.73298ZM18.73,9.51541L18.73,15.43491C18.73,15.624880000000001,18.6801,15.79324,18.5809,15.93999C18.4816,16.08689,18.3325,16.1602,18.134,16.1602C18.0649,16.1602,17.976599999999998,16.13427,17.8684,16.082430000000002C17.7569,16.028750000000002,17.649,15.96819,17.545099999999998,15.90111C17.4369,15.83213,17.3351,15.763,17.2404,15.69386C17.1456,15.624880000000001,17.0765,15.56871,17.033,15.52566C16.9209,15.430589999999999,16.75,15.2664,16.5215,15.03339C16.292299999999997,14.8002,16.061799999999998,14.5368,15.8282,14.243269999999999C15.5952,13.9496,15.3903,13.64744,15.213,13.336490000000001C15.0363,13.0257,14.94798,12.74066,14.94798,12.48157C14.94798,12.22262,15.0427,11.926870000000001,15.2329,11.59447C15.423,11.26207,15.6515,10.93608,15.9191,10.61648C16.186700000000002,10.29688,16.4677,10.00113,16.7609,9.72922C17.0547,9.45716,17.3006,9.25198,17.4996,9.11403C17.5771,9.06217,17.6827,8.999609,17.816499999999998,8.926154C17.9503,8.8527,18.0694,8.816046,18.173099999999998,8.816046C18.406100000000002,8.816046,18.5572,8.880869,18.6263,9.01033C18.6954,9.1398,18.73,9.29969,18.73,9.48948L18.73,9.51541Z"
                      fill="#fff" fill-opacity="1"></path>
            </g>
        </g>
    </g>
</svg>