<?xml version="1.0" standalone="no"?><!DOCTYPE svg PUBLIC "-//W3C//DTD SVG 1.1//EN" "http://www.w3.org/Graphics/SVG/1.1/DTD/svg11.dtd"><svg t="1747732142928" class="icon" viewBox="0 0 1024 1024" version="1.1" xmlns="http://www.w3.org/2000/svg" p-id="5461" width="32" height="32" xmlns:xlink="http://www.w3.org/1999/xlink"><path d="M557.489 946.281a34.978 34.978 0 0 1-21.725-7.555L280.952 737.073H97.718c-19.33 0-35-15.67-35-35V323.339c0-19.33 15.67-35 35-35h183.163L535.666 85.215a35.002 35.002 0 0 1 56.819 27.367v798.699a35.002 35.002 0 0 1-34.996 35zM132.718 667.073h160.407a35 35 0 0 1 21.72 7.555l207.64 164.321V185.247L314.943 350.706a35 35 0 0 1-21.818 7.633H132.718v308.734zM693.156 666.844c-8.634 0-17.283-3.175-24.049-9.576-14.041-13.285-14.654-35.438-1.369-49.479 39.243-41.478 51.54-89.896 36.547-143.909-12.141-43.737-37.835-75.37-38.094-75.685l0.079 0.095 53.783-44.804c1.395 1.674 34.339 41.651 50.912 98.959 22.909 79.211 4.796 153.022-52.38 213.453-6.882 7.276-16.147 10.946-25.429 10.946z" fill="#1890ff" p-id="5462"></path><path d="M759.358 873.971c-9.73 0-19.41-4.033-26.329-11.925-12.744-14.533-11.294-36.647 3.24-49.392C839.175 722.42 891.789 623.6 892.648 518.94c1.508-183.716-155.225-327.908-156.808-329.343-14.323-12.981-15.411-35.115-2.43-49.438s35.115-15.411 49.438-2.429c1.867 1.692 46.236 42.21 90.429 108.787 26.061 39.261 46.795 79.661 61.628 120.076 18.819 51.279 28.153 102.729 27.741 152.922-1.03 125.478-61.667 241.813-180.227 345.771a34.863 34.863 0 0 1-23.061 8.685z" fill="#1890ff" p-id="5463"></path></svg>