<?xml version="1.0" encoding="UTF-8"?>
<svg width="26px" height="26px" viewBox="0 0 26 26" version="1.1" xmlns="http://www.w3.org/2000/svg" xmlns:xlink="http://www.w3.org/1999/xlink">
    <title>Iconly/Two-tone/Bag</title>
    <g id="首页" stroke="none" stroke-width="1" fill="none" fill-rule="evenodd">
        <g id="数据管理" transform="translate(-40.000000, -228.000000)">
            <g id="左侧导航" transform="translate(0.000000, 66.000000)">
                <g id="导航/icon/商品备份-2" transform="translate(20.000000, 142.000000)">
                    <g id="Iconly/Two-tone/Bag" transform="translate(20.000000, 20.000000)">
                        <g id="yunhangyinqingshu" transform="translate(3.000000, 3.000000)">
                            <path d="M13.2196699,10.9090097 L16.048097,13.7374369 L14.9874369,14.798097 L12.1590097,11.9696699 L13.2196699,10.9090097 Z M7.98743687,10.9090097 L9.04809704,11.9696699 L6.21966991,14.798097 L5.15900974,13.7374369 L7.98743687,10.9090097 Z M6.21966991,4.90900974 L9.04809704,7.73743687 L7.98743687,8.79809704 L5.15900974,5.96966991 L6.21966991,4.90900974 Z M15.6945436,3.20190296 L16.7552038,4.26256313 L13.2196699,7.79809704 L12.1590097,6.73743687 L15.6945436,3.20190296 Z" id="形状结合" fill="currentColor"></path>
                            <path d="M3.5,13.75 C4.25939153,13.75 4.94689153,14.0578042 5.44454365,14.5554564 C5.94219577,15.0531085 6.25,15.7406085 6.25,16.5 C6.25,17.2593915 5.94219577,17.9468915 5.44454365,18.4445436 C4.94689153,18.9421958 4.25939153,19.25 3.5,19.25 C2.74060847,19.25 2.05310847,18.9421958 1.55545635,18.4445436 C1.05780423,17.9468915 0.75,17.2593915 0.75,16.5 C0.75,15.7406085 1.05780423,15.0531085 1.55545635,14.5554564 C2.05310847,14.0578042 2.74060847,13.75 3.5,13.75 Z M3.5,0.75 C4.25939153,0.75 4.94689153,1.05780423 5.44454365,1.55545635 C5.94219577,2.05310847 6.25,2.74060847 6.25,3.5 C6.25,4.25939153 5.94219577,4.94689153 5.44454365,5.44454365 C4.94689153,5.94219577 4.25939153,6.25 3.5,6.25 C2.74060847,6.25 2.05310847,5.94219577 1.55545635,5.44454365 C1.05780423,4.94689153 0.75,4.25939153 0.75,3.5 C0.75,2.74060847 1.05780423,2.05310847 1.55545635,1.55545635 C2.05310847,1.05780423 2.74060847,0.75 3.5,0.75 Z M17.5,0.75 C17.9832492,0.75 18.4207492,0.945875422 18.7374369,1.26256313 C19.0541246,1.57925084 19.25,2.01675084 19.25,2.5 C19.25,2.98324916 19.0541246,3.42074916 18.7374369,3.73743687 C18.4207492,4.05412458 17.9832492,4.25 17.5,4.25 C17.0167508,4.25 16.5792508,4.05412458 16.2625631,3.73743687 C15.9458754,3.42074916 15.75,2.98324916 15.75,2.5 C15.75,2.01675084 15.9458754,1.57925084 16.2625631,1.26256313 C16.5792508,0.945875422 17.0167508,0.75 17.5,0.75 L17.5,0.75 Z" id="形状结合" stroke="currentColor" stroke-width="1.5"></path>
                            <circle id="椭圆形备份-5" stroke="currentColor" stroke-width="1.5" cx="17.5" cy="15.5" r="1.75"></circle>
                            <circle id="椭圆形" stroke="#1960F6" stroke-width="1.5" cx="10.5" cy="9.5" r="2.75"></circle>
                        </g>
                    </g>
                </g>
            </g>
        </g>
    </g>
</svg>
